<svg xmlns="http://www.w3.org/2000/svg" viewBox="0 0 120 80">
    <defs>
        <style>
            .cls-1{fill:#fff;opacity:0}.cls-2,.cls-3{fill:none;stroke-linecap:round;stroke-linejoin:round;stroke-miterlimit:2.613;stroke-width:3px}.cls-2{stroke:#000}.cls-3{stroke:#ed3237;fill-rule:evenodd}
        </style>
    </defs>
    <g id="buildplate-home-icon" transform="translate(-388 -109)">
        <g id="wifi-sub-icon" transform="translate(-11089 -593)">
            <path id="Rectangle_278" d="M0 0h120v80H0z" class="cls-1" data-name="Rectangle 278" transform="translate(11477 702)"/>
        </g>
        <g id="Group_399" data-name="Group 399">
            <g id="Group_390" data-name="Group 390" transform="translate(26.5 -4.5)">
                <path id="Line_411" d="M0 0h61" class="cls-2" data-name="Line 411" transform="translate(391.5 173.5)"/>
                <path id="Line_412" d="M0 0h61" class="cls-2" data-name="Line 412" transform="translate(391.5 179.5)"/>
            </g>
        </g>
        <g id="Group_433" data-name="Group 433" transform="translate(428 124.365)">
            <path id="Path_159" d="M2882.2 1095.714l8.814 15.27 8.666 15.008c1.272 1.752-.917 3.465-1.7 3.46h-34.961c-2.155.224-2.543-2.521-2.15-3.2l8.814-15.27 8.667-15.008c.884-1.976 3.46-.939 3.847-.262z" class="cls-3" data-name="Path 159" transform="translate(-2860.731 -1094.831)"/>
            <path id="Path_160" d="M2895.281 1118.81c-1.577 4.252-1.163 5.883.142 9.223s-.764 7.018-.764 7.018" class="cls-3" data-name="Path 160" transform="translate(-2875.963 -1105.723)"/>
            <path id="Path_161" d="M2906.709 1135.71c1.3 3.334-.759 7.018-.759 7.018" class="cls-3" data-name="Path 161" transform="translate(-2881.272 -1113.4)"/>
            <path id="Path_162" d="M2884.328 1135.71c1.3 3.334-.758 7.018-.758 7.018" class="cls-3" data-name="Path 162" transform="translate(-2871.106 -1113.4)"/>
        </g>
    </g>
</svg>
