<svg xmlns="http://www.w3.org/2000/svg" viewBox="0 0 160 100">
    <defs>
        <style>
            .cls-1,.cls-3{fill:#fff}.cls-1{opacity:0}.cls-2{fill:none}.cls-2,.cls-3,.cls-4{stroke:#000;stroke-linecap:round;stroke-linejoin:round;stroke-miterlimit:2.613;stroke-width:3px}.cls-4{fill:#ed3237}
        </style>
    </defs>
    <g id="buildplate-icon-big" transform="translate(-310 -161)">
        <path id="Path_509" d="M0 0h160v100H0z" class="cls-1" data-name="Path 509" transform="translate(310 161)"/>
        <path id="Rectangle_526" d="M0 0h59.095v59.095H0z" class="cls-2" data-name="Rectangle 526" transform="translate(360.405 181.5)"/>
        <g id="Group_415" data-name="Group 415" transform="translate(360.405 182.31)">
            <g id="Group_413" data-name="Group 413" transform="translate(11.178)">
                <path id="Line_418" d="M0 0v58.286" class="cls-2" data-name="Line 418"/>
                <path id="Line_419" d="M0 0v56.689" class="cls-2" data-name="Line 419" transform="translate(11.977 .798)"/>
                <path id="Line_420" d="M0 0v56.689" class="cls-2" data-name="Line 420" transform="translate(35.93 .798)"/>
                <path id="Line_421" d="M0 0v56.689" class="cls-2" data-name="Line 421" transform="translate(23.953 .798)"/>
            </g>
            <g id="Group_414" data-name="Group 414" transform="rotate(90 23.554 34.732)">
                <path id="Line_418-2" d="M0 0v58.286" class="cls-2" data-name="Line 418"/>
                <path id="Line_419-2" d="M0 0v56.689" class="cls-2" data-name="Line 419" transform="translate(11.977 .798)"/>
                <path id="Line_420-2" d="M0 0v56.689" class="cls-2" data-name="Line 420" transform="translate(35.93 .798)"/>
                <path id="Line_421-2" d="M0 0v56.689" class="cls-2" data-name="Line 421" transform="translate(23.953 .798)"/>
            </g>
        </g>
        <ellipse id="Ellipse_197" cx="4.154" cy="4.154" class="cls-3" data-name="Ellipse 197" rx="4.154" ry="4.154" transform="rotate(-90 300.478 -102.949)"/>
        <ellipse id="Ellipse_198" cx="4.154" cy="4.154" class="cls-3" data-name="Ellipse 198" rx="4.154" ry="4.154" transform="rotate(-90 288.478 -78.949)"/>
        <ellipse id="Ellipse_199" cx="4.154" cy="4.154" class="cls-4" data-name="Ellipse 199" rx="4.154" ry="4.154" transform="rotate(-90 312.478 -78.949)"/>
    </g>
</svg>
