<svg xmlns="http://www.w3.org/2000/svg" viewBox="0 0 160 100">
    <defs>
        <style>
            .cls-1{fill:#fff;opacity:0}.cls-2,.cls-3,.cls-4{fill:none;stroke-width:3px}.cls-2{stroke:#ed3237}.cls-2,.cls-3{stroke-linecap:round;stroke-linejoin:round;stroke-miterlimit:2.613}.cls-3,.cls-4{stroke:#000}
        </style>
    </defs>
    <g id="calibrate-icon-big" transform="translate(-10953 -622)">
        <path id="Rectangle_285" d="M0 0h160v100H0z" class="cls-1" data-name="Rectangle 285" transform="translate(10953 622)"/>
        <g id="start-callibration-icon" transform="translate(10632.968 431.071)">
            <path id="Line_277" d="M27.785 0H0" class="cls-2" data-name="Line 277" transform="translate(386.747 257.07)"/>
            <path id="Line_310" d="M27.785 0H0" class="cls-2" data-name="Line 310" transform="translate(386.747 251.513)"/>
            <path id="Line_311" d="M27.785 0H0" class="cls-2" data-name="Line 311" transform="translate(386.747 249.661)"/>
            <path id="Line_312" d="M27.785 0H0" class="cls-2" data-name="Line 312" transform="translate(386.747 243.177)"/>
            <path id="Line_313" d="M27.785 0H0" class="cls-2" data-name="Line 313" transform="translate(386.747 241.325)"/>
            <path id="Line_314" d="M27.785 0H0" class="cls-2" data-name="Line 314" transform="translate(386.747 239.473)"/>
            <path id="Line_315" d="M11.941 0H0" class="cls-2" data-name="Line 315" transform="rotate(90 83.775 302.972)"/>
            <path id="Line_316" d="M11.941 0H0" class="cls-2" data-name="Line 316" transform="rotate(90 88.009 307.205)"/>
            <path id="Line_317" d="M11.941 0H0" class="cls-2" data-name="Line 317" transform="rotate(90 89.42 308.617)"/>
            <path id="Line_318" d="M11.941 0H0" class="cls-2" data-name="Line 318" transform="rotate(90 94.36 313.556)"/>
            <path id="Line_319" d="M11.941 0H0" class="cls-2" data-name="Line 319" transform="rotate(90 95.771 314.967)"/>
            <path id="Line_320" d="M11.941 0H0" class="cls-2" data-name="Line 320" transform="rotate(90 97.182 316.378)"/>
            <g id="Group_441" data-name="Group 441" transform="translate(-10851.968 -431.071)">
                <g id="start-callibration-icon-2" data-name="start-callibration-icon" transform="translate(10851.387 431.071)">
                    <path id="Subtraction_6" d="M-20323.535 3247.928h-36.885l-14.113-14.115v-49.883a9.009 9.009 0 0 1 9-9h42a8.94 8.94 0 0 1 6.363 2.635 8.942 8.942 0 0 1 2.637 6.364v55a9.009 9.009 0 0 1-9.002 8.999z" class="cls-3" data-name="Subtraction 6" transform="translate(20745.146 -2970)"/>
                </g>
                <path id="Subtraction_7" d="M-9504.128 3621.305l-12.905-12.906a8.971 8.971 0 0 1 3.074-.539h1.37a9.01 9.01 0 0 1 9 9v1.373a8.967 8.967 0 0 1-.537 3.071z" class="cls-4" data-name="Subtraction 7" transform="translate(20740.146 -2913.217)"/>
            </g>
        </g>
    </g>
</svg>
