<svg xmlns="http://www.w3.org/2000/svg" viewBox="0 0 160 80">
    <defs>
        <style>
            .cls-1{fill:#fff;opacity:0}.cls-2,.cls-3{fill:none;stroke-linecap:round;stroke-linejoin:round;stroke-miterlimit:2.613;stroke-width:3px}.cls-2{stroke:#ed3237}.cls-3{stroke:#000}
        </style>
    </defs>
    <g id="filament-sub-icon" transform="translate(-12039 -619)">
        <path id="Rectangle_280" d="M0 0h160v80H0z" class="cls-1" data-name="Rectangle 280" transform="translate(12039 619)"/>
        <path id="Line_295" d="M35 0H0" class="cls-2" data-name="Line 295" transform="translate(12119.5 689.5)"/>
        <g id="Group_268" data-name="Group 268" transform="translate(12094.558 608.689)">
            <ellipse id="Ellipse_173" cx="30.179" cy="30.179" class="cls-3" data-name="Ellipse 173" rx="30.179" ry="30.179" transform="translate(-5.5 20.369)"/>
            <ellipse id="Ellipse_176" cx="8.67" cy="8.67" class="cls-3" data-name="Ellipse 176" rx="8.67" ry="8.67" transform="translate(16.009 41.878)"/>
            <g id="Group_264" data-name="Group 264" transform="translate(14.551 27.015)">
                <path id="Path_323" d="M18.681 11.977a2.165 2.165 0 0 0 2.58.929 14.232 14.232 0 0 1 10.115 0 2.165 2.165 0 0 0 2.58-.929l2.374-4.232a2.036 2.036 0 0 0-1.03-2.89 23.855 23.855 0 0 0-17.96 0 2.14 2.14 0 0 0-1.032 2.89z" class="cls-3" data-name="Path 323" transform="translate(-16.087 -3.1)"/>
            </g>
            <g id="Group_265" data-name="Group 265" transform="translate(14.402 64.263)">
                <path id="Path_324" d="M33.858 40.233a2.165 2.165 0 0 0-2.58-.929 14.232 14.232 0 0 1-10.115 0 2.165 2.165 0 0 0-2.58.929l-2.374 4.232a2.036 2.036 0 0 0 1.032 2.89 23.855 23.855 0 0 0 17.96 0 2.14 2.14 0 0 0 1.032-2.89z" class="cls-3" data-name="Path 324" transform="translate(-15.943 -39.188)"/>
            </g>
            <g id="Group_266" data-name="Group 266" transform="translate(1.146 40.271)">
                <path id="Path_325" d="M11.977 33.858a2.165 2.165 0 0 0 .929-2.58 14.232 14.232 0 0 1 0-10.115 2.165 2.165 0 0 0-.929-2.58l-4.232-2.375a2.036 2.036 0 0 0-2.89 1.032 23.855 23.855 0 0 0 0 17.959 2.14 2.14 0 0 0 2.89 1.032z" class="cls-3" data-name="Path 325" transform="translate(-3.1 -15.943)"/>
            </g>
            <g id="Group_267" data-name="Group 267" transform="translate(38.394 40.42)">
                <path id="Path_326" d="M40.233 18.681a2.165 2.165 0 0 0-.929 2.58 14.232 14.232 0 0 1 0 10.115 2.165 2.165 0 0 0 .929 2.58l4.232 2.374a2.036 2.036 0 0 0 2.89-1.032 23.855 23.855 0 0 0 0-17.959 2.14 2.14 0 0 0-2.89-1.032z" class="cls-3" data-name="Path 326" transform="translate(-39.188 -16.087)"/>
            </g>
        </g>
    </g>
</svg>
