<svg xmlns="http://www.w3.org/2000/svg" viewBox="0 0 120 80">
    <defs>
        <style>
            .cls-1{fill:#fff;opacity:0}.cls-2,.cls-3,.cls-4{fill:none;stroke-linecap:round;stroke-linejoin:round;stroke-miterlimit:2.613;stroke-width:3px}.cls-2,.cls-3{stroke:#000}.cls-2{fill-rule:evenodd}.cls-4{stroke:#ed3237}
        </style>
    </defs>
    <g id="lights-icon-on" transform="translate(-621 -109)">
        <g id="wifi-sub-icon" transform="translate(-10856 -593)">
            <path id="Rectangle_278" d="M0 0h120v80H0z" class="cls-1" data-name="Rectangle 278" transform="translate(11477 702)"/>
        </g>
        <g id="Group_392" data-name="Group 392" transform="translate(655.383 122.333)">
            <path id="Path_500" d="M2554.74 620.62a12.971 12.971 0 0 0-12.97 12.974c0 10.384 6.9 10.836 6.9 16.527v5.333a5.769 5.769 0 0 0 5.753 5.753c.107 0 .211 0 .313-.009s.21.009.313.009a5.766 5.766 0 0 0 5.754-5.753v-5.333c0-5.691 6.908-6.143 6.908-16.527a12.975 12.975 0 0 0-12.971-12.974z" class="cls-2" data-name="Path 500" transform="translate(-2529.167 -608.54)"/>
            <path id="Line_394" d="M0 0v5.937" class="cls-3" data-name="Line 394" transform="translate(25.574)"/>
            <path id="Line_395" d="M0 0l2.966 5.145" class="cls-3" data-name="Line 395" transform="translate(12.787 3.423)"/>
            <path id="Line_396" d="M2.971 0L0 5.145" class="cls-3" data-name="Line 396" transform="translate(35.393 3.423)"/>
            <path id="Line_397" d="M0 0l5.141 2.966" class="cls-3" data-name="Line 397" transform="translate(3.426 12.786)"/>
            <path id="Line_398" d="M0 2.971L5.141 0" class="cls-3" data-name="Line 398" transform="translate(3.426 35.393)"/>
            <path id="Line_399" d="M5.141 0L0 2.966" class="cls-3" data-name="Line 399" transform="translate(42.583 12.786)"/>
            <path id="Line_400" d="M5.141 2.971L0 0" class="cls-3" data-name="Line 400" transform="translate(42.583 35.393)"/>
            <path id="Line_401" d="M0 0h5.937" class="cls-3" data-name="Line 401" transform="translate(0 25.573)"/>
            <path id="Line_402" d="M5.937 0H0" class="cls-3" data-name="Line 402" transform="translate(45.214 25.573)"/>
            <path id="Line_403" d="M0 1.141L10.836 0" class="cls-3" data-name="Line 403" transform="translate(20.154 46.05)"/>
            <path id="Line_408" d="M0 14.379L1.673 0" class="cls-4" data-name="Line 408" transform="translate(27.224 25.287)"/>
            <path id="Line_409" d="M1.673 14.379L0 0" class="cls-4" data-name="Line 409" transform="translate(22.252 25.287)"/>
            <path id="Line_410" d="M0 1.141L10.836 0" class="cls-3" data-name="Line 410" transform="translate(20.154 42.775)"/>
            <path id="Line_393" d="M0 1.275L12.066 0" class="cls-3" data-name="Line 393" transform="translate(19.542 39.504)"/>
        </g>
    </g>
</svg>
