<svg xmlns="http://www.w3.org/2000/svg" viewBox="0 0 160 100">
    <defs>
        <style>
            .cls-1{fill:#fff;opacity:0}.cls-2,.cls-3,.cls-4{fill:none;stroke-width:3px}.cls-2,.cls-3{stroke:#000}.cls-2,.cls-4{stroke-linecap:round;stroke-linejoin:round;stroke-miterlimit:2.613}.cls-4{stroke:#ed3237}
        </style>
    </defs>
    <g id="calibrate-icon-big" transform="translate(-10953 -622)">
        <path id="Rectangle_285" d="M0 0h160v100H0z" class="cls-1" data-name="Rectangle 285" transform="translate(10953 622)"/>
        <g id="start-callibration-icon" transform="translate(10632.968 431.071)">
            <g id="Group_441" data-name="Group 441" transform="translate(-10851.968 -431.071)">
                <g id="start-callibration-icon-2" data-name="start-callibration-icon" transform="translate(10851.387 431.071)">
                    <path id="Subtraction_6" d="M-20323.535 3247.928h-36.885l-14.113-14.115v-49.883a9.009 9.009 0 0 1 9-9h42a8.94 8.94 0 0 1 6.363 2.635 8.942 8.942 0 0 1 2.637 6.364v55a9.009 9.009 0 0 1-9.002 8.999z" class="cls-2" data-name="Subtraction 6" transform="translate(20745.146 -2970)"/>
                </g>
                <path id="Subtraction_7" d="M-9504.128 3621.305l-12.905-12.906a8.971 8.971 0 0 1 3.074-.539h1.37a9.01 9.01 0 0 1 9 9v1.373a8.967 8.967 0 0 1-.537 3.071z" class="cls-3" data-name="Subtraction 7" transform="translate(20740.146 -2913.217)"/>
            </g>
        </g>
        <g id="cloud-menu-icon-big" transform="translate(-217 -2.863)">
            <g id="Group_260" data-name="Group 260" transform="translate(11230.699 657.117)">
                <g id="Group_302" data-name="Group 302">
                    <path id="Path_351" d="M5.7 36.434a14.418 14.418 0 0 0 1.291 2.841c.732 1.119 2.066 3.013 2.066 3.013h21.735a18.6 18.6 0 0 0 9.555-7.488c3.486-5.681 3.314-9.9 3.314-9.9l-11.32 3.7-3.7 4.993a68.043 68.043 0 0 1-9.727 2.238c-1.248.172-4.7.516-5.944.6-6.586.477-7.27.003-7.27.003z" class="cls-4" data-name="Path 351" transform="translate(-5.7 -14.398)"/>
                    <path id="Line_321" d="M0 0l.301 16.656" class="cls-4" data-name="Line 321" transform="translate(12.912 4.777)"/>
                    <path id="Line_322" d="M.301 0L0 11.879" class="cls-4" data-name="Line 322" transform="translate(26.9 2.109)"/>
                    <path id="Line_323" d="M0 3.228L16.527 0" class="cls-4" data-name="Line 323" transform="translate(11.405 1.722)"/>
                    <path id="Line_324" d="M0 3.271V0" class="cls-4" data-name="Line 324" transform="translate(16.226)"/>
                    <path id="Line_325" d="M0 2.755V0" class="cls-4" data-name="Line 325" transform="translate(20.142)"/>
                    <path id="Line_326" d="M0 0h3.917" class="cls-4" data-name="Line 326" transform="translate(16.226)"/>
                    <path id="Path_352" d="M44.695 29.712V18.478s-.23-3.19 2.826-3.19a2.878 2.878 0 0 1 3.027 2.932v9.717" class="cls-4" data-name="Path 352" transform="translate(-27.91 -8.924)"/>
                    <path id="Line_327" d="M.172 4.691L0 0" class="cls-4" data-name="Line 327" transform="translate(5.638 17.474)"/>
                    <path id="Line_328" d="M0 1.291L7.317 0" class="cls-4" data-name="Line 328" transform="translate(5.81 16.14)"/>
                </g>
            </g>
        </g>
    </g>
</svg>
