<svg xmlns="http://www.w3.org/2000/svg" viewBox="0 0 48 48">
    <defs>
        <style>
            .cls-1{fill:#fff;opacity:0}.cls-2,.cls-3{fill:none;stroke:#fab617;stroke-linecap:round;stroke-linejoin:round;stroke-miterlimit:2.613;stroke-width:3px}.cls-2{fill-rule:evenodd}
        </style>
    </defs>
    <g id="settings-icon" transform="translate(-5983 102)">
        <path id="Rectangle_197" d="M0 0h48v48H0z" class="cls-1" data-name="Rectangle 197" transform="translate(5983 -102)"/>
        <g id="Group_174" data-name="Group 174" transform="translate(5991 -94)">
            <path id="Path_274" d="M2422.692 1087.14l5.387 1.256.718 3.975 1.063.308 4.586-1.182 2.917 4.7-2.3 3.317.534.966 4.08 2.411-1.261 5.387-3.974.718-.3 1.058 1.178 4.591-4.7 2.917-3.321-2.3-.961.533-2.416 4.081-5.383-1.26-.722-3.975-1.058-.3-4.591 1.177-2.917-4.7 2.3-3.317-.534-.966-4.076-2.411 1.26-5.383 3.97-.722.309-1.058-1.183-4.591 4.7-2.917 3.317 2.3.966-.534z" class="cls-2" data-name="Path 274" transform="translate(-2406.94 -1087.14)"/>
            <ellipse id="Ellipse_143" cx="3.189" cy="3.189" class="cls-3" data-name="Ellipse 143" rx="3.189" ry="3.189" transform="translate(13.179 13.179)"/>
        </g>
    </g>
</svg>
