<svg xmlns="http://www.w3.org/2000/svg" viewBox="0 0 160 100">
    <defs>
        <style>
            .cls-1{fill:#fff;opacity:0}.cls-2,.cls-3,.cls-4,.cls-5{fill:none;stroke-linecap:round;stroke-width:3px}.cls-2,.cls-4{stroke:#000}.cls-2,.cls-4,.cls-5{stroke-linejoin:round;stroke-miterlimit:2.613}.cls-2{fill-rule:evenodd}.cls-3,.cls-5{stroke:#ed3237}
        </style>
    </defs>
    <g id="settings-menu-icon-big" transform="translate(-10715 -622)">
        <path id="Rectangle_284" d="M0 0h160v100H0z" class="cls-1" data-name="Rectangle 284" transform="translate(10715 622)"/>
        <g id="Group_259" data-name="Group 259" transform="translate(0 117.071)">
            <path id="Path_310" d="M1260.065 606.89h47.672l6.135 7.08v59l-6.135 7.08h-47.672l-6.135-7.08v-59z" class="cls-2" data-name="Path 310" transform="translate(9510.684 -87.961)"/>
            <rect id="Rectangle_595" width="12.507" height="6.844" class="cls-4" data-name="Rectangle 595" rx="3" transform="translate(10802.552 526.543)"/>
            <path id="Path_1216" d="M4252.408 1397.561a5.491 5.491 0 1 0-2.433 7.392 5.43 5.43 0 0 0 2.433-7.392zm-15.613 14.389c-.142-.242-.065-.116-.2-.349a7.372 7.372 0 0 1 .915-2.462 2.835 2.835 0 0 0-.091-3.3 2.5 2.5 0 0 0-2.1-1.36c-1.052-.066-2.857-.041-3.13-.511s-.05-.091-.2-.349.056-3.974.086-5.966c.015-.854.187-1.047 1.066-1.183 1.082-.162 2.169-.3 3.241-.506a1.256 1.256 0 0 0 .693-.506c.374-.546.637-1.158 1.021-1.689a.971.971 0 0 0 .131-1.052c-.415-.981-.8-1.972-1.208-2.963-.264-.637-.162-.971.47-1.34q2.472-1.441 4.949-2.857c.647-.369.986-.278 1.441.318.652.844 1.294 1.694 1.987 2.5a1.231 1.231 0 0 0 .778.349 19.6 19.6 0 0 0 2.179 0 1.068 1.068 0 0 0 .672-.308c.723-.85 1.405-1.734 2.1-2.609.551-.693.809-.743 1.552-.329 1.739.971 5.036 2.6 5.212 2.907s.056.1.2.349a8.174 8.174 0 0 1-1.021 2.7 3.2 3.2 0 0 0 .182 3.013 2.509 2.509 0 0 0 2 1.406c1.092.071 2.806-.253 3.251.516s-.172-.293.2.349-.065 4.019-.1 6.027c-.01.779-.182.976-.985 1.1-1.128.182-2.255.334-3.378.536a1.066 1.066 0 0 0-.6.43 20.127 20.127 0 0 0-1.092 1.886 1.084 1.084 0 0 0-.111.784c.354 1 .8 1.972 1.153 2.983.121.364.3 1.062.061 1.2s-5.623 3.251-5.844 3.377-.693-.243-.9-.48c-.692-.809-1.33-1.669-1.977-2.513a.994.994 0 0 0-1.011-.47c-.652.076-1.32-.01-1.972.04a1.261 1.261 0 0 0-.789.349c-.718.829-1.38 1.7-2.058 2.553-.551.693-.814.749-1.557.334-1.74-.97-5.077-2.669-5.213-2.907z" class="cls-5" data-name="Path 1216" transform="translate(6547.27 -838.593)"/>
        </g>
        <path id="Rectangle_616" d="M0 0h160v100H0z" class="cls-1" data-name="Rectangle 616" transform="translate(10715 622)"/>
    </g>
</svg>
