<svg xmlns="http://www.w3.org/2000/svg" viewBox="0 0 160 80">
    <defs>
        <style>
            .cls-1{fill:#fff;opacity:0}.cls-2,.cls-3,.cls-4,.cls-5{fill:none;stroke-linecap:round;stroke-linejoin:round;stroke-miterlimit:2.613;stroke-width:3px}.cls-2,.cls-3{stroke:#ed3237}.cls-2,.cls-5{fill-rule:evenodd}.cls-4,.cls-5{stroke:#000}
        </style>
    </defs>
    <g id="tools-sub-icon" transform="translate(-11582 -842)">
        <path id="Rectangle_283" d="M0 0h160v80H0z" class="cls-1" data-name="Rectangle 283" transform="translate(11582 842)"/>
        <g id="Group_261" data-name="Group 261" transform="translate(.007 91.512)">
            <g id="Group_255" data-name="Group 255" transform="translate(11530 448)">
                <g id="Group_254" data-name="Group 254" transform="translate(-37 11)">
                    <path id="Path_317" d="M1451.724 409.737l-6.583 6.1-6.692-6.2" class="cls-2" data-name="Path 317" transform="translate(-1284.876 -70.312)"/>
                    <path id="Line_294" d="M0 17.828V0" class="cls-3" data-name="Line 294" transform="translate(160.265 327.699)"/>
                </g>
                <circle id="Ellipse_171" cx="3.561" cy="3.561" r="3.561" class="cls-4" data-name="Ellipse 171" transform="translate(149.728 338.406)"/>
                <rect id="Rectangle_261" width="31.787" height="31.787" class="cls-4" data-name="Rectangle 261" rx="9" transform="translate(106.993 331.858)"/>
                <path id="Path_318" d="M2757.975 407.117c-3.833-24.547 30.831-27.216 30.831-.035" class="cls-5" data-name="Path 318" transform="translate(-2635.091 -75.199)"/>
                <path id="Path_319" d="M2759.531 475.02l-.207 4.393-4.187 3.555-4.18-3.555-.207-4.393" class="cls-5" data-name="Path 319" transform="translate(-2632.253 -110.961)"/>
            </g>
        </g>
    </g>
</svg>
