<svg xmlns="http://www.w3.org/2000/svg" viewBox="0 0 160 80">
    <defs>
        <style>
            .cls-1{fill:#fff;opacity:0}.cls-2{fill:none;stroke:#000;stroke-linecap:round;stroke-linejoin:round;stroke-miterlimit:2.613;stroke-width:3px}
        </style>
    </defs>
    <g id="wifi-sub-icon" transform="translate(-11582 -658)">
        <path id="Rectangle_278" d="M0 0h160v80H0z" class="cls-1" data-name="Rectangle 278" transform="translate(11582 658)"/>
        <path id="Path_1056" d="M5820.44 953.1a41.9 41.9 0 0 0-59.25 0" class="cls-2" data-name="Path 1056" transform="translate(5870.811 -261.83)"/>
        <path id="Path_1057" d="M5770.65 962.55a28.524 28.524 0 0 1 40.34 0" class="cls-2" data-name="Path 1057" transform="translate(5870.811 -261.83)"/>
        <path id="Path_1058" d="M5801.58 971.97a15.2 15.2 0 0 0-21.52 0" class="cls-2" data-name="Path 1058" transform="translate(5870.811 -261.83)"/>
        <path id="Path_1059" d="M5787.61 980.39a3.205 3.205 0 1 1 3.21 3.2 3.214 3.214 0 0 1-3.21-3.2z" data-name="Path 1059" transform="translate(5870.811 -261.83)"/>
    </g>
</svg>
