<svg xmlns="http://www.w3.org/2000/svg" viewBox="0 0 160 100">
    <defs>
        <style>
            .cls-1{fill:#fff;opacity:0}.cls-2,.cls-3,.cls-4,.cls-5{fill:none;stroke-linecap:round;stroke-linejoin:round;stroke-miterlimit:2.613;stroke-width:3px}.cls-2,.cls-3{stroke:#000}.cls-3,.cls-5{fill-rule:evenodd}.cls-4,.cls-5{stroke:#ed3237}
        </style>
    </defs>
    <g id="z-offset-icon-big" transform="translate(-10715 -622)">
        <path id="Rectangle_284" d="M0 0h160v100H0z" class="cls-1" data-name="Rectangle 284" transform="translate(10715 622)"/>
        <g id="Group_411" data-name="Group 411" transform="translate(-4074.454 -1554.734)">
            <g id="Group_261" data-name="Group 261" transform="translate(14837.5 2197.511)">
                <g id="Group_255" data-name="Group 255">
                    <g id="Group_254" data-name="Group 254" transform="translate(5.765 25.517)">
                        <g id="Group_331" data-name="Group 331">
                            <path id="Line_294" d="M0 11.122V0" class="cls-2" data-name="Line 294"/>
                            <path id="Line_365" d="M0 11.122V0" class="cls-2" data-name="Line 365" transform="translate(10.644)"/>
                            <path id="Line_366" d="M0 11.122V0" class="cls-2" data-name="Line 366" transform="translate(5.322)"/>
                            <path id="Line_367" d="M0 11.122V0" class="cls-2" data-name="Line 367" transform="translate(15.966)"/>
                        </g>
                    </g>
                    <rect id="Rectangle_261" width="28.195" height="28.195" class="cls-2" data-name="Rectangle 261" rx="6" transform="translate(0 17.419)"/>
                    <path id="Path_318" d="M2759.027 404.4c-3.4-21.773 26.382-23.65 26.382.46" class="cls-3" data-name="Path 318" transform="translate(-2744.411 -387.419)"/>
                    <path id="Path_319" d="M2758.538 475.02l-.184 3.9-3.714 3.153-3.708-3.153-.184-3.9" class="cls-3" data-name="Path 319" transform="translate(-2740.106 -429.039)"/>
                </g>
            </g>
            <path id="Line_368" d="M0 0h59.429" class="cls-4" data-name="Line 368" transform="translate(14841.049 2256.734)"/>
            <g id="Group_332" data-name="Group 332" transform="translate(14876.551 2195.778)">
                <path id="Path_311" d="M0 0l7.52 7.52L0 15.041" class="cls-5" data-name="Path 311" transform="rotate(-90 6.196 1.324)"/>
                <path id="Path_312" d="M0 0l7.52 7.52L0 15.041" class="cls-5" data-name="Path 312" transform="rotate(90 -16.503 36.415)"/>
                <g id="Group_251" data-name="Group 251" transform="rotate(-90 22.908 22.908)">
                    <ellipse id="Ellipse_143" cx="3.154" cy="3.154" class="cls-4" data-name="Ellipse 143" rx="3.154" ry="3.154" transform="translate(3.33 9.33)"/>
                </g>
                <path id="Line_329" d="M0 0v15.966" class="cls-4" data-name="Line 329" transform="translate(12.524 44.103)"/>
                <path id="Line_330" d="M0 0v32.951" class="cls-4" data-name="Line 330" transform="translate(12.295 1.505)"/>
            </g>
        </g>
    </g>
</svg>
