<?xml version="1.0" encoding="utf-8"?>
<!-- Generator: Adobe Illustrator 16.0.0, SVG Export Plug-In . SVG Version: 6.00 Build 0)  -->
<!DOCTYPE svg PUBLIC "-//W3C//DTD SVG 1.1//EN" "http://www.w3.org/Graphics/SVG/1.1/DTD/svg11.dtd">
<svg version="1.1" id="Layer_1" xmlns="http://www.w3.org/2000/svg" xmlns:xlink="http://www.w3.org/1999/xlink" x="0px" y="0px"
	 width="51.885px" height="51.886px" viewBox="0 0 51.885 51.886" enable-background="new 0 0 51.885 51.886" xml:space="preserve">
<g>
	
		<line fill="none" stroke="#E2231A" stroke-width="3" stroke-linecap="round" stroke-linejoin="round" stroke-miterlimit="10" x1="25.102" y1="43.283" x2="35.643" y2="43.283"/>
	<g id="Group_459_139_" transform="translate(.483)">
		<g id="Group_458_101_" transform="translate(180 261.86)">
			<g id="Group_192_101_" transform="translate(173 16.757)">
				
					<path id="Rectangle_192_101_" fill="none" stroke="#020202" stroke-width="3" stroke-linecap="round" stroke-linejoin="round" stroke-miterlimit="10" d="
					M-334.169-261.643h11.58c1.696,0,3.071,1.375,3.071,3.072v11.579c0,1.697-1.375,3.072-3.071,3.072h-11.58
					c-1.696,0-3.071-1.375-3.071-3.072v-11.579C-337.241-260.267-335.866-261.643-334.169-261.643z"/>
				
					<path id="Path_261_101_" fill="none" stroke="#020202" stroke-width="3" stroke-linecap="round" stroke-linejoin="round" stroke-miterlimit="10" d="
					M-328.31-261.706c-0.846-3.339,0.774-6.812,3.877-8.309"/>
				
					<path id="Path_262_101_" fill="none" stroke="#020202" stroke-width="3" stroke-linecap="round" stroke-linejoin="round" stroke-miterlimit="10" d="
					M-324.433-243.478l-0.186,3.952l-3.763,3.192l-3.766-3.192l-0.187-3.952"/>
			</g>
			<g id="Group_200_101_">
				
					<path id="Path_285_97_" fill="none" stroke="#020202" stroke-width="3" stroke-linecap="round" stroke-linejoin="round" stroke-miterlimit="10" d="
					M-155.538-239.065v6.136"/>
			</g>
		</g>
	</g>
</g>
</svg>
