<?xml version="1.0" encoding="utf-8"?>
<!-- Generator: Adobe Illustrator 16.0.0, SVG Export Plug-In . SVG Version: 6.00 Build 0)  -->
<!DOCTYPE svg PUBLIC "-//W3C//DTD SVG 1.1//EN" "http://www.w3.org/Graphics/SVG/1.1/DTD/svg11.dtd">
<svg version="1.1" id="Layer_1" xmlns="http://www.w3.org/2000/svg" xmlns:xlink="http://www.w3.org/1999/xlink" x="0px" y="0px"
	 width="84.344px" height="84.346px" viewBox="0 0 84.344 84.346" enable-background="new 0 0 84.344 84.346" xml:space="preserve">
<g opacity="0.5">
	<circle fill="#F9B621" cx="42.172" cy="42.173" r="32.492"/>
	
		<circle fill="none" stroke="#020202" stroke-width="3.5261" stroke-linecap="round" stroke-linejoin="round" stroke-miterlimit="10" cx="42.172" cy="42.173" r="24.51"/>
	<g>
		
			<path fill="#020202" stroke="#020202" stroke-width="1.4983" stroke-linecap="round" stroke-linejoin="round" stroke-miterlimit="10" d="
			M40.564,46.616c0-2.89,1.625-4.479,3.611-6.467c1.662-1.662,3.07-2.998,3.07-5.273c0-2.458-1.479-4.228-4.695-4.228
			c-3.143,0-5.311,2.059-5.598,5.418h-1.844c0.254-4.225,3.252-7.043,7.477-7.043c4.516,0,6.648,2.674,6.648,5.779
			c0,2.927-1.77,4.408-3.721,6.358c-1.844,1.806-3.217,3.178-3.217,5.6v1.913h-1.732V46.616z M39.842,53.805
			c0-0.867,0.686-1.553,1.553-1.553c0.832,0,1.518,0.686,1.518,1.553c0,0.83-0.686,1.518-1.518,1.518
			C40.527,55.322,39.842,54.635,39.842,53.805z"/>
	</g>
</g>
</svg>
