<?xml version="1.0" encoding="utf-8"?>
<!-- Generator: Adobe Illustrator 16.0.0, SVG Export Plug-In . SVG Version: 6.00 Build 0)  -->
<!DOCTYPE svg PUBLIC "-//W3C//DTD SVG 1.1//EN" "http://www.w3.org/Graphics/SVG/1.1/DTD/svg11.dtd">
<svg version="1.1" id="Layer_1" xmlns="http://www.w3.org/2000/svg" xmlns:xlink="http://www.w3.org/1999/xlink" x="0px" y="0px"
	 width="84.344px" height="84.345px" viewBox="0 0 84.344 84.345" enable-background="new 0 0 84.344 84.345" xml:space="preserve">
<g>
	<g>
		
			<rect x="24.241" y="37.021" fill="none" stroke="#020202" stroke-width="3" stroke-linecap="round" stroke-linejoin="round" stroke-miterlimit="10" width="35.861" height="26.367"/>
		
			<rect x="39.715" y="13.767" fill="none" stroke="#020202" stroke-width="3" stroke-linecap="round" stroke-linejoin="round" stroke-miterlimit="10" width="4.913" height="13.471"/>
		<path fill="none" stroke="#020202" stroke-width="3" stroke-linecap="round" stroke-linejoin="round" stroke-miterlimit="10" d="
			M62.569,33.89c0,1.729-1.402,3.132-3.132,3.132H24.905c-1.729,0-3.131-1.402-3.131-3.132v-0.755c0-1.73,1.402-3.133,3.131-3.133
			h34.532c1.729,0,3.132,1.402,3.132,3.133V33.89z"/>
		<path fill="none" stroke="#020202" stroke-width="3" stroke-linecap="round" stroke-linejoin="round" stroke-miterlimit="10" d="
			M62.569,67.277c0,1.729-1.402,3.131-3.132,3.131H24.905c-1.729,0-3.131-1.402-3.131-3.131v-0.757c0-1.729,1.402-3.132,3.131-3.132
			h34.532c1.729,0,3.132,1.402,3.132,3.132V67.277z"/>
		<path fill="none" stroke="#020202" stroke-width="3" stroke-linecap="round" stroke-linejoin="round" stroke-miterlimit="10" d="
			M31.622,30c0.182-1.557,1.505-2.763,3.11-2.763h14.88c1.605,0,2.93,1.208,3.111,2.767"/>
	</g>
	<g>
		<g>
			<line fill="none" stroke="#F9B621" stroke-width="5.44" x1="25.479" y1="33.512" x2="58.865" y2="66.898"/>
			<line fill="none" stroke="#F9B621" stroke-width="5.44" x1="58.865" y1="33.512" x2="25.479" y2="66.898"/>
		</g>
		<g>
			
				<line fill="none" stroke="#E2231A" stroke-width="2.176" stroke-linecap="round" stroke-linejoin="round" stroke-miterlimit="10" x1="25.479" y1="33.512" x2="58.865" y2="66.898"/>
			
				<line fill="none" stroke="#E2231A" stroke-width="2.176" stroke-linecap="round" stroke-linejoin="round" stroke-miterlimit="10" x1="58.865" y1="33.512" x2="25.479" y2="66.898"/>
		</g>
	</g>
</g>
<rect x="0.38" y="0.38" fill="none" stroke="#E5007E" stroke-width="0.7603" stroke-miterlimit="10" width="83.584" height="83.585"/>
</svg>
