<?xml version="1.0" encoding="utf-8"?>
<!-- Generator: Adobe Illustrator 23.0.2, SVG Export Plug-In . SVG Version: 6.00 Build 0)  -->
<svg version="1.1" id="Layer_1" xmlns="http://www.w3.org/2000/svg" xmlns:xlink="http://www.w3.org/1999/xlink" x="0px" y="0px"
	 viewBox="0 0 128.9 128.9" style="enable-background:new 0 0 128.9 128.9;" xml:space="preserve">
<style type="text/css">
	.st0{fill:none;stroke:#E2231A;stroke-width:4;stroke-linecap:round;stroke-linejoin:round;stroke-miterlimit:10;}
	.st1{fill:none;stroke:#020202;stroke-width:4;stroke-linecap:round;stroke-linejoin:round;stroke-miterlimit:10;}
</style>
<g>
	<g id="Group_347" transform="translate(23.178 -14)">
		<g id="extruder-2-icon-big" transform="translate(104.888 138)">
			<g id="Group_261_12_">
				<g id="Group_255_17_">
					<g id="Group_254_13_" transform="translate(10.378 17.831)">
						<path id="Line_343" class="st0" d="M-51.3-40v-6.4"/>
					</g>
					<ellipse id="Ellipse_171" class="st1" cx="-10.4" cy="-66.9" rx="3.6" ry="3.6"/>
					<path id="Path_318_11_" class="st1" d="M-41.3-77.2c-3.9-25,31.4-27.7,31.4,0"/>
				</g>
			</g>
		</g>
		<g id="Group_346" transform="translate(62.822 153.365)">
			<path id="Path_159_1_" class="st0" d="M-46.2-88l13.2,22.8l13,22.5c1.9,2.6-1.4,5.2-2.5,5.2h-52.3c-3.2,0.3-3.8-3.8-3.2-4.8
				L-65-65.1l13-22.5C-50.7-90.5-46.8-89-46.2-88L-46.2-88z"/>
			<path id="Path_160_1_" class="st0" d="M-49.5-69.7c-2.4,6.4-1.7,8.8,0.2,13.8c2,5-1.1,10.5-1.1,10.5"/>
			<path id="Path_161_1_" class="st0" d="M-40.3-55.9c1.9,5-1.1,10.5-1.1,10.5"/>
			<path id="Path_162_1_" class="st0" d="M-58.6-55.9c1.9,5-1.1,10.5-1.1,10.5"/>
		</g>
	</g>
	<g id="Group_255_20_">
		<g id="Group_254_15_" transform="translate(5.765 25.517)">
			<g id="Group_331_14_">
				<path id="Line_365_12_" class="st1" d="M81,43.4V30.6"/>
			</g>
		</g>
		<path id="Rectangle_261_15_" class="st1" d="M77,46.9h18.5c3.8,0,6.9,3.1,6.9,6.9v18.5c0,3.8-3.1,6.9-6.9,6.9H77
			c-3.8,0-6.9-3.1-6.9-6.9V53.8C70.1,50,73.2,46.9,77,46.9z"/>
		<path id="Path_319_15_" class="st1" d="M91.2,79.6L91,84l-4.2,3.6L82.5,84l-0.2-4.5"/>
	</g>
</g>
</svg>
