<?xml version="1.0" encoding="utf-8"?>
<!-- Generator: Adobe Illustrator 16.0.0, SVG Export Plug-In . SVG Version: 6.00 Build 0)  -->
<!DOCTYPE svg PUBLIC "-//W3C//DTD SVG 1.1//EN" "http://www.w3.org/Graphics/SVG/1.1/DTD/svg11.dtd">
<svg version="1.1" id="Layer_1" xmlns="http://www.w3.org/2000/svg" xmlns:xlink="http://www.w3.org/1999/xlink" x="0px" y="0px"
	 width="210.652px" height="129.268px" viewBox="0 0 210.652 129.268" enable-background="new 0 0 210.652 129.268"
	 xml:space="preserve">
<g>
	<g>
		<g id="Group_261_22_" transform="translate(5.007 96.512)">
			<g id="Group_255_40_" transform="translate(11530 448)">
				
					<path id="Path_318_21_" fill="none" stroke="#E2231A" stroke-width="4" stroke-linecap="round" stroke-linejoin="round" stroke-miterlimit="10" d="
					M-11472.947-506.125c-6.845-43.849,55.076-48.616,55.076-0.061v28.518"/>
			</g>
			
				<path id="Line_428_15_" fill="none" stroke="#E2231A" stroke-width="4" stroke-linecap="round" stroke-linejoin="round" stroke-miterlimit="10" d="
				M1.874,23.053h196.891"/>
		</g>
		<g id="Group_255_39_">
			
				<path id="Rectangle_261_23_" fill="none" stroke="#020202" stroke-width="4.6892" stroke-linecap="round" stroke-linejoin="round" stroke-miterlimit="10" d="
				M45.041,38.571h32.48c6.646,0,12.033,5.388,12.033,12.034v32.479c0,6.646-5.388,12.033-12.033,12.033h-32.48
				c-6.645,0-12.033-5.388-12.033-12.033V50.604C33.008,43.959,38.397,38.571,45.041,38.571z"/>
			<g id="Group_254_7_" transform="translate(5.765 25.517)">
				<g id="Group_331_4_">
					
						<path id="Line_365_4_" fill="none" stroke="#020202" stroke-width="4.6892" stroke-linecap="round" stroke-linejoin="round" stroke-miterlimit="10" d="
						M62.53,51.662V29.356"/>
					
						<path id="Line_366_12_" fill="none" stroke="#020202" stroke-width="4.6892" stroke-linecap="round" stroke-linejoin="round" stroke-miterlimit="10" d="
						M49.003,51.662V29.356"/>
				</g>
			</g>
			
				<path id="Path_319_23_" fill="none" stroke="#020202" stroke-width="4.6892" stroke-linecap="round" stroke-linejoin="round" stroke-miterlimit="10" d="
				M69.976,95.854l-0.37,7.822l-7.447,6.323l-7.438-6.323l-0.369-7.822"/>
		</g>
	</g>
	<g>
		<text transform="matrix(1 0 0 1 130.1731 74.7734)" font-family="'Graphik-Semibold'" font-size="21.4257">PVA</text>
	</g>
	<g id="Group_303_17_" transform="translate(10875.5 1448.631)">
		
			<ellipse id="Ellipse_173_18_" fill="none" stroke="#020202" stroke-width="4.6892" stroke-linecap="round" stroke-linejoin="round" stroke-miterlimit="10" cx="-10723.398" cy="-1381.787" rx="35.043" ry="35.043"/>
		<g id="Group_266_18_" transform="translate(1.146 40.271)">
			
				<path id="Path_325_18_" fill="none" stroke="#020202" stroke-width="4.6892" stroke-linecap="round" stroke-linejoin="round" stroke-miterlimit="10" d="
				M-10733.414-1439.075c0.615,1.026,1.867,1.478,2.996,1.079c3.783-1.438,7.962-1.438,11.745,0
				c1.128,0.399,2.381-0.053,2.996-1.079l2.757-4.915c0.639-1.139,0.232-2.579-0.906-3.218c-0.095-0.053-0.191-0.098-0.291-0.138
				c-6.687-2.717-14.168-2.717-20.854,0c-1.249,0.569-1.799,2.044-1.229,3.292c0.01,0.021,0.02,0.042,0.029,0.063
				L-10733.414-1439.075z"/>
		</g>
		<g id="Group_267_18_" transform="translate(38.394 40.42)">
			
				<path id="Path_326_18_" fill="none" stroke="#020202" stroke-width="4.6892" stroke-linecap="round" stroke-linejoin="round" stroke-miterlimit="10" d="
				M-10753.044-1405.068c-0.614-1.026-1.868-1.478-2.996-1.079c-3.783,1.438-7.962,1.438-11.745,0
				c-1.128-0.399-2.381,0.053-2.995,1.079l-2.757,4.914c-0.638,1.139-0.231,2.581,0.907,3.219c0.094,0.052,0.191,0.098,0.291,0.137
				c6.686,2.716,14.168,2.716,20.853,0c1.249-0.57,1.799-2.044,1.229-3.293c-0.009-0.021-0.02-0.042-0.029-0.063
				L-10753.044-1405.068z"/>
		</g>
	</g>
</g>
</svg>
