<?xml version="1.0" encoding="utf-8"?>
<!-- Generator: Adobe Illustrator 23.0.2, SVG Export Plug-In . SVG Version: 6.00 Build 0)  -->
<svg version="1.1" id="Layer_1" xmlns="http://www.w3.org/2000/svg" xmlns:xlink="http://www.w3.org/1999/xlink" x="0px" y="0px"
	 width="128.9px" height="128.9px" viewBox="0 0 128.9 128.9" style="enable-background:new 0 0 128.9 128.9;" xml:space="preserve"
	>
<style type="text/css">
	.st0{fill:none;stroke:#E2231A;stroke-width:4.3592;stroke-linecap:round;stroke-linejoin:round;stroke-miterlimit:10;}
	.st1{fill:none;stroke:#020202;stroke-width:4.3592;stroke-linecap:round;stroke-linejoin:round;stroke-miterlimit:10;}
	.st2{fill:none;stroke:#020202;stroke-width:5.1103;stroke-linecap:round;stroke-linejoin:round;stroke-miterlimit:10;}
	.st3{fill:none;}
</style>
<g>
	<path id="Path_319_9_" class="st0" d="M67.9,104l-0.4,8.5l-8.1,6.9l-8.1-6.9l-0.4-8.5"/>
	<g id="Group_261_9_" transform="translate(5.007 96.512)">
		<g id="Group_255_15_" transform="translate(11530 448)">
			<circle id="Ellipse_171_3_" class="st1" cx="-11416.6" cy="-483.5" r="6.9"/>
			<path id="Path_318_8_" class="st1" d="M-11475.8-503.1c-7.5-47.8,60-53,60-0.1"/>
		</g>
	</g>
	<g id="Group_254_9_" transform="translate(5.765 25.517)">
		<g id="Group_331_9_">
			<path id="Line_365_8_" class="st2" d="M53.6,58.1V33.8"/>
		</g>
	</g>
	<path id="Rectangle_261_9_" class="st2" d="M40.7,41.6h35.4c7.2,0,13.1,5.9,13.1,13.1v35.4c0,7.2-5.9,13.1-13.1,13.1H40.7
		c-7.2,0-13.1-5.9-13.1-13.1V54.7C27.6,47.5,33.4,41.6,40.7,41.6z"/>
</g>
<rect x="0.6" y="0.6" class="st3" width="127.8" height="127.8"/>
</svg>
