<?xml version="1.0" encoding="utf-8"?>
<!-- Generator: Adobe Illustrator 23.0.2, SVG Export Plug-In . SVG Version: 6.00 Build 0)  -->
<svg version="1.1" xmlns="http://www.w3.org/2000/svg" xmlns:xlink="http://www.w3.org/1999/xlink" x="0px" y="0px"
	 width="128.943px" height="128.943px" viewBox="0 0 128.943 128.943" enable-background="new 0 0 128.943 128.943"
	 xml:space="preserve">
<g id="Layer_1">
	<g>
		<g>
			<g id="Group_261_28_" transform="translate(5.007 96.512)">
				<g id="Group_255_53_" transform="translate(11530 448)">
					
						<path id="Ellipse_171_8_" fill="none" stroke="#020202" stroke-width="3.5514" stroke-linecap="round" stroke-linejoin="round" stroke-miterlimit="10" d="
						M-11415.465-486.134c3.118,0,5.647,2.527,5.647,5.647c0,3.119-2.529,5.648-5.647,5.648c-3.119,0-5.647-2.528-5.647-5.648
						C-11421.112-483.607-11418.584-486.134-11415.465-486.134z"/>
					
						<path id="Path_318_22_" fill="none" stroke="#020202" stroke-width="3.5514" stroke-linecap="round" stroke-linejoin="round" stroke-miterlimit="10" d="
						M-11463.688-496.424c-6.078-38.931,48.899-43.164,48.899-0.055"/>
				</g>
			</g>
			<g id="Group_255_52_">
				<g id="Group_254_34_" transform="translate(5.765 25.517)">
					<g id="Group_331_32_">
						
							<path id="Line_365_30_" fill="none" stroke="#020202" stroke-width="4.1633" stroke-linecap="round" stroke-linejoin="round" stroke-miterlimit="10" d="
							M65.646,56.958V37.153"/>
					</g>
				</g>
				
					<path id="Rectangle_261_29_" fill="none" stroke="#020202" stroke-width="4.1633" stroke-linecap="round" stroke-linejoin="round" stroke-miterlimit="10" d="
					M56.21,48.25h28.836c5.901,0,10.684,4.784,10.684,10.684v28.837c0,5.9-4.782,10.683-10.684,10.683H56.21
					c-5.9,0-10.685-4.782-10.685-10.683V58.934C45.526,53.034,50.31,48.25,56.21,48.25z"/>
				
					<path id="Path_319_31_" fill="none" stroke="#020202" stroke-width="4.1633" stroke-linecap="round" stroke-linejoin="round" stroke-miterlimit="10" d="
					M78.348,99.108l-0.328,6.945l-6.613,5.615l-6.602-5.615l-0.329-6.945"/>
			</g>
		</g>
		<g id="Group_255_51_" transform="translate(11530 448)">
			
				<path fill="none" stroke="#E1251B" stroke-width="3.5514" stroke-linecap="round" stroke-linejoin="round" stroke-miterlimit="10" d="
				M-11500.453-399.912c-1.394-8.908,0.371-18.538,7.287-24.807c5.648-5.12,13.707-7.055,21.115-5.448
				c4.341,0.941,8.382,3.081,11.594,6.149"/>
		</g>
		<g id="Group_255_50_">
			<g id="Group_254_33_" transform="translate(5.765 25.517)">
				<g id="Group_331_31_">
					
						<path id="Line_365_29_" fill="none" stroke="#E1251B" stroke-width="3.5514" stroke-linecap="round" stroke-linejoin="round" stroke-miterlimit="10" d="
						M29.317,56.958V37.153"/>
					
						<path id="Line_366_15_" fill="none" stroke="#E1251B" stroke-width="3.5514" stroke-linecap="round" stroke-linejoin="round" stroke-miterlimit="10" d="
						M17.307,56.958V37.153"/>
				</g>
			</g>
			
				<path fill="none" stroke="#E1251B" stroke-width="3.5514" stroke-linecap="round" stroke-linejoin="round" stroke-miterlimit="10" d="
				M43.275,48.25H14.437c-5.899,0-10.684,4.784-10.684,10.684v28.837c0,5.9,4.784,10.683,10.684,10.683h28.838"/>
			
				<path id="Path_319_30_" fill="none" stroke="#E1251B" stroke-width="3.5514" stroke-linecap="round" stroke-linejoin="round" stroke-miterlimit="10" d="
				M36.576,99.108l-0.33,6.945l-6.611,5.615l-6.604-5.615l-0.328-6.945"/>
		</g>
	</g>
</g>
<g id="Capa_2">
</g>
</svg>
