<?xml version="1.0" encoding="utf-8"?>
<!-- Generator: Adobe Illustrator 23.0.2, SVG Export Plug-In . SVG Version: 6.00 Build 0)  -->
<svg version="1.1" id="Layer_1" xmlns="http://www.w3.org/2000/svg" xmlns:xlink="http://www.w3.org/1999/xlink" x="0px" y="0px"
	 width="128.9px" height="128.9px" viewBox="0 0 128.9 128.9" style="enable-background:new 0 0 128.9 128.9;" xml:space="preserve"
	>
<style type="text/css">
	.st0{fill:none;stroke:#020202;stroke-width:3.9725;stroke-linecap:round;stroke-linejoin:round;stroke-miterlimit:10;}
	.st1{fill:none;stroke:#E2231A;stroke-width:4;stroke-linecap:round;stroke-linejoin:round;stroke-miterlimit:10;}
	.st2{fill:none;}
</style>
<g>
	<line class="st0" x1="60.3" y1="20.2" x2="60.3" y2="55.1"/>
	<line class="st0" x1="68.6" y1="55.1" x2="68.6" y2="20.2"/>
	<line class="st0" x1="68.6" y1="116.5" x2="68.6" y2="74"/>
	<line class="st0" x1="60.3" y1="74" x2="60.3" y2="116.5"/>
	<polyline class="st0" points="75.1,62.6 75.1,55.1 53.8,55.1 53.8,62.6 	"/>
	<line class="st0" x1="24.5" y1="20.2" x2="24.5" y2="45.9"/>
	<line class="st0" x1="29.4" y1="45.9" x2="29.4" y2="20.2"/>
	<line class="st0" x1="29.4" y1="116.5" x2="29.4" y2="78.9"/>
	<line class="st0" x1="24.5" y1="78.9" x2="24.5" y2="116.5"/>
	<line class="st0" x1="99.5" y1="20.2" x2="99.5" y2="45.9"/>
	<line class="st0" x1="104.4" y1="45.9" x2="104.4" y2="20.2"/>
	<line class="st0" x1="104.4" y1="116.5" x2="104.4" y2="78.9"/>
	<line class="st0" x1="99.5" y1="78.9" x2="99.5" y2="116.5"/>
	<polyline class="st0" points="32.1,62.6 32.1,45.9 21.8,45.9 21.8,62.6 	"/>
	<polyline class="st0" points="20.6,74.2 20.6,78.9 33.3,78.9 33.3,74.2 	"/>
	<polyline class="st0" points="95.6,74.2 95.6,78.9 108.3,78.9 108.3,74.2 	"/>
	<polyline class="st0" points="107.1,62.6 107.1,45.9 96.9,45.9 96.9,62.6 	"/>
	<line class="st0" x1="68.6" y1="20.2" x2="61.2" y2="27.6"/>
	<line class="st0" x1="68.6" y1="29.1" x2="61.2" y2="36.5"/>
	<line class="st0" x1="68.6" y1="38" x2="61.2" y2="45.4"/>
	<line class="st0" x1="68.6" y1="46.9" x2="61.2" y2="54.3"/>
	<line class="st0" x1="68.2" y1="74" x2="61.2" y2="81"/>
	<line class="st0" x1="68.6" y1="82.5" x2="61.2" y2="89.9"/>
	<line class="st0" x1="68.6" y1="91.4" x2="61.2" y2="98.8"/>
	<line class="st0" x1="68.6" y1="100.3" x2="61.2" y2="107.6"/>
	<line class="st0" x1="68.6" y1="109.2" x2="61.2" y2="116.5"/>
	<g id="Group_399">
		<g id="Group_390" transform="translate(26.5 -4.5)">
			<path id="Line_411" class="st1" d="M-20.2,67.1H96.1"/>
			<path id="Line_412" class="st1" d="M-20.2,78.5H96.1"/>
		</g>
	</g>
</g>
<rect x="0.6" y="0.6" class="st2" width="127.8" height="127.8"/>
</svg>
