<?xml version="1.0" encoding="utf-8"?>
<!-- Generator: Adobe Illustrator 23.0.2, SVG Export Plug-In . SVG Version: 6.00 Build 0)  -->
<svg version="1.1" xmlns="http://www.w3.org/2000/svg" xmlns:xlink="http://www.w3.org/1999/xlink" x="0px" y="0px"
	 width="128.943px" height="128.943px" viewBox="0 0 128.943 128.943" enable-background="new 0 0 128.943 128.943"
	 xml:space="preserve">
<g id="Layer_1">
	
		<path id="Path_310_13_" fill="none" stroke="#020202" stroke-width="4" stroke-linecap="round" stroke-linejoin="round" stroke-miterlimit="10" d="
		M28.654,9.505h71.634l9.218,10.638v88.656l-9.218,10.639H28.654l-9.218-10.639V20.143L28.654,9.505z"/>
	
		<path id="Rectangle_595_14_" fill="none" stroke="#020202" stroke-width="4" stroke-linecap="round" stroke-linejoin="round" stroke-miterlimit="10" d="
		M80.949,20.945h9.779c2.489,0,4.507,2.018,4.507,4.508v1.269c0,2.489-2.018,4.508-4.507,4.508h-9.779
		c-2.49,0-4.507-2.018-4.507-4.508v-1.269C76.441,22.964,78.459,20.945,80.949,20.945z"/>
	<g id="loader-2_2_">
		
			<path id="Path_220_2_" fill="none" stroke="#F9B621" stroke-width="4" stroke-linecap="round" stroke-linejoin="round" stroke-miterlimit="10" d="
			M68.527,47.668c-14.763-1.981-28.336,8.381-30.317,23.144C37.3,77.591,39,84.462,42.966,90.035"/>
		
			<path id="Path_221_2_" fill="none" stroke="#F9B621" stroke-width="4" stroke-linecap="round" stroke-linejoin="round" stroke-miterlimit="10" d="
			M55.421,99.635c13.938,5.257,29.498-1.78,34.755-15.718c3.309-8.773,1.824-18.636-3.921-26.045"/>
		
			<path id="Path_222_2_" fill="none" stroke="#F9B621" stroke-width="4" stroke-linecap="round" stroke-linejoin="round" stroke-miterlimit="10" d="
			M62.014,40.292l7.144,7.144l-7.144,7.145"/>
		
			<path id="Path_223_2_" fill="none" stroke="#F9B621" stroke-width="4" stroke-linecap="round" stroke-linejoin="round" stroke-miterlimit="10" d="
			M61.154,106.871l-7.144-7.144l7.144-7.144"/>
		
			<path id="Ellipse_117_2_" fill="none" stroke="#E1251B" stroke-width="4" stroke-linecap="round" stroke-linejoin="round" stroke-miterlimit="10" d="
			M64.942,70.28c2.274,0,4.118,1.844,4.118,4.118c0,2.273-1.844,4.117-4.118,4.117c-2.273,0-4.117-1.844-4.117-4.117
			C60.825,72.124,62.669,70.28,64.942,70.28z"/>
	</g>
</g>
<g id="Capa_2">
</g>
</svg>
