<?xml version="1.0" encoding="utf-8"?>
<!-- Generator: Adobe Illustrator 23.0.2, SVG Export Plug-In . SVG Version: 6.00 Build 0)  -->
<svg version="1.1" id="Layer_1" xmlns="http://www.w3.org/2000/svg" xmlns:xlink="http://www.w3.org/1999/xlink" x="0px" y="0px"
	 viewBox="0 0 128.9 128.9" style="enable-background:new 0 0 128.9 128.9;" xml:space="preserve">
<style type="text/css">
	.st0{fill:none;stroke:#020202;stroke-width:3.4732;stroke-linecap:round;stroke-linejoin:round;stroke-miterlimit:10;}
	.st1{fill:none;stroke:#E2231A;stroke-width:3.4973;stroke-linecap:round;stroke-linejoin:round;stroke-miterlimit:10;}
</style>
<g id="Group_392" transform="translate(655.383 122.333)">
	<path id="Path_500" class="st0" d="M-590.9-91.3c-15,0-27.1,12.1-27.1,27.1v0c0,21.7,14.4,22.6,14.4,34.5v11.1c0,6.6,5.4,12,12,12
		c0.2,0,0.4,0,0.7,0c0.2,0,0.4,0,0.7,0c6.6,0,12-5.4,12-12v-11.1c0-11.9,14.4-12.8,14.4-34.5C-563.8-79.2-576-91.3-590.9-91.3
		L-590.9-91.3z"/>
	<path id="Line_394" class="st1" d="M-590.9-116.6v12.4"/>
	<path id="Line_395" class="st1" d="M-617.6-109.4l6.2,10.7"/>
	<path id="Line_396" class="st1" d="M-564.2-109.4l-6.2,10.7"/>
	<path id="Line_397" class="st1" d="M-637.2-89.9l10.7,6.2"/>
	<path id="Line_398" class="st1" d="M-637.2-36.4l10.7-6.2"/>
	<path id="Line_399" class="st1" d="M-544.6-89.9l-10.7,6.2"/>
	<path id="Line_400" class="st1" d="M-544.6-36.4l-10.7-6.2"/>
	<path id="Line_401" class="st1" d="M-644.3-63.1h12.4"/>
	<path id="Line_402" class="st1" d="M-537.5-63.1h-12.4"/>
	<path id="Line_403" class="st0" d="M-602.2-18l22.6-2.4"/>
	<path id="Line_408" class="st1" d="M-587.5-33.7l3.5-30"/>
	<path id="Line_409" class="st1" d="M-594.4-33.7l-3.5-30"/>
	<path id="Line_410" class="st0" d="M-602.2-24.8l22.6-2.4"/>
	<path id="Line_393" class="st0" d="M-603.5-31.4l25.2-2.7"/>
</g>
</svg>
