<?xml version="1.0" encoding="utf-8"?>
<!-- Generator: Adobe Illustrator 23.0.2, SVG Export Plug-In . SVG Version: 6.00 Build 0)  -->
<svg version="1.1" id="Layer_1" xmlns="http://www.w3.org/2000/svg" xmlns:xlink="http://www.w3.org/1999/xlink" x="0px" y="0px"
	 width="21.6px" height="51.9px" viewBox="0 0 21.6 51.9" style="enable-background:new 0 0 21.6 51.9;" xml:space="preserve">
<style type="text/css">
	.st0{fill:none;stroke:#F9B621;stroke-width:3;stroke-linecap:round;stroke-linejoin:round;stroke-miterlimit:10;}
</style>
<g id="Group_459_124_" transform="translate(.483)">
	<g id="Group_460_41_" transform="translate(354.517 276.598)">
		<g id="Group_178_41_" transform="translate(0 22.243)">
			<path id="Path_267_41_" class="st0" d="M-344.4-270l9,6l-8.6,5.8l-9-6L-344.4-270z"/>
		</g>
		<path id="Path_268_41_" class="st0" d="M-344.2-266.9c-2.3,3.8-1.3,5.1,0.8,8c2.1,2.9-1.2,6.2-1.2,6.2"/>
		<path id="Path_269_41_" class="st0" d="M-351.5-262.6c-1.9,2.9-1.1,3.9,0.7,6.1c1.8,2.3-1,4.7-1,4.7"/>
		<path id="Path_270_41_" class="st0" d="M-336.7-262.6c-1.9,2.9-1.1,3.9,0.7,6.1c1.8,2.3-1,4.7-1,4.7"/>
	</g>
</g>
</svg>
