<?xml version="1.0" encoding="utf-8"?>
<!-- Generator: Adobe Illustrator 16.0.0, SVG Export Plug-In . SVG Version: 6.00 Build 0)  -->
<!DOCTYPE svg PUBLIC "-//W3C//DTD SVG 1.1//EN" "http://www.w3.org/Graphics/SVG/1.1/DTD/svg11.dtd">
<svg version="1.1" id="Layer_1" xmlns="http://www.w3.org/2000/svg" xmlns:xlink="http://www.w3.org/1999/xlink" x="0px" y="0px"
	 width="51.885px" height="51.886px" viewBox="0 0 51.885 51.886" enable-background="new 0 0 51.885 51.886" xml:space="preserve">
<g>
	<path fill="none" stroke="#020202" stroke-width="3" stroke-linecap="round" stroke-linejoin="round" stroke-miterlimit="10" d="
		M33.564,36.252c0,1.523-1.234,2.758-2.758,2.758H10.401c-1.523,0-2.758-1.234-2.758-2.758V15.634c0-1.523,1.234-2.758,2.758-2.758
		h20.405c1.523,0,2.758,1.235,2.758,2.758V36.252z"/>
	<g>
		<path fill="none" stroke="#E2231A" stroke-width="3" stroke-linecap="round" stroke-linejoin="round" stroke-miterlimit="10" d="
			M27.41,19.138c1.879,1.879,1.879,4.926,0,6.805c-1.88,1.88-4.927,1.88-6.807,0"/>
		<path fill="none" stroke="#E2231A" stroke-width="3" stroke-linecap="round" stroke-linejoin="round" stroke-miterlimit="10" d="
			M13.799,32.748c-1.88-1.879-1.88-4.926-0.001-6.805c1.88-1.879,4.926-1.879,6.806,0"/>
		<path fill="none" stroke="#E2231A" stroke-width="3" stroke-linecap="round" stroke-linejoin="round" stroke-miterlimit="10" d="
			M27.41,32.748c-1.88,1.879-4.927,1.879-6.807,0c-1.88-1.879-1.88-4.926,0-6.806"/>
		<path fill="none" stroke="#E2231A" stroke-width="3" stroke-linecap="round" stroke-linejoin="round" stroke-miterlimit="10" d="
			M13.799,19.138c1.88-1.88,4.926-1.88,6.805,0c1.88,1.879,1.88,4.926,0,6.805"/>
		<path fill="none" stroke="#E2231A" stroke-width="3" stroke-linecap="round" stroke-linejoin="round" stroke-miterlimit="10" d="
			M30.229,25.942c0,2.658-2.155,4.813-4.813,4.813c-2.657,0-4.813-2.155-4.813-4.813"/>
		<path fill="none" stroke="#E2231A" stroke-width="3" stroke-linecap="round" stroke-linejoin="round" stroke-miterlimit="10" d="
			M10.979,25.943c0-2.658,2.155-4.812,4.813-4.812s4.812,2.154,4.812,4.812"/>
		<path fill="none" stroke="#E2231A" stroke-width="3" stroke-linecap="round" stroke-linejoin="round" stroke-miterlimit="10" d="
			M20.604,35.567c-2.656,0-4.812-2.155-4.812-4.813c0-2.658,2.154-4.813,4.812-4.813"/>
		<path fill="none" stroke="#E2231A" stroke-width="3" stroke-linecap="round" stroke-linejoin="round" stroke-miterlimit="10" d="
			M20.604,16.319c2.658,0,4.813,2.154,4.813,4.811c0,2.659-2.154,4.813-4.813,4.813"/>
	</g>
	<g>
		
			<path id="Path_269_46_" fill="none" stroke="#020202" stroke-width="3" stroke-linecap="round" stroke-linejoin="round" stroke-miterlimit="10" d="
			M44.241,19.702c-1.95-1.276-2.607-0.728-4.116,0.477c-1.51,1.203-3.183-0.703-3.183-0.703"/>
		
			<path id="Path_269_48_" fill="none" stroke="#020202" stroke-width="3" stroke-linecap="round" stroke-linejoin="round" stroke-miterlimit="10" d="
			M44.241,32.039c-1.95-1.276-2.607-0.728-4.116,0.477c-1.51,1.204-3.183-0.703-3.183-0.703"/>
		
			<path id="Path_269_49_" fill="none" stroke="#020202" stroke-width="3" stroke-linecap="round" stroke-linejoin="round" stroke-miterlimit="10" d="
			M44.241,25.871c-1.95-1.276-2.607-0.728-4.116,0.476c-1.51,1.204-3.183-0.702-3.183-0.702"/>
	</g>
</g>
</svg>
