<?xml version="1.0" encoding="utf-8"?>
<!-- Generator: Adobe Illustrator 16.0.0, SVG Export Plug-In . SVG Version: 6.00 Build 0)  -->
<!DOCTYPE svg PUBLIC "-//W3C//DTD SVG 1.1//EN" "http://www.w3.org/Graphics/SVG/1.1/DTD/svg11.dtd">
<svg version="1.1" id="Layer_1" xmlns="http://www.w3.org/2000/svg" xmlns:xlink="http://www.w3.org/1999/xlink" x="0px" y="0px"
	 width="51.885px" height="51.886px" viewBox="0 0 51.885 51.886" enable-background="new 0 0 51.885 51.886" xml:space="preserve">
<g id="Group_459_136_" transform="translate(.483)">
	<g id="Group_456_134_" transform="translate(334.517 283)">
		<g id="Group_438_134_">
			
				<path id="Path_1088_134_" fill="none" stroke="#020202" stroke-width="3" stroke-linecap="round" stroke-linejoin="round" stroke-miterlimit="10" d="
				M-316.846-251.585v-17.465c0-2.343-1.897-4.24-4.239-4.24c-2.341,0-4.239,1.897-4.239,4.24l0,0v17.465
				c-2.833,2.342-3.232,6.537-0.891,9.37c2.341,2.833,6.535,3.231,9.369,0.891c2.833-2.341,3.232-6.535,0.891-9.369
				C-316.224-251.019-316.521-251.316-316.846-251.585z"/>
			<path id="Path_1089_134_" fill="#E2231A" d="M-319.293-248.398c-0.375-0.337-0.583-0.821-0.572-1.324v-12.146
				c0-0.676-0.546-1.223-1.222-1.223c-0.674,0-1.222,0.547-1.222,1.223v12.318c-0.01,0.452-0.224,0.877-0.58,1.156
				c-1.179,0.994-1.329,2.754-0.336,3.932c0.993,1.178,2.753,1.328,3.932,0.336c1.178-0.993,1.328-2.754,0.335-3.932
				c-0.102-0.12-0.215-0.233-0.335-0.336V-248.398z"/>
		</g>
	</g>
	<g id="Group_458_99_" transform="translate(180 261.86)">
		<g id="Group_192_99_" transform="translate(173 16.757)">
			
				<path id="Rectangle_192_99_" fill="none" stroke="#020202" stroke-width="3" stroke-linecap="round" stroke-linejoin="round" stroke-miterlimit="10" d="
				M-323.51-261.56h11.58c1.696,0,3.072,1.376,3.072,3.072v11.578c0,1.697-1.375,3.072-3.072,3.072h-11.58
				c-1.696,0-3.071-1.375-3.071-3.072v-11.578C-326.581-260.184-325.206-261.56-323.51-261.56z"/>
			
				<path id="Path_261_99_" fill="none" stroke="#020202" stroke-width="3" stroke-linecap="round" stroke-linejoin="round" stroke-miterlimit="10" d="
				M-317.651-261.623c-0.846-3.339,0.775-6.813,3.877-8.309"/>
			
				<path id="Path_262_99_" fill="none" stroke="#020202" stroke-width="3" stroke-linecap="round" stroke-linejoin="round" stroke-miterlimit="10" d="
				M-313.773-243.395l-0.186,3.952l-3.762,3.192l-3.766-3.192l-0.186-3.952"/>
		</g>
		<g id="Group_200_99_">
			
				<path id="Path_285_95_" fill="none" stroke="#020202" stroke-width="3" stroke-linecap="round" stroke-linejoin="round" stroke-miterlimit="10" d="
				M-144.878-238.982v6.136"/>
		</g>
	</g>
</g>
</svg>
