<?xml version="1.0" encoding="utf-8"?>
<!-- Generator: Adobe Illustrator 16.0.0, SVG Export Plug-In . SVG Version: 6.00 Build 0)  -->
<!DOCTYPE svg PUBLIC "-//W3C//DTD SVG 1.1//EN" "http://www.w3.org/Graphics/SVG/1.1/DTD/svg11.dtd">
<svg version="1.1" id="Layer_1" xmlns="http://www.w3.org/2000/svg" xmlns:xlink="http://www.w3.org/1999/xlink" x="0px" y="0px"
	 width="128.941px" height="128.942px" viewBox="0 0 128.941 128.942" enable-background="new 0 0 128.941 128.942"
	 xml:space="preserve">
<line fill="none" stroke="#FFFFFF" stroke-width="2" stroke-miterlimit="10" x1="-1384.192" y1="64.471" x2="479.809" y2="331.89"/>
<g>
	<g id="Group_261_1_" transform="translate(5.007 96.512)">
		<g id="Group_255_10_" transform="translate(11530 448)">
			
				<circle id="Ellipse_171_5_" fill="none" stroke="#020202" stroke-width="3.5514" stroke-linecap="round" stroke-linejoin="round" stroke-miterlimit="10" cx="-11423.325" cy="-484.636" r="5.647"/>
			
				<path id="Path_318_1_" fill="none" stroke="#020202" stroke-width="3.5514" stroke-linecap="round" stroke-linejoin="round" stroke-miterlimit="10" d="
				M-11471.548-500.574c-6.077-38.931,48.899-43.164,48.899-0.055"/>
		</g>
		
			<path id="Line_428_5_" fill="none" stroke="#E2231A" stroke-width="3.5514" stroke-linecap="round" stroke-linejoin="round" stroke-miterlimit="10" d="
			M9.462,19.5h96.744"/>
	</g>
	<g id="Group_255_1_">
		<g id="Group_254_1_" transform="translate(5.765 25.517)">
			<g id="Group_331_5_">
				
					<path id="Line_365_2_" fill="none" stroke="#020202" stroke-width="4.1633" stroke-linecap="round" stroke-linejoin="round" stroke-miterlimit="10" d="
					M63.229,52.808V33.003"/>
				
					<path id="Line_366_3_" fill="none" stroke="#020202" stroke-width="4.1633" stroke-linecap="round" stroke-linejoin="round" stroke-miterlimit="10" d="
					M51.22,52.808V33.003"/>
			</g>
		</g>
		
			<path id="Rectangle_261_1_" fill="none" stroke="#020202" stroke-width="4.1633" stroke-linecap="round" stroke-linejoin="round" stroke-miterlimit="10" d="
			M48.349,44.101h28.838c5.901,0,10.684,4.784,10.684,10.684v28.837c0,5.9-4.782,10.683-10.684,10.683H48.349
			c-5.899,0-10.684-4.782-10.684-10.683V54.785C37.665,48.884,42.449,44.101,48.349,44.101z"/>
		
			<path id="Path_319_1_" fill="none" stroke="#020202" stroke-width="4.1633" stroke-linecap="round" stroke-linejoin="round" stroke-miterlimit="10" d="
			M70.489,94.958l-0.33,6.945l-6.611,5.615l-6.604-5.615l-0.328-6.945"/>
	</g>
</g>
</svg>
