<?xml version="1.0" encoding="utf-8"?>
<!-- Generator: Adobe Illustrator 16.0.0, SVG Export Plug-In . SVG Version: 6.00 Build 0)  -->
<!DOCTYPE svg PUBLIC "-//W3C//DTD SVG 1.1//EN" "http://www.w3.org/Graphics/SVG/1.1/DTD/svg11.dtd">
<svg version="1.1" id="Layer_1" xmlns="http://www.w3.org/2000/svg" xmlns:xlink="http://www.w3.org/1999/xlink" x="0px" y="0px"
	 width="84.346px" height="84.345px" viewBox="0 0 84.346 84.345" enable-background="new 0 0 84.346 84.345" xml:space="preserve">
<g id="callibration-icon" transform="translate(-222.033 -57.929)">
	
		<path id="Path_296" fill="none" stroke="#020202" stroke-width="3" stroke-linecap="round" stroke-linejoin="round" stroke-miterlimit="10" d="
		M245.242,71.86h36.701l4.723,5.447v45.422l-4.723,5.447h-36.701l-4.723-5.447V77.307L245.242,71.86z"/>
	
		<path id="Path_297" fill="none" stroke="#E2231A" stroke-width="3" stroke-linecap="round" stroke-linejoin="round" stroke-miterlimit="10" d="
		M295.469,95.391l8.574,8.574l-8.574,8.573"/>
	
		<path id="Line_275" fill="none" stroke="#E2231A" stroke-width="3" stroke-linecap="round" stroke-linejoin="round" stroke-miterlimit="10" d="
		M302.196,103.965h-34.745"/>
	
		<circle id="Ellipse_155" fill="none" stroke="#E2231A" stroke-width="3" stroke-linecap="round" stroke-linejoin="round" stroke-miterlimit="10" cx="264.369" cy="103.968" r="2.74"/>
	
		<path id="Path_298" fill="none" stroke="#E2231A" stroke-width="3" stroke-linecap="round" stroke-linejoin="round" stroke-miterlimit="10" d="
		M232.943,112.538l-8.574-8.573l8.574-8.573"/>
	
		<path id="Line_276" fill="none" stroke="#E2231A" stroke-width="3" stroke-linecap="round" stroke-linejoin="round" stroke-miterlimit="10" d="
		M226.215,103.965h34.745"/>
	
		<path id="Line_277_1_" fill="none" stroke="#E2231A" stroke-width="3" stroke-linecap="round" stroke-linejoin="round" stroke-miterlimit="10" d="
		M264.372,100.322V88.016"/>
	
		<path id="Path_496" fill="none" stroke="#E2231A" stroke-width="3" stroke-linecap="round" stroke-linejoin="round" stroke-miterlimit="10" d="
		M256.101,95.075l8.32-8.322l8.321,8.322"/>
	
		<path id="Line_373" fill="none" stroke="#E2231A" stroke-width="3" stroke-linecap="round" stroke-linejoin="round" stroke-miterlimit="10" d="
		M264.372,119.708v-12.305"/>
	
		<path id="Path_497" fill="none" stroke="#E2231A" stroke-width="3" stroke-linecap="round" stroke-linejoin="round" stroke-miterlimit="10" d="
		M272.744,111.679l-8.321,8.32l-8.321-8.32"/>
	
		<path id="Rectangle_595_3_" fill="none" stroke="#020202" stroke-width="3" stroke-linecap="round" stroke-linejoin="round" stroke-miterlimit="10" d="
		M271.98,77.755h5.037c1.283,0,2.322,1.039,2.322,2.322v0.653c0,1.282-1.039,2.323-2.322,2.323h-5.037
		c-1.283,0-2.323-1.041-2.323-2.323v-0.653C269.657,78.794,270.697,77.755,271.98,77.755z"/>
</g>
</svg>
