<?xml version="1.0" encoding="utf-8"?>
<!-- Generator: Adobe Illustrator 22.0.0, SVG Export Plug-In . SVG Version: 6.00 Build 0)  -->
<svg version="1.1" id="Layer_1" xmlns="http://www.w3.org/2000/svg" xmlns:xlink="http://www.w3.org/1999/xlink" x="0px" y="0px"
	 width="84.345px" height="84.345px" viewBox="0 0 84.345 84.345" enable-background="new 0 0 84.345 84.345" xml:space="preserve">
<g>
	
		<path id="Path_310_8_" fill="none" stroke="#020202" stroke-width="3" stroke-linecap="round" stroke-linejoin="round" stroke-miterlimit="10" d="
		M19.102,56.198V19.465l4.722-5.45H60.52l4.722,5.45v45.416l-4.722,5.45H26.733"/>
	
		<path id="Rectangle_595_8_" fill="none" stroke="#020202" stroke-width="3" stroke-linecap="round" stroke-linejoin="round" stroke-miterlimit="10" d="
		M50.614,19.876h5.009c1.275,0,2.309,1.034,2.309,2.309v0.65c0,1.276-1.034,2.309-2.309,2.309h-5.009
		c-1.275,0-2.309-1.034-2.309-2.309v-0.65C48.304,20.909,49.338,19.876,50.614,19.876z"/>
	<g>
		<path fill="none" stroke="#020202" stroke-width="3" stroke-linecap="round" stroke-linejoin="round" stroke-miterlimit="10" d="
			M46.71,50.609c0.295,0.217,0.59,0.436,0.888,0.651c0.464,0.34,0.65,0.328,1.046-0.057c1.023-0.989,2.935-2.462,3.07-2.971
			c0.135-0.508-0.088,0.334,0.075-0.275c0.162-0.609-0.859-1.305-1.371-1.887c-0.388-0.478-0.501-1.125-0.297-1.706
			c0.176-0.738,0.708-1.338,1.419-1.601c0.666-0.167,1.297-0.453,1.864-0.842c0.052-0.197,0.009-0.033,0.074-0.274
			c0.065-0.242-0.77-2.711-1.155-4.069c-0.165-0.579-0.319-0.684-0.943-0.612c-0.786,0.09-1.571,0.192-2.359,0.256
			c-0.181-0.001-0.354-0.065-0.491-0.183c-0.385-0.344-0.749-0.707-1.092-1.092c-0.137-0.157-0.213-0.357-0.215-0.565
			c0.057-0.751,0.161-1.498,0.257-2.248c0.071-0.528-0.054-0.742-0.563-0.882c-1.301-0.355-2.604-0.704-3.912-1.048
			c-0.502-0.133-0.721-0.015-0.908,0.436c-0.291,0.701-0.596,1.39-0.879,2.09c-0.089,0.257-0.321,0.439-0.593,0.461
			c-0.458,0.074-0.897,0.249-1.358,0.335c-0.205,0.04-0.418,0.007-0.601-0.093c-0.64-0.434-1.255-0.91-1.878-1.371
			c-0.509-0.372-0.692-0.362-1.127,0.058c-1.013,0.984-2.979,2.742-3.033,2.947c-0.054,0.204,0.025-0.097-0.075,0.275
			c-0.078,0.295,0.477,0.913,0.959,1.436"/>
		<path fill="none" stroke="#020202" stroke-width="3" stroke-linecap="round" stroke-linejoin="round" stroke-miterlimit="10" d="
			M42.553,39.016c0.199,0.023,0.399,0.066,0.596,0.131c1.212,0.397,2.007,1.478,2.099,2.674"/>
		<path fill="none" stroke="#020202" stroke-width="3" stroke-linecap="round" stroke-linejoin="round" stroke-miterlimit="10" d="
			M41.963,45.106c-0.242-0.021-0.485-0.068-0.725-0.151c-1.166-0.386-1.94-1.407-2.073-2.552"/>
	</g>
	<path fill="none" stroke="#E1251B" stroke-width="3" stroke-linecap="round" stroke-linejoin="round" stroke-miterlimit="10" d="
		M36.799,42.093l4.431-4.431c-2.405-0.575-5.041,0.067-6.918,1.943c-1.877,1.877-2.519,4.513-1.943,6.918L20.383,58.509
		c-2.405-0.575-5.041,0.067-6.918,1.944c-1.877,1.877-2.519,4.513-1.943,6.918l4.431-4.431c1.493-1.493,6.92,3.935,5.427,5.427
		l-4.431,4.431c2.405,0.575,5.041-0.067,6.918-1.943c1.877-1.877,2.519-4.513,1.943-6.918l11.986-11.986
		c2.405,0.575,5.041-0.067,6.918-1.943s2.519-4.513,1.943-6.918l-4.431,4.431C40.734,49.013,35.307,43.585,36.799,42.093z"/>
</g>
</svg>
