<?xml version="1.0" encoding="utf-8"?>
<!-- Generator: Adobe Illustrator 16.0.0, SVG Export Plug-In . SVG Version: 6.00 Build 0)  -->
<!DOCTYPE svg PUBLIC "-//W3C//DTD SVG 1.1//EN" "http://www.w3.org/Graphics/SVG/1.1/DTD/svg11.dtd">
<svg version="1.1" id="Layer_1" xmlns="http://www.w3.org/2000/svg" xmlns:xlink="http://www.w3.org/1999/xlink" x="0px" y="0px"
	 width="210.652px" height="129.268px" viewBox="0 0 210.652 129.268" enable-background="new 0 0 210.652 129.268"
	 xml:space="preserve">
<g id="Group_311" transform="rotate(90 414.888 225.655)">
	<g id="Group_309" transform="translate(-10610 -1260)">
		
			<path id="Path_409" fill="none" stroke="#E2231A" stroke-width="4" stroke-linecap="round" stroke-linejoin="round" stroke-miterlimit="10" d="
			M10801.1,1822.582l8.495-7.868l8.64,7.995"/>
		
			<path id="Line_358" fill="none" stroke="#E2231A" stroke-width="4" stroke-linecap="round" stroke-linejoin="round" stroke-miterlimit="10" d="
			M10809.56,1818.215v38.661"/>
		
			<path id="Path_410" fill="none" stroke="#E2231A" stroke-width="4" stroke-linecap="round" stroke-linejoin="round" stroke-miterlimit="10" d="
			M10810.377,1789.39c4.416-32.161,31.905-56.12,64.373-56.116"/>
		
			<path id="Path_411" fill="none" stroke="#E2231A" stroke-width="4" stroke-linecap="round" stroke-linejoin="round" stroke-miterlimit="10" d="
			M10866.743,1725.078l8.757,7.574l-7.005,9.457"/>
		
			<ellipse id="Ellipse_189" transform="matrix(2.578893e-006 1 -1 2.578893e-006 12670.5742 -8948.5195)" fill="none" stroke="#E2231A" stroke-width="4" stroke-linecap="round" stroke-linejoin="round" stroke-miterlimit="10" cx="10809.559" cy="1861.044" rx="4.311" ry="4.311"/>
		
			<ellipse id="Ellipse_190" transform="matrix(2.578893e-006 1 -1 2.578893e-006 12604.252 -9014.8428)" fill="none" stroke="#E2231A" stroke-width="4" stroke-linecap="round" stroke-linejoin="round" stroke-miterlimit="10" cx="10809.559" cy="1794.721" rx="4.311" ry="4.311"/>
	</g>
	<g id="Group_310" transform="translate(-10490 -1260)">
		
			<path id="Line_353_1_" fill="none" stroke="#020202" stroke-width="4" stroke-linecap="round" stroke-linejoin="round" stroke-miterlimit="10" d="
			M10710.948,1854.399v-55.465"/>
		<g id="Group_303_1_" transform="translate(10875.5 1448.631)">
			
				<ellipse id="Ellipse_173_2_" transform="matrix(2.578893e-006 1 -1 2.578893e-006 230.9748 470.1669)" fill="none" stroke="#020202" stroke-width="4" stroke-linecap="round" stroke-linejoin="round" stroke-miterlimit="10" cx="-119.597" cy="350.571" rx="44.954" ry="44.954"/>
			
				<ellipse id="Ellipse_176_2_" transform="matrix(2.578893e-006 1 -1 2.578893e-006 230.9743 470.1664)" fill="none" stroke="#020202" stroke-width="4" stroke-linecap="round" stroke-linejoin="round" stroke-miterlimit="10" cx="-119.597" cy="350.571" rx="12.915" ry="12.915"/>
			<g id="Group_264_2_" transform="translate(14.551 27.015)">
				
					<path id="Path_323_2_" fill="none" stroke="#020202" stroke-width="4" stroke-linecap="round" stroke-linejoin="round" stroke-miterlimit="10" d="
					M-145.37,301.724c0.788,1.316,2.396,1.896,3.843,1.383c4.853-1.845,10.214-1.845,15.067,0c1.447,0.513,3.055-0.066,3.843-1.383
					l3.537-6.305c0.819-1.461,0.298-3.31-1.162-4.128c-0.121-0.068-0.244-0.126-0.373-0.177c-8.577-3.485-18.176-3.485-26.753,0
					c-1.602,0.731-2.307,2.622-1.576,4.225c0.012,0.026,0.025,0.053,0.039,0.08L-145.37,301.724z"/>
			</g>
			<g id="Group_265_2_" transform="translate(14.402 64.263)">
				
					<path id="Path_324_2_" fill="none" stroke="#020202" stroke-width="4" stroke-linecap="round" stroke-linejoin="round" stroke-miterlimit="10" d="
					M-122.621,308.294c-0.788-1.317-2.396-1.896-3.843-1.385c-4.853,1.846-10.215,1.846-15.067,0
					c-1.447-0.512-3.056,0.067-3.843,1.385l-3.537,6.304c-0.818,1.461-0.298,3.31,1.164,4.129c0.12,0.066,0.245,0.126,0.374,0.177
					c8.577,3.484,18.175,3.484,26.753,0c1.602-0.731,2.307-2.623,1.576-4.225c-0.012-0.027-0.026-0.054-0.039-0.081
					L-122.621,308.294z"/>
			</g>
			<g id="Group_266_2_" transform="translate(1.146 40.271)">
				
					<path id="Path_325_2_" fill="none" stroke="#020202" stroke-width="4" stroke-linecap="round" stroke-linejoin="round" stroke-miterlimit="10" d="
					M-142.574,321.676c1.317-0.787,1.896-2.396,1.384-3.843c-1.845-4.853-1.845-10.214,0-15.067
					c0.512-1.447-0.067-3.054-1.384-3.843l-6.305-3.537c-1.461-0.819-3.309-0.298-4.128,1.163c-0.067,0.121-0.126,0.245-0.177,0.373
					c-3.484,8.577-3.484,18.176,0,26.753c0.731,1.601,2.622,2.308,4.225,1.575c0.026-0.013,0.054-0.025,0.08-0.039L-142.574,321.676
					z"/>
			</g>
			<g id="Group_267_2_" transform="translate(38.394 40.42)">
				
					<path id="Path_326_2_" fill="none" stroke="#020202" stroke-width="4" stroke-linecap="round" stroke-linejoin="round" stroke-miterlimit="10" d="
					M-136.003,298.927c-1.317,0.789-1.896,2.396-1.384,3.844c1.845,4.853,1.845,10.215,0,15.068
					c-0.513,1.445,0.066,3.053,1.384,3.843l6.304,3.536c1.461,0.818,3.31,0.297,4.129-1.164c0.066-0.121,0.125-0.246,0.176-0.374
					c3.484-8.576,3.484-18.175,0-26.752c-0.731-1.602-2.623-2.307-4.224-1.576c-0.026,0.013-0.054,0.025-0.081,0.039
					L-136.003,298.927z"/>
			</g>
		</g>
		
			<ellipse id="Ellipse_194" transform="matrix(2.578893e-006 1 -1 2.578893e-006 12571.4336 -8849.374)" fill="none" stroke="#020202" stroke-width="4" stroke-linecap="round" stroke-linejoin="round" stroke-miterlimit="10" cx="10710.415" cy="1861.046" rx="4.311" ry="4.311"/>
	</g>
</g>
</svg>
