<?xml version="1.0" encoding="utf-8"?>
<!-- Generator: Adobe Illustrator 16.0.0, SVG Export Plug-In . SVG Version: 6.00 Build 0)  -->
<!DOCTYPE svg PUBLIC "-//W3C//DTD SVG 1.1//EN" "http://www.w3.org/Graphics/SVG/1.1/DTD/svg11.dtd">
<svg version="1.1" id="Layer_1" xmlns="http://www.w3.org/2000/svg" xmlns:xlink="http://www.w3.org/1999/xlink" x="0px" y="0px"
	 width="84.345px" height="84.345px" viewBox="0 0 84.345 84.345" enable-background="new 0 0 84.345 84.345" xml:space="preserve">
<g id="Group_335" transform="translate(-14475.5 -2132)">
	<g id="wifi-big-btn" transform="translate(14483.467 2265.638)">
		
			<path id="Path_227" fill="none" stroke="#020202" stroke-width="3" stroke-linecap="round" stroke-linejoin="round" stroke-miterlimit="10" d="
			M36.366-109.14c9.713,9.334,10.021,24.777,0.688,34.492c-0.225,0.232-0.455,0.462-0.688,0.688"/>
		
			<path id="Path_228" fill="none" stroke="#020202" stroke-width="3" stroke-linecap="round" stroke-linejoin="round" stroke-miterlimit="10" d="
			M43.229-116.281c13.658,13.122,14.094,34.833,0.971,48.493c-0.316,0.33-0.641,0.653-0.971,0.972"/>
		
			<path id="Path_229" fill="none" stroke="#020202" stroke-width="3" stroke-linecap="round" stroke-linejoin="round" stroke-miterlimit="10" d="
			M49.999-123.323c17.547,16.865,18.102,44.763,1.234,62.311c-0.402,0.422-0.814,0.832-1.234,1.236"/>
	</g>
	
		<path id="Union_7" fill="none" stroke="#E2231A" stroke-width="3" stroke-linecap="round" stroke-linejoin="round" stroke-miterlimit="10" d="
		M14499.913,2181.693h-11.564v-15.146h11.436l9.592-9.592v34.202L14499.913,2181.693z"/>
</g>
</svg>
