<?xml version="1.0" encoding="utf-8"?>
<!-- Generator: Adobe Illustrator 16.0.0, SVG Export Plug-In . SVG Version: 6.00 Build 0)  -->
<!DOCTYPE svg PUBLIC "-//W3C//DTD SVG 1.1//EN" "http://www.w3.org/Graphics/SVG/1.1/DTD/svg11.dtd">
<svg version="1.1" id="Layer_1" xmlns="http://www.w3.org/2000/svg" xmlns:xlink="http://www.w3.org/1999/xlink" x="0px" y="0px"
	 width="51.885px" height="51.885px" viewBox="0 0 51.885 51.885" enable-background="new 0 0 51.885 51.885" xml:space="preserve">
<g id="Group_459_123_" transform="translate(.483)">
	<g id="Group_456_123_" transform="translate(334.517 283)">
		<g id="Group_438_123_">
			
				<path id="Path_1088_123_" fill="none" stroke="#696A69" stroke-width="3" stroke-linecap="round" stroke-linejoin="round" stroke-miterlimit="10" d="
				M-316.846-251.584v-17.467c0-2.342-1.897-4.239-4.239-4.239c-2.341,0-4.239,1.897-4.239,4.239l0,0v17.467
				c-2.833,2.34-3.232,6.536-0.891,9.369c2.341,2.833,6.535,3.231,9.369,0.89c2.833-2.34,3.232-6.535,0.891-9.369
				C-316.224-251.019-316.521-251.317-316.846-251.584z"/>
			<path id="Path_1089_123_" fill="#696A69" d="M-319.293-248.398c-0.375-0.338-0.583-0.822-0.572-1.325v-12.146
				c0-0.675-0.546-1.222-1.222-1.222c-0.674,0-1.222,0.547-1.222,1.222v12.318c-0.01,0.454-0.224,0.878-0.58,1.157
				c-1.18,0.994-1.329,2.754-0.336,3.932c0.993,1.178,2.753,1.327,3.932,0.334c1.178-0.992,1.328-2.753,0.335-3.931
				c-0.102-0.12-0.215-0.233-0.335-0.335V-248.398z"/>
		</g>
	</g>
	<g id="Group_458_82_" transform="translate(180 261.86)">
		<g id="Group_192_82_" transform="translate(173 16.757)">
			
				<path id="Rectangle_192_82_" fill="none" stroke="#F9B621" stroke-width="3" stroke-linecap="round" stroke-linejoin="round" stroke-miterlimit="10" d="
				M-323.51-261.559h11.58c1.696,0,3.072,1.375,3.072,3.07v11.58c0,1.696-1.375,3.072-3.072,3.072h-11.58
				c-1.696,0-3.071-1.376-3.071-3.072v-11.58C-326.581-260.184-325.206-261.559-323.51-261.559z"/>
			
				<path id="Path_261_82_" fill="none" stroke="#F9B621" stroke-width="3" stroke-linecap="round" stroke-linejoin="round" stroke-miterlimit="10" d="
				M-317.651-261.623c-0.846-3.339,0.775-6.813,3.877-8.31"/>
			
				<path id="Path_262_82_" fill="none" stroke="#F9B621" stroke-width="3" stroke-linecap="round" stroke-linejoin="round" stroke-miterlimit="10" d="
				M-313.773-243.396l-0.186,3.952l-3.762,3.193l-3.766-3.193l-0.186-3.952"/>
		</g>
		<g id="Group_200_82_">
			
				<path id="Path_285_82_" fill="none" stroke="#F9B621" stroke-width="3" stroke-linecap="round" stroke-linejoin="round" stroke-miterlimit="10" d="
				M-144.878-238.982v6.136"/>
		</g>
	</g>
</g>
</svg>
