<?xml version="1.0" encoding="utf-8"?>
<!-- Generator: Adobe Illustrator 16.0.0, SVG Export Plug-In . SVG Version: 6.00 Build 0)  -->
<!DOCTYPE svg PUBLIC "-//W3C//DTD SVG 1.1//EN" "http://www.w3.org/Graphics/SVG/1.1/DTD/svg11.dtd">
<svg version="1.1" id="Layer_1" xmlns="http://www.w3.org/2000/svg" xmlns:xlink="http://www.w3.org/1999/xlink" x="0px" y="0px"
	 width="210.652px" height="129.268px" viewBox="0 0 210.652 129.268" enable-background="new 0 0 210.652 129.268"
	 xml:space="preserve">
<g>
	<g>
		<g id="Group_261_15_" transform="translate(5.007 96.512)">
			<g id="Group_255_26_" transform="translate(11530 448)">
				
					<path id="Path_318_13_" fill="none" stroke="#E2231A" stroke-width="4" stroke-linecap="round" stroke-linejoin="round" stroke-miterlimit="10" d="
					M-11472.947-506.064c-6.845-43.849,55.076-48.616,55.076-0.062v28.519"/>
			</g>
			
				<path id="Line_428_8_" fill="none" stroke="#E2231A" stroke-width="4" stroke-linecap="round" stroke-linejoin="round" stroke-miterlimit="10" d="
				M1.874,23.114h196.891"/>
		</g>
		<g id="Group_255_25_">
			<g id="Group_254_18_" transform="translate(5.765 25.517)">
				<g id="Group_331_16_">
					
						<path id="Line_365_14_" fill="none" stroke="#020202" stroke-width="4.6892" stroke-linecap="round" stroke-linejoin="round" stroke-miterlimit="10" d="
						M56.398,51.662V29.355"/>
				</g>
			</g>
			
				<path id="Rectangle_261_16_" fill="none" stroke="#020202" stroke-width="4.6892" stroke-linecap="round" stroke-linejoin="round" stroke-miterlimit="10" d="
				M45.041,38.631h32.48c6.646,0,12.033,5.388,12.033,12.034v32.48c0,6.645-5.388,12.033-12.033,12.033h-32.48
				c-6.645,0-12.033-5.388-12.033-12.033v-32.48C33.008,44.019,38.397,38.631,45.041,38.631z"/>
			
				<path id="Path_319_16_" fill="none" stroke="#020202" stroke-width="4.6892" stroke-linecap="round" stroke-linejoin="round" stroke-miterlimit="10" d="
				M69.976,95.915l-0.37,7.821l-7.447,6.324l-7.438-6.324l-0.369-7.821"/>
		</g>
	</g>
	<g>
		<text transform="matrix(1 0 0 1 130.4728 74.834)" font-family="'Graphik-Semibold'" font-size="21.4257">ABS</text>
	</g>
	<g id="Group_303_9_" transform="translate(10875.5 1448.631)">
		
			<ellipse id="Ellipse_173_10_" fill="none" stroke="#020202" stroke-width="4.6892" stroke-linecap="round" stroke-linejoin="round" stroke-miterlimit="10" cx="-10723.398" cy="-1381.726" rx="35.043" ry="35.043"/>
		<g id="Group_266_10_" transform="translate(1.146 40.271)">
			
				<path id="Path_325_10_" fill="none" stroke="#020202" stroke-width="4.6892" stroke-linecap="round" stroke-linejoin="round" stroke-miterlimit="10" d="
				M-10733.414-1439.015c0.615,1.026,1.867,1.478,2.996,1.079c3.783-1.438,7.962-1.438,11.745,0
				c1.128,0.399,2.381-0.053,2.996-1.079l2.757-4.915c0.639-1.139,0.232-2.58-0.906-3.217c-0.095-0.053-0.191-0.099-0.291-0.139
				c-6.687-2.716-14.168-2.716-20.854,0c-1.249,0.57-1.799,2.044-1.229,3.293c0.01,0.021,0.02,0.042,0.029,0.063
				L-10733.414-1439.015z"/>
		</g>
		<g id="Group_267_10_" transform="translate(38.394 40.42)">
			
				<path id="Path_326_10_" fill="none" stroke="#020202" stroke-width="4.6892" stroke-linecap="round" stroke-linejoin="round" stroke-miterlimit="10" d="
				M-10753.044-1405.007c-0.614-1.026-1.868-1.478-2.996-1.079c-3.783,1.438-7.962,1.438-11.745,0
				c-1.128-0.399-2.381,0.053-2.995,1.079l-2.757,4.914c-0.638,1.139-0.231,2.581,0.907,3.218c0.094,0.052,0.191,0.098,0.291,0.138
				c6.686,2.716,14.168,2.716,20.853,0c1.249-0.57,1.799-2.044,1.229-3.293c-0.009-0.021-0.02-0.042-0.029-0.063
				L-10753.044-1405.007z"/>
		</g>
	</g>
</g>
</svg>
