<?xml version="1.0" encoding="utf-8"?>
<!-- Generator: Adobe Illustrator 16.0.0, SVG Export Plug-In . SVG Version: 6.00 Build 0)  -->
<!DOCTYPE svg PUBLIC "-//W3C//DTD SVG 1.1//EN" "http://www.w3.org/Graphics/SVG/1.1/DTD/svg11.dtd">
<svg version="1.1" id="Layer_1" xmlns="http://www.w3.org/2000/svg" xmlns:xlink="http://www.w3.org/1999/xlink" x="0px" y="0px"
	 width="128.941px" height="128.943px" viewBox="0 0 128.941 128.943" enable-background="new 0 0 128.941 128.943"
	 xml:space="preserve">
<rect x="0.581" y="0.581" fill="none" stroke="#E5007E" stroke-width="1.1623" stroke-miterlimit="10" width="127.779" height="127.781"/>
<g id="Group_397" transform="translate(-17316.002 -1504)">
	<g id="Group_372" transform="translate(17313.41 1570)">
		
			<path id="Path_502_1_" fill="none" stroke="#E2231A" stroke-width="3" stroke-linecap="round" stroke-linejoin="round" stroke-miterlimit="10" d="
			M14.704-19.888l15.31-14.178l15.558,14.407"/>
		
			<path id="Line_416_1_" fill="none" stroke="#E2231A" stroke-width="3" stroke-linecap="round" stroke-linejoin="round" stroke-miterlimit="10" d="
			M30.013-29.578v60.585"/>
	</g>
	<g id="Group_373" transform="translate(17433.559 1791.714)">
		
			<path id="Line_353_2_" fill="none" stroke="#020202" stroke-width="3" stroke-linecap="round" stroke-linejoin="round" stroke-miterlimit="10" d="
			M-62.723-192.201v-31.697"/>
		<g id="Group_303_2_">
			
				<ellipse id="Ellipse_173_5_" fill="none" stroke="#020202" stroke-width="3" stroke-linecap="round" stroke-linejoin="round" stroke-miterlimit="10" cx="-31.726" cy="-223.714" rx="30.998" ry="30.998"/>
			
				<ellipse id="Ellipse_176_5_" fill="none" stroke="#020202" stroke-width="3" stroke-linecap="round" stroke-linejoin="round" stroke-miterlimit="10" cx="-31.726" cy="-223.714" rx="8.905" ry="8.905"/>
			<g id="Group_264_5_" transform="translate(13.767 4.563)">
				
					<path id="Path_323_5_" fill="none" stroke="#020202" stroke-width="3" stroke-linecap="round" stroke-linejoin="round" stroke-miterlimit="10" d="
					M-53.231-243.331c0.544,0.908,1.652,1.308,2.65,0.954c3.347-1.271,7.043-1.271,10.39,0c0.998,0.354,2.106-0.046,2.65-0.954
					l2.438-4.348c0.566-1.008,0.208-2.285-0.8-2.852c-0.084-0.047-0.171-0.088-0.261-0.124c-5.914-2.401-12.533-2.401-18.446,0
					c-1.104,0.504-1.592,1.808-1.088,2.911c0.009,0.02,0.018,0.038,0.027,0.057L-53.231-243.331z"/>
			</g>
			<g id="Group_265_5_" transform="translate(13.665 30.138)">
				
					<path id="Path_324_5_" fill="none" stroke="#020202" stroke-width="3" stroke-linecap="round" stroke-linejoin="round" stroke-miterlimit="10" d="
					M-37.545-238.693c-0.544-0.908-1.652-1.308-2.65-0.954c-3.347,1.272-7.043,1.272-10.39,0c-0.998-0.354-2.106,0.046-2.65,0.954
					l-2.438,4.348c-0.563,1.011-0.2,2.286,0.81,2.849c0.081,0.045,0.165,0.085,0.251,0.119c5.914,2.402,12.532,2.402,18.446,0
					c1.104-0.503,1.591-1.807,1.088-2.911c-0.009-0.02-0.018-0.038-0.027-0.057L-37.545-238.693z"/>
			</g>
			<g id="Group_266_5_" transform="translate(4.563 13.665)">
				
					<path id="Path_325_5_" fill="none" stroke="#020202" stroke-width="3" stroke-linecap="round" stroke-linejoin="round" stroke-miterlimit="10" d="
					M-51.342-229.533c0.908-0.544,1.308-1.652,0.955-2.65c-1.272-3.347-1.272-7.043,0-10.39c0.353-0.998-0.047-2.106-0.955-2.651
					l-4.348-2.438c-1.01-0.563-2.285-0.201-2.849,0.81c-0.045,0.08-0.085,0.165-0.119,0.251c-2.402,5.914-2.402,12.532,0,18.446
					c0.504,1.104,1.808,1.591,2.911,1.087c0.02-0.007,0.038-0.018,0.057-0.026L-51.342-229.533z"/>
			</g>
			<g id="Group_267_5_" transform="translate(30.138 13.767)">
				
					<path id="Path_326_5_" fill="none" stroke="#020202" stroke-width="3" stroke-linecap="round" stroke-linejoin="round" stroke-miterlimit="10" d="
					M-46.702-245.218c-0.908,0.542-1.308,1.651-0.955,2.649c1.272,3.346,1.272,7.043,0,10.389c-0.353,0.999,0.047,2.107,0.955,2.651
					l4.348,2.438c1.01,0.563,2.285,0.2,2.849-0.811c0.045-0.08,0.085-0.164,0.119-0.25c2.403-5.914,2.403-12.533,0-18.446
					c-0.504-1.104-1.808-1.592-2.911-1.088c-0.02,0.009-0.038,0.018-0.057,0.027L-46.702-245.218z"/>
			</g>
		</g>
	</g>
	<g id="Group_376" transform="translate(17313.41 1570)">
		
			<path id="Path_502-2_1_" fill="none" stroke="#E2231A" stroke-width="3" stroke-linecap="round" stroke-linejoin="round" stroke-miterlimit="10" d="
			M14.704-19.888l15.31-14.178l15.558,14.407"/>
		
			<path id="Line_416-2_1_" fill="none" stroke="#E2231A" stroke-width="3" stroke-linecap="round" stroke-linejoin="round" stroke-miterlimit="10" d="
			M30.013-29.578v60.585"/>
	</g>
	<g id="Group_377" transform="translate(17433.559 1791.714)">
		
			<path id="Line_353-2_1_" fill="none" stroke="#E2231A" stroke-width="3" stroke-linecap="round" stroke-linejoin="round" stroke-miterlimit="10" d="
			M-62.723-192.201v-31.697"/>
		<g id="Group_303-2_1_">
			
				<ellipse id="Ellipse_173-2_1_" fill="none" stroke="#020202" stroke-width="3" stroke-linecap="round" stroke-linejoin="round" stroke-miterlimit="10" cx="-31.726" cy="-223.714" rx="30.998" ry="30.998"/>
			
				<ellipse id="Ellipse_176-2_1_" fill="none" stroke="#020202" stroke-width="3" stroke-linecap="round" stroke-linejoin="round" stroke-miterlimit="10" cx="-31.726" cy="-223.714" rx="8.905" ry="8.905"/>
			<g id="Group_264-2_1_" transform="translate(13.767 4.563)">
				
					<path id="Path_323-2_1_" fill="none" stroke="#020202" stroke-width="3" stroke-linecap="round" stroke-linejoin="round" stroke-miterlimit="10" d="
					M-53.231-243.331c0.544,0.908,1.652,1.308,2.65,0.954c3.347-1.271,7.043-1.271,10.39,0c0.998,0.354,2.106-0.046,2.65-0.954
					l2.438-4.348c0.566-1.008,0.208-2.285-0.8-2.852c-0.084-0.047-0.171-0.088-0.261-0.124c-5.914-2.401-12.533-2.401-18.446,0
					c-1.104,0.504-1.592,1.808-1.088,2.911c0.009,0.02,0.018,0.038,0.027,0.057L-53.231-243.331z"/>
			</g>
			<g id="Group_265-2_1_" transform="translate(13.665 30.138)">
				
					<path id="Path_324-2_1_" fill="none" stroke="#020202" stroke-width="3" stroke-linecap="round" stroke-linejoin="round" stroke-miterlimit="10" d="
					M-37.545-238.693c-0.544-0.908-1.652-1.308-2.65-0.954c-3.347,1.272-7.043,1.272-10.39,0c-0.998-0.354-2.106,0.046-2.65,0.954
					l-2.438,4.348c-0.563,1.011-0.2,2.286,0.81,2.849c0.081,0.045,0.165,0.085,0.251,0.119c5.914,2.402,12.532,2.402,18.446,0
					c1.104-0.503,1.591-1.807,1.088-2.911c-0.009-0.02-0.018-0.038-0.027-0.057L-37.545-238.693z"/>
			</g>
			<g id="Group_266-2_1_" transform="translate(4.563 13.665)">
				
					<path id="Path_325-2_1_" fill="none" stroke="#020202" stroke-width="3" stroke-linecap="round" stroke-linejoin="round" stroke-miterlimit="10" d="
					M-51.342-229.533c0.908-0.544,1.308-1.652,0.955-2.65c-1.272-3.347-1.272-7.043,0-10.39c0.353-0.998-0.047-2.106-0.955-2.651
					l-4.348-2.438c-1.01-0.563-2.285-0.201-2.849,0.81c-0.045,0.08-0.085,0.165-0.119,0.251c-2.402,5.914-2.402,12.532,0,18.446
					c0.504,1.104,1.808,1.591,2.911,1.087c0.02-0.007,0.038-0.018,0.057-0.026L-51.342-229.533z"/>
			</g>
			<g id="Group_267-2_1_" transform="translate(30.138 13.767)">
				
					<path id="Path_326-2_1_" fill="none" stroke="#020202" stroke-width="3" stroke-linecap="round" stroke-linejoin="round" stroke-miterlimit="10" d="
					M-46.702-245.218c-0.908,0.542-1.308,1.651-0.955,2.649c1.272,3.346,1.272,7.043,0,10.389c-0.353,0.999,0.047,2.107,0.955,2.651
					l4.348,2.438c1.01,0.563,2.285,0.2,2.849-0.811c0.045-0.08,0.085-0.164,0.119-0.25c2.403-5.914,2.403-12.533,0-18.446
					c-0.504-1.104-1.808-1.592-2.911-1.088c-0.02,0.009-0.038,0.018-0.057,0.027L-46.702-245.218z"/>
			</g>
		</g>
	</g>
</g>
</svg>
