<?xml version="1.0" encoding="utf-8"?>
<!-- Generator: Adobe Illustrator 16.0.0, SVG Export Plug-In . SVG Version: 6.00 Build 0)  -->
<!DOCTYPE svg PUBLIC "-//W3C//DTD SVG 1.1//EN" "http://www.w3.org/Graphics/SVG/1.1/DTD/svg11.dtd">
<svg version="1.1" id="Layer_1" xmlns="http://www.w3.org/2000/svg" xmlns:xlink="http://www.w3.org/1999/xlink" x="0px" y="0px"
	 width="128.943px" height="128.942px" viewBox="0 0 128.943 128.942" enable-background="new 0 0 128.943 128.942"
	 xml:space="preserve">
<g>
	
		<path id="Path_319_6_" fill="none" stroke="#E2231A" stroke-width="4.3592" stroke-linecap="round" stroke-linejoin="round" stroke-miterlimit="10" d="
		M67.864,104.029l-0.404,8.523l-8.117,6.891l-8.105-6.891l-0.402-8.523"/>
	<g id="Group_255_13_" transform="translate(11530 448)">
		
			<circle id="Ellipse_171_2_" fill="none" stroke="#020202" stroke-width="4.3592" stroke-linecap="round" stroke-linejoin="round" stroke-miterlimit="10" cx="-11411.571" cy="-387.035" r="6.932"/>
		
			<path id="Path_318_5_" fill="none" stroke="#020202" stroke-width="4.3592" stroke-linecap="round" stroke-linejoin="round" stroke-miterlimit="10" d="
			M-11470.763-406.598c-7.461-47.787,60.021-52.982,60.021-0.068"/>
	</g>
	<g id="Group_254_6_" transform="translate(5.765 25.517)">
		<g id="Group_331_8_">
			
				<path id="Line_365_7_" fill="none" stroke="#020202" stroke-width="5.1103" stroke-linecap="round" stroke-linejoin="round" stroke-miterlimit="10" d="
				M60.267,58.093v-24.31"/>
			
				<path id="Line_366_6_" fill="none" stroke="#020202" stroke-width="5.1103" stroke-linecap="round" stroke-linejoin="round" stroke-miterlimit="10" d="
				M45.525,58.093v-24.31"/>
		</g>
	</g>
	
		<path id="Rectangle_261_6_" fill="none" stroke="#020202" stroke-width="5.1103" stroke-linecap="round" stroke-linejoin="round" stroke-miterlimit="10" d="
		M40.688,41.602h35.398c7.242,0,13.113,5.871,13.113,13.113v35.398c0,7.24-5.871,13.113-13.113,13.113H40.688
		c-7.24,0-13.113-5.873-13.113-13.113V54.715C27.575,47.473,33.448,41.602,40.688,41.602z"/>
</g>
<rect x="0.581" y="0.581" fill="none" stroke="#E5007E" stroke-width="1.1623" stroke-miterlimit="10" width="127.781" height="127.78"/>
</svg>
