<?xml version="1.0" encoding="utf-8"?>
<!-- Generator: Adobe Illustrator 16.0.0, SVG Export Plug-In . SVG Version: 6.00 Build 0)  -->
<!DOCTYPE svg PUBLIC "-//W3C//DTD SVG 1.1//EN" "http://www.w3.org/Graphics/SVG/1.1/DTD/svg11.dtd">
<svg version="1.1" id="Layer_1" xmlns="http://www.w3.org/2000/svg" xmlns:xlink="http://www.w3.org/1999/xlink" x="0px" y="0px"
	 width="128.941px" height="128.942px" viewBox="0 0 128.941 128.942" enable-background="new 0 0 128.941 128.942"
	 xml:space="preserve">
<g>
	<g id="Group_411" transform="translate(-4077.454 -1554.734)">
		<g id="Group_261_4_" transform="translate(14837.5 2197.511)">
			<g id="Group_255_4_">
				<g id="Group_254_4_" transform="translate(5.765 25.517)">
					<g id="Group_331_2_">
						
							<path id="Line_294_3_" fill="none" stroke="#020202" stroke-width="4" stroke-linecap="round" stroke-linejoin="round" stroke-miterlimit="10" d="
							M-10734.664-587.931v-17.792"/>
						
							<path id="Line_366_2_" fill="none" stroke="#020202" stroke-width="4" stroke-linecap="round" stroke-linejoin="round" stroke-miterlimit="10" d="
							M-10726.15-587.931v-17.792"/>
					</g>
				</g>
				
					<path id="Rectangle_261_4_" fill="none" stroke="#020202" stroke-width="4" stroke-linecap="round" stroke-linejoin="round" stroke-miterlimit="10" d="
					M-10736.522-593.159h22.707c6.186,0,11.197,5.013,11.197,11.197v22.707c0,6.184-5.012,11.197-11.197,11.197h-22.707
					c-6.184,0-11.197-5.013-11.197-11.197v-22.707C-10747.72-588.147-10742.706-593.159-10736.522-593.159z"/>
				
					<path id="Path_319_4_" fill="none" stroke="#020202" stroke-width="4" stroke-linecap="round" stroke-linejoin="round" stroke-miterlimit="10" d="
					M-10718.233-547.471l-0.295,6.238l-5.941,5.044l-5.932-5.044l-0.295-6.238"/>
			</g>
		</g>
	</g>
	
		<path id="Path_507" fill="none" stroke="#E2231A" stroke-width="4" stroke-linecap="round" stroke-linejoin="round" stroke-miterlimit="10" d="
		M62.793,106.891h52.695"/>
	
		<path id="Path_504" fill="none" stroke="#E2231A" stroke-width="4" stroke-linecap="round" stroke-linejoin="round" stroke-miterlimit="10" d="
		M18.004,116.489h95.064"/>
	<g id="Group_412" transform="translate(-4040.454 -1560.734)">
		<g id="Group_261-2" transform="translate(14837.5 2197.511)">
			<g id="Group_255-2">
				<g id="Group_254-2" transform="translate(5.765 25.517)">
					<g id="Group_331-2">
						
							<path id="Line_366-2" fill="none" stroke="#020202" stroke-width="4" stroke-linecap="round" stroke-linejoin="round" stroke-miterlimit="10" d="
							M-10708.762-591.529v-17.792"/>
					</g>
				</g>
				
					<path id="Rectangle_261-2" fill="none" stroke="#020202" stroke-width="4" stroke-linecap="round" stroke-linejoin="round" stroke-miterlimit="10" d="
					M-10714.335-596.757h22.707c6.184,0,11.197,5.013,11.197,11.197v22.707c0,6.184-5.014,11.197-11.197,11.197h-22.707
					c-6.184,0-11.197-5.013-11.197-11.197v-22.707C-10725.532-591.744-10720.519-596.757-10714.335-596.757z"/>
				
					<path id="Path_319-2" fill="none" stroke="#020202" stroke-width="4" stroke-linecap="round" stroke-linejoin="round" stroke-miterlimit="10" d="
					M-10696.048-551.068l-0.293,6.239l-5.941,5.043l-5.932-5.043l-0.295-6.239"/>
				
					<path id="Path_505" fill="none" stroke="#020202" stroke-width="4" stroke-linecap="round" stroke-linejoin="round" stroke-miterlimit="10" d="
					M-10702.978-596.757v-9.101c0-5.599,1.246-17.342,8.117-20.315"/>
			</g>
		</g>
	</g>
	
		<path id="Path_506" fill="none" stroke="#020202" stroke-width="4" stroke-linecap="round" stroke-linejoin="round" stroke-miterlimit="10" d="
		M34.881,49.618v-9.101c0-5.599,1.246-17.342,8.117-20.315"/>
</g>
</svg>
