<?xml version="1.0" encoding="utf-8"?>
<!-- Generator: Adobe Illustrator 16.0.0, SVG Export Plug-In . SVG Version: 6.00 Build 0)  -->
<!DOCTYPE svg PUBLIC "-//W3C//DTD SVG 1.1//EN" "http://www.w3.org/Graphics/SVG/1.1/DTD/svg11.dtd">
<svg version="1.1" id="Layer_1" xmlns="http://www.w3.org/2000/svg" xmlns:xlink="http://www.w3.org/1999/xlink" x="0px" y="0px"
	 width="128.942px" height="128.942px" viewBox="0 0 128.942 128.942" enable-background="new 0 0 128.942 128.942"
	 xml:space="preserve">
<path id="Path_1077" fill="none" stroke="#020202" stroke-width="4" stroke-linecap="round" stroke-linejoin="round" stroke-miterlimit="10" d="
	M71.087,85.055h34.69c10.776-0.275,19.289-9.237,19.012-20.014c-0.268-10.388-8.625-18.746-19.012-19.013
	c-2.004-0.002-3.998,0.299-5.911,0.896C98.158,27.678,81.17,13.461,61.925,15.17c-11.377,1.01-21.545,7.51-27.237,17.414
	C20.289,30.298,6.763,40.118,4.477,54.517c-2.285,14.4,7.534,27.926,21.934,30.211c1.358,0.216,2.733,0.325,4.11,0.326h27.167"/>
<g>
	
		<path id="Path_350_1_" fill="none" stroke="#E2231A" stroke-width="4" stroke-linecap="round" stroke-linejoin="round" stroke-miterlimit="10" d="
		M81.014,98.085l-16.41,15.198L47.928,97.839"/>
	
		<path id="Line_309_1_" fill="none" stroke="#E2231A" stroke-width="4" stroke-linecap="round" stroke-linejoin="round" stroke-miterlimit="10" d="
		M64.471,113.283v-40.89"/>
</g>
</svg>
