<?xml version="1.0" encoding="utf-8"?>
<!-- Generator: Adobe Illustrator 16.0.0, SVG Export Plug-In . SVG Version: 6.00 Build 0)  -->
<!DOCTYPE svg PUBLIC "-//W3C//DTD SVG 1.1//EN" "http://www.w3.org/Graphics/SVG/1.1/DTD/svg11.dtd">
<svg version="1.1" id="Layer_1" xmlns="http://www.w3.org/2000/svg" xmlns:xlink="http://www.w3.org/1999/xlink" x="0px" y="0px"
	 width="128.942px" height="128.942px" viewBox="0 0 128.942 128.942" enable-background="new 0 0 128.942 128.942"
	 xml:space="preserve">
<g id="Group_259" transform="translate(0 117.071)">
	
		<path id="Path_310" fill="none" stroke="#020202" stroke-width="4" stroke-linecap="round" stroke-linejoin="round" stroke-miterlimit="10" d="
		M28.654-107.566h71.634l9.218,10.638v88.656l-9.218,10.638H28.654L19.436-8.272v-88.656L28.654-107.566z"/>
	
		<path id="Rectangle_595" fill="none" stroke="#020202" stroke-width="4" stroke-linecap="round" stroke-linejoin="round" stroke-miterlimit="10" d="
		M80.949-96.125h9.779c2.489,0,4.507,2.018,4.507,4.507v1.269c0,2.489-2.018,4.508-4.507,4.508h-9.779
		c-2.49,0-4.507-2.019-4.507-4.508v-1.269C76.441-94.107,78.459-96.125,80.949-96.125z"/>
	
		<path id="Path_1216" fill="none" stroke="#E2231A" stroke-width="4" stroke-linecap="round" stroke-linejoin="round" stroke-miterlimit="10" d="
		M72.124-47.402c-2.061-4.064-7.027-5.687-11.091-3.625c-4.064,2.063-5.686,7.028-3.625,11.092c2.056,4.051,7,5.679,11.06,3.64
		c4.05-1.976,5.731-6.861,3.755-10.91C72.191-47.272,72.158-47.337,72.124-47.402z M48.664-25.781
		c-0.213-0.364-0.097-0.175-0.301-0.525c0.234-1.305,0.7-2.558,1.375-3.699c1.021-1.512,0.966-3.506-0.136-4.959
		c-0.611-1.196-1.814-1.975-3.155-2.043c-1.581-0.099-4.293-0.062-4.704-0.768c-0.409-0.707-0.074-0.137-0.3-0.524
		c-0.226-0.388,0.084-5.972,0.129-8.965c0.023-1.283,0.282-1.574,1.602-1.777c1.626-0.244,3.26-0.452,4.871-0.761
		c0.425-0.124,0.793-0.393,1.041-0.761c0.562-0.821,0.958-1.741,1.534-2.538c0.373-0.441,0.45-1.063,0.196-1.582
		c-0.623-1.474-1.201-2.962-1.814-4.452c-0.397-0.957-0.244-1.459,0.706-2.013c2.477-1.443,4.956-2.876,7.437-4.293
		c0.973-0.555,1.482-0.419,2.166,0.477c0.979,1.269,1.943,2.545,2.984,3.757c0.315,0.309,0.73,0.494,1.17,0.524
		c1.09,0.062,2.183,0.062,3.274,0c0.381-0.029,0.739-0.193,1.01-0.462c1.086-1.278,2.111-2.605,3.155-3.921
		c0.827-1.042,1.216-1.116,2.332-0.495c2.613,1.459,7.567,3.907,7.832,4.369c0.264,0.461,0.084,0.15,0.301,0.524
		c-0.268,1.432-0.787,2.806-1.534,4.058c-0.671,1.46-0.568,3.159,0.273,4.528c0.567,1.177,1.705,1.976,3.005,2.112
		c1.641,0.106,4.217-0.38,4.886,0.775c0.668,1.155-0.259-0.44,0.3,0.525c0.559,0.964-0.098,6.039-0.15,9.056
		c-0.015,1.17-0.274,1.466-1.48,1.653c-1.695,0.273-3.389,0.501-5.076,0.806c-0.367,0.1-0.687,0.33-0.901,0.646
		c-0.598,0.914-1.145,1.861-1.641,2.834c-0.202,0.357-0.262,0.778-0.167,1.177c0.532,1.503,1.202,2.964,1.733,4.483
		c0.182,0.548,0.45,1.596,0.091,1.803c-0.358,0.208-8.449,4.884-8.781,5.074c-0.333,0.19-1.042-0.365-1.352-0.721
		c-1.04-1.216-1.999-2.508-2.971-3.776c-0.314-0.524-0.916-0.804-1.52-0.706c-0.979,0.114-1.983-0.015-2.964,0.059
		c-0.444,0.03-0.864,0.216-1.186,0.525c-1.078,1.246-2.073,2.554-3.093,3.836c-0.827,1.041-1.223,1.125-2.339,0.501
		c-2.615-1.457-7.629-4.01-7.833-4.368L48.664-25.781z"/>
</g>
</svg>
