<?xml version="1.0" encoding="utf-8"?>
<!-- Generator: Adobe Illustrator 16.0.0, SVG Export Plug-In . SVG Version: 6.00 Build 0)  -->
<!DOCTYPE svg PUBLIC "-//W3C//DTD SVG 1.1//EN" "http://www.w3.org/Graphics/SVG/1.1/DTD/svg11.dtd">
<svg version="1.1" id="Layer_1" xmlns="http://www.w3.org/2000/svg" xmlns:xlink="http://www.w3.org/1999/xlink" x="0px" y="0px"
	 width="31.522px" height="32.415px" viewBox="0 0 31.522 32.415" enable-background="new 0 0 31.522 32.415" xml:space="preserve">
<g id="Group_458_141_" transform="translate(180 261.86)">
	<g>
		<g id="Group_192_139_" transform="translate(173 16.757)">
			
				<path id="Rectangle_192_139_" fill="none" stroke="#1D1D1B" stroke-width="2" stroke-linecap="round" stroke-linejoin="round" stroke-miterlimit="10" d="
				M-341.007-268.179h7.537c1.104,0,1.999,0.894,1.999,1.998v7.537c0,1.104-0.895,1.999-1.999,1.999h-7.537
				c-1.104,0-1.999-0.895-1.999-1.999v-7.537C-343.006-267.285-342.11-268.179-341.007-268.179z"/>
			
				<path id="Path_261_139_" fill="none" stroke="#1D1D1B" stroke-width="2" stroke-linecap="round" stroke-linejoin="round" stroke-miterlimit="10" d="
				M-337.194-268.221c-0.55-2.173,0.504-4.433,2.523-5.408"/>
			
				<path id="Path_262_139_" fill="none" stroke="#1D1D1B" stroke-width="2" stroke-linecap="round" stroke-linejoin="round" stroke-miterlimit="10" d="
				M-334.67-256.358l-0.121,2.573l-2.448,2.077l-2.451-2.077l-0.121-2.573"/>
		</g>
		<g id="Group_200_139_">
			
				<path id="Path_285_132_" fill="none" stroke="#1D1D1B" stroke-width="2" stroke-linecap="round" stroke-linejoin="round" stroke-miterlimit="10" d="
				M-165.923-247.635v3.994"/>
			
				<path id="Path_1222_77_" fill="none" stroke="#1D1D1B" stroke-width="2" stroke-linecap="round" stroke-linejoin="round" stroke-miterlimit="10" d="
				M-162.761-247.635v3.994"/>
		</g>
	</g>
</g>
</svg>
