<?xml version="1.0" encoding="utf-8"?>
<!-- Generator: Adobe Illustrator 16.0.0, SVG Export Plug-In . SVG Version: 6.00 Build 0)  -->
<!DOCTYPE svg PUBLIC "-//W3C//DTD SVG 1.1//EN" "http://www.w3.org/Graphics/SVG/1.1/DTD/svg11.dtd">
<svg version="1.1" id="Layer_1" xmlns="http://www.w3.org/2000/svg" xmlns:xlink="http://www.w3.org/1999/xlink" x="0px" y="0px"
	 width="128.941px" height="128.942px" viewBox="0 0 128.941 128.942" enable-background="new 0 0 128.941 128.942"
	 xml:space="preserve">
<g id="Group_392" transform="translate(655.383 122.333)">
	
		<path id="Path_500" fill="none" stroke="#020202" stroke-width="3.4732" stroke-linecap="round" stroke-linejoin="round" stroke-miterlimit="10" d="
		M-590.919-91.333c-14.965,0.002-27.096,12.135-27.094,27.099v0.005c0,21.693,14.414,22.638,14.414,34.526v11.141
		c0.018,6.631,5.388,12,12.017,12.019c0.225,0,0.441,0,0.654-0.019c0.214-0.019,0.439,0.019,0.654,0.019
		c6.633-0.014,12.005-5.387,12.021-12.019v-11.141c0-11.889,14.431-12.833,14.431-34.526
		C-563.823-79.195-575.953-91.328-590.919-91.333L-590.919-91.333z"/>
	
		<path id="Line_394" fill="none" stroke="#E2231A" stroke-width="3.4973" stroke-linecap="round" stroke-linejoin="round" stroke-miterlimit="10" d="
		M-590.917-116.569v12.403"/>
	
		<path id="Line_395" fill="none" stroke="#E2231A" stroke-width="3.4973" stroke-linecap="round" stroke-linejoin="round" stroke-miterlimit="10" d="
		M-617.631-109.418l6.197,10.748"/>
	
		<path id="Line_396" fill="none" stroke="#E2231A" stroke-width="3.4973" stroke-linecap="round" stroke-linejoin="round" stroke-miterlimit="10" d="
		M-564.198-109.418l-6.207,10.748"/>
	
		<path id="Line_397" fill="none" stroke="#E2231A" stroke-width="3.4973" stroke-linecap="round" stroke-linejoin="round" stroke-miterlimit="10" d="
		M-637.185-89.858l10.739,6.196"/>
	
		<path id="Line_398" fill="none" stroke="#E2231A" stroke-width="3.4973" stroke-linecap="round" stroke-linejoin="round" stroke-miterlimit="10" d="
		M-637.185-36.424l10.739-6.206"/>
	
		<path id="Line_399" fill="none" stroke="#E2231A" stroke-width="3.4973" stroke-linecap="round" stroke-linejoin="round" stroke-miterlimit="10" d="
		M-544.645-89.858l-10.739,6.196"/>
	
		<path id="Line_400" fill="none" stroke="#E2231A" stroke-width="3.4973" stroke-linecap="round" stroke-linejoin="round" stroke-miterlimit="10" d="
		M-544.645-36.424l-10.739-6.206"/>
	
		<path id="Line_401" fill="none" stroke="#E2231A" stroke-width="3.4973" stroke-linecap="round" stroke-linejoin="round" stroke-miterlimit="10" d="
		M-644.342-63.145h12.402"/>
	
		<path id="Line_402" fill="none" stroke="#E2231A" stroke-width="3.4973" stroke-linecap="round" stroke-linejoin="round" stroke-miterlimit="10" d="
		M-537.485-63.145h-12.402"/>
	
		<path id="Line_403" fill="none" stroke="#020202" stroke-width="3.4732" stroke-linecap="round" stroke-linejoin="round" stroke-miterlimit="10" d="
		M-602.24-17.983l22.637-2.385"/>
	
		<path id="Line_408" fill="none" stroke="#E2231A" stroke-width="3.4973" stroke-linecap="round" stroke-linejoin="round" stroke-miterlimit="10" d="
		M-587.47-33.704l3.494-30.038"/>
	
		<path id="Line_409" fill="none" stroke="#E2231A" stroke-width="3.4973" stroke-linecap="round" stroke-linejoin="round" stroke-miterlimit="10" d="
		M-594.362-33.704l-3.494-30.038"/>
	
		<path id="Line_410" fill="none" stroke="#020202" stroke-width="3.4732" stroke-linecap="round" stroke-linejoin="round" stroke-miterlimit="10" d="
		M-602.24-24.825l22.637-2.385"/>
	
		<path id="Line_393" fill="none" stroke="#020202" stroke-width="3.4732" stroke-linecap="round" stroke-linejoin="round" stroke-miterlimit="10" d="
		M-603.519-31.378l25.207-2.664"/>
</g>
<rect x="0.581" y="0.581" fill="none" stroke="#E5007E" stroke-width="1.1623" stroke-miterlimit="10" width="127.779" height="127.78"/>
</svg>
