<?xml version="1.0" encoding="utf-8"?>
<!-- Generator: Adobe Illustrator 16.0.0, SVG Export Plug-In . SVG Version: 6.00 Build 0)  -->
<!DOCTYPE svg PUBLIC "-//W3C//DTD SVG 1.1//EN" "http://www.w3.org/Graphics/SVG/1.1/DTD/svg11.dtd">
<svg version="1.1" id="Layer_1" xmlns="http://www.w3.org/2000/svg" xmlns:xlink="http://www.w3.org/1999/xlink" x="0px" y="0px"
	 width="128.942px" height="128.942px" viewBox="0 0 128.942 128.942" enable-background="new 0 0 128.942 128.942"
	 xml:space="preserve">
<g>
	
		<line fill="none" stroke="#E2231A" stroke-width="4" stroke-linecap="round" stroke-linejoin="round" stroke-miterlimit="10" x1="81.125" y1="45.902" x2="81.125" y2="67.111"/>
	<path fill="none" stroke="#E2231A" stroke-width="4" stroke-linecap="round" stroke-linejoin="round" stroke-miterlimit="10" d="
		M78.485,69.751c1.458,0,2.641-1.182,2.641-2.64"/>
	<path fill="none" stroke="#E2231A" stroke-width="4" stroke-linecap="round" stroke-linejoin="round" stroke-miterlimit="10" d="
		M50.08,69.751c-1.458,0-2.64,1.182-2.64,2.64s1.182,2.641,2.64,2.641"/>
	<path fill="none" stroke="#E2231A" stroke-width="4" stroke-linecap="round" stroke-linejoin="round" stroke-miterlimit="10" d="
		M78.485,80.313c1.458,0,2.641-1.183,2.641-2.641s-1.182-2.64-2.641-2.64"/>
	
		<line fill="none" stroke="#E2231A" stroke-width="4" stroke-linecap="round" stroke-linejoin="round" stroke-miterlimit="10" x1="50.08" y1="69.751" x2="78.485" y2="69.751"/>
	
		<line fill="none" stroke="#E2231A" stroke-width="4" stroke-linecap="round" stroke-linejoin="round" stroke-miterlimit="10" x1="78.485" y1="75.032" x2="50.08" y2="75.032"/>
	<path fill="none" stroke="#E2231A" stroke-width="4" stroke-linecap="round" stroke-linejoin="round" stroke-miterlimit="10" d="
		M50.08,80.313c-1.458,0-2.64,1.182-2.64,2.641c0,1.458,1.182,2.641,2.64,2.641"/>
	<path fill="none" stroke="#E2231A" stroke-width="4" stroke-linecap="round" stroke-linejoin="round" stroke-miterlimit="10" d="
		M78.485,90.875c1.458,0,2.641-1.183,2.641-2.641s-1.182-2.64-2.641-2.64"/>
	
		<line fill="none" stroke="#E2231A" stroke-width="4" stroke-linecap="round" stroke-linejoin="round" stroke-miterlimit="10" x1="50.08" y1="80.313" x2="78.485" y2="80.313"/>
	
		<line fill="none" stroke="#E2231A" stroke-width="4" stroke-linecap="round" stroke-linejoin="round" stroke-miterlimit="10" x1="78.485" y1="85.594" x2="50.08" y2="85.594"/>
	
		<line fill="none" stroke="#E2231A" stroke-width="4" stroke-linecap="round" stroke-linejoin="round" stroke-miterlimit="10" x1="78.485" y1="90.875" x2="47.439" y2="90.875"/>
	<g id="print-menu-icon-big" transform="translate(-11001.081 -633.5)">
		<g id="start-callibration-icon" transform="translate(10632.968 431.071)">
			
				<path id="Rectangle_211" fill="none" stroke="#020202" stroke-width="4" stroke-linecap="round" stroke-linejoin="round" stroke-miterlimit="10" d="
				M406.382,248.332h52.406v50.032h-52.406V248.332z"/>
		</g>
	</g>
	
		<path id="Path_310_2_" fill="none" stroke="#020202" stroke-width="4" stroke-linecap="round" stroke-linejoin="round" stroke-miterlimit="10" d="
		M30.548,12.411h67.846l8.731,10.077v83.968l-8.731,10.077H30.548l-8.731-10.077V22.487L30.548,12.411z"/>
	
		<path id="Rectangle_595_2_" fill="none" stroke="#020202" stroke-width="4" stroke-linecap="round" stroke-linejoin="round" stroke-miterlimit="10" d="
		M80.079,23.247h9.261c2.357,0,4.27,1.911,4.27,4.269v1.202c0,2.358-1.912,4.27-4.27,4.27h-9.261c-2.358,0-4.27-1.911-4.27-4.27
		v-1.202C75.809,25.158,77.721,23.247,80.079,23.247z"/>
</g>
</svg>
