<?xml version="1.0" encoding="utf-8"?>
<!-- Generator: Adobe Illustrator 16.0.0, SVG Export Plug-In . SVG Version: 6.00 Build 0)  -->
<!DOCTYPE svg PUBLIC "-//W3C//DTD SVG 1.1//EN" "http://www.w3.org/Graphics/SVG/1.1/DTD/svg11.dtd">
<svg version="1.1" id="Layer_1" xmlns="http://www.w3.org/2000/svg" xmlns:xlink="http://www.w3.org/1999/xlink" x="0px" y="0px"
	 width="84.344px" height="84.345px" viewBox="0 0 84.344 84.345" enable-background="new 0 0 84.344 84.345" xml:space="preserve">
<g id="Group_261_5_" transform="translate(14837.5 2197.511)">
	<g id="Group_255_5_">
		
			<path id="Path_319_5_" fill="none" stroke="#E2231A" stroke-width="3" stroke-linecap="round" stroke-linejoin="round" stroke-miterlimit="10" d="
			M-14797.566-2134.342l-0.198,4.224l-4.022,3.415l-4.016-3.415l-0.2-4.224"/>
		<g id="Group_254_5_" transform="translate(5.765 25.517)">
			<g id="Group_331_7_">
				
					<path id="Line_365_6_" fill="none" stroke="#020202" stroke-width="3" stroke-linecap="round" stroke-linejoin="round" stroke-miterlimit="10" d="
					M-14818.021-2173.119h19.236"/>
				
					<path id="Line_366_5_" fill="none" stroke="#020202" stroke-width="3" stroke-linecap="round" stroke-linejoin="round" stroke-miterlimit="10" d="
					M-14818.021-2178.882h19.236"/>
				
					<path id="Line_367_2_" fill="none" stroke="#020202" stroke-width="3" stroke-linecap="round" stroke-linejoin="round" stroke-miterlimit="10" d="
					M-14818.021-2167.354h19.236"/>
			</g>
		</g>
		
			<path id="Rectangle_261_5_" fill="none" stroke="#020202" stroke-width="3" stroke-linecap="round" stroke-linejoin="round" stroke-miterlimit="10" d="
			M-14811.031-2165.277h17.541c3.588,0,6.497,2.911,6.497,6.499v17.541c0,3.588-2.909,6.496-6.497,6.496h-17.541
			c-3.588,0-6.498-2.908-6.498-6.496v-17.541C-14817.529-2162.366-14814.619-2165.277-14811.031-2165.277z"/>
		
			<path id="Path_318_4_" fill="none" stroke="#020202" stroke-width="3" stroke-linecap="round" stroke-linejoin="round" stroke-miterlimit="10" d="
			M-14801.699-2165.752c-3.682-23.582,28.573-25.615,28.573,0.499"/>
	</g>
</g>
<rect x="0.38" y="0.38" fill="none" stroke="#E5007E" stroke-width="0.7603" stroke-miterlimit="10" width="83.584" height="83.585"/>
</svg>
