<?xml version="1.0" encoding="utf-8"?>
<!-- Generator: Adobe Illustrator 16.0.0, SVG Export Plug-In . SVG Version: 6.00 Build 0)  -->
<!DOCTYPE svg PUBLIC "-//W3C//DTD SVG 1.1//EN" "http://www.w3.org/Graphics/SVG/1.1/DTD/svg11.dtd">
<svg version="1.1" id="Layer_1" xmlns="http://www.w3.org/2000/svg" xmlns:xlink="http://www.w3.org/1999/xlink" x="0px" y="0px"
	 width="51.885px" height="51.886px" viewBox="0 0 51.885 51.886" enable-background="new 0 0 51.885 51.886" xml:space="preserve">
<g id="Group_172_41_" transform="translate(10.675)">
	<g id="Group_146_41_" transform="translate(0 4.789)">
		
			<path id="Line_76_41_" fill="none" stroke="#E2231A" stroke-width="3" stroke-linecap="round" stroke-linejoin="round" stroke-miterlimit="10" d="
			M10.23,34.724l5.038,4.674"/>
		
			<path id="Line_77_41_" fill="none" stroke="#E2231A" stroke-width="3" stroke-linecap="round" stroke-linejoin="round" stroke-miterlimit="10" d="
			M15.268,39.398v-13.65"/>
	</g>
	
		<path id="Line_78_41_" fill="none" stroke="#E2231A" stroke-width="3" stroke-linecap="round" stroke-linejoin="round" stroke-miterlimit="10" d="
		M20.311,39.513l-5.042,4.674"/>
</g>
<path id="Path_1077_1_" fill="none" stroke="#F9B621" stroke-width="3" stroke-linecap="round" stroke-linejoin="round" stroke-miterlimit="10" d="
	M29.787,35.703h7.67c3.004-0.078,5.377-2.575,5.3-5.579c-0.074-2.896-2.404-5.227-5.3-5.3c-0.559,0-1.114,0.083-1.647,0.25
	c-0.477-5.366-5.212-9.329-10.576-8.853c-3.172,0.282-6.006,2.093-7.593,4.854c-4.014-0.638-7.784,2.1-8.422,6.113
	c-0.636,4.015,2.101,7.785,6.115,8.422c0.379,0.06,0.762,0.09,1.145,0.091h5.573"/>
</svg>
