<?xml version="1.0" encoding="utf-8"?>
<!-- Generator: Adobe Illustrator 16.0.0, SVG Export Plug-In . SVG Version: 6.00 Build 0)  -->
<!DOCTYPE svg PUBLIC "-//W3C//DTD SVG 1.1//EN" "http://www.w3.org/Graphics/SVG/1.1/DTD/svg11.dtd">
<svg version="1.1" id="Layer_1" xmlns="http://www.w3.org/2000/svg" xmlns:xlink="http://www.w3.org/1999/xlink" x="0px" y="0px"
	 width="31.522px" height="32.415px" viewBox="0 0 31.522 32.415" enable-background="new 0 0 31.522 32.415" xml:space="preserve">
<g id="Group_304_2_">
	<g id="Group_303_19_" transform="translate(10875.5 1448.631)">
		
			<ellipse id="Ellipse_173_20_" fill="none" stroke="#1D1D1B" stroke-width="1.9327" stroke-linecap="round" stroke-linejoin="round" stroke-miterlimit="10" cx="-10859.643" cy="-1432.669" rx="9.219" ry="9.219"/>
		
			<ellipse id="Ellipse_176_9_" fill="none" stroke="#1D1D1B" stroke-width="1.9327" stroke-linecap="round" stroke-linejoin="round" stroke-miterlimit="10" cx="-10859.644" cy="-1432.668" rx="1.895" ry="1.895"/>
		<g id="Group_264_9_" transform="translate(14.551 27.015)">
			
				<path id="Path_323_9_" fill="none" stroke="#1D1D1B" stroke-width="1.9327" stroke-linecap="round" stroke-linejoin="round" stroke-miterlimit="10" d="
				M-10869.926-1461.877c-0.258,0.154-0.37,0.469-0.27,0.751c0.359,0.949,0.359,1.998,0,2.946c-0.101,0.283,0.012,0.597,0.27,0.75
				l1.232,0.691c0.285,0.16,0.646,0.059,0.807-0.227c0.014-0.023,0.025-0.048,0.035-0.073c0.682-1.677,0.682-3.554,0-5.23
				c-0.143-0.313-0.513-0.45-0.826-0.308c-0.005,0.002-0.01,0.004-0.016,0.008L-10869.926-1461.877z"/>
		</g>
		<g id="Group_265_9_" transform="translate(14.402 64.263)">
			
				<path id="Path_324_9_" fill="none" stroke="#1D1D1B" stroke-width="1.9327" stroke-linecap="round" stroke-linejoin="round" stroke-miterlimit="10" d="
				M-10878.344-1494.707c0.258-0.154,0.371-0.469,0.271-0.751c-0.36-0.949-0.36-1.997,0-2.947c0.101-0.282-0.013-0.597-0.271-0.75
				l-1.232-0.692c-0.285-0.159-0.646-0.058-0.808,0.228c-0.013,0.024-0.024,0.048-0.034,0.073c-0.682,1.678-0.682,3.554,0,5.231
				c0.143,0.313,0.512,0.45,0.826,0.308c0.004-0.002,0.01-0.005,0.016-0.008L-10878.344-1494.707z"/>
		</g>
		<g id="Group_266_20_" transform="translate(1.146 40.271)">
			
				<path id="Path_325_20_" fill="none" stroke="#1D1D1B" stroke-width="1.9327" stroke-linecap="round" stroke-linejoin="round" stroke-miterlimit="10" d="
				M-10863.014-1477.208c0.154,0.258,0.469,0.371,0.752,0.271c0.948-0.36,1.996-0.36,2.945,0c0.283,0.101,0.598-0.013,0.751-0.271
				l0.692-1.232c0.16-0.285,0.058-0.647-0.228-0.808c-0.024-0.013-0.048-0.024-0.073-0.034c-1.678-0.682-3.554-0.682-5.23,0
				c-0.313,0.142-0.451,0.513-0.308,0.826c0.002,0.005,0.004,0.01,0.007,0.016L-10863.014-1477.208z"/>
		</g>
		<g id="Group_267_20_" transform="translate(38.394 40.42)">
			
				<path id="Path_326_20_" fill="none" stroke="#1D1D1B" stroke-width="1.9327" stroke-linecap="round" stroke-linejoin="round" stroke-miterlimit="10" d="
				M-10895.844-1468.789c-0.154-0.258-0.469-0.371-0.751-0.271c-0.948,0.361-1.997,0.361-2.946,0
				c-0.281-0.1-0.597,0.013-0.751,0.271l-0.69,1.232c-0.16,0.286-0.059,0.647,0.227,0.807c0.023,0.014,0.049,0.025,0.073,0.035
				c1.677,0.682,3.554,0.682,5.23,0c0.313-0.143,0.451-0.512,0.308-0.825c-0.002-0.005-0.005-0.011-0.008-0.016L-10895.844-1468.789
				z"/>
		</g>
	</g>
</g>
</svg>
