<?xml version="1.0" encoding="utf-8"?>
<!-- Generator: Adobe Illustrator 16.0.0, SVG Export Plug-In . SVG Version: 6.00 Build 0)  -->
<!DOCTYPE svg PUBLIC "-//W3C//DTD SVG 1.1//EN" "http://www.w3.org/Graphics/SVG/1.1/DTD/svg11.dtd">
<svg version="1.1" id="Layer_1" xmlns="http://www.w3.org/2000/svg" xmlns:xlink="http://www.w3.org/1999/xlink" x="0px" y="0px"
	 width="51.884px" height="51.886px" viewBox="0 0 51.884 51.886" enable-background="new 0 0 51.884 51.886" xml:space="preserve">
<g id="Group_459_130_" transform="translate(.483)">
	<g id="Group_456_130_" transform="translate(334.517 283)">
		<g id="Group_438_130_">
			
				<path id="Path_1088_130_" fill="none" stroke="#35A8E0" stroke-width="3" stroke-linecap="round" stroke-linejoin="round" stroke-miterlimit="10" d="
				M-316.818-251.584v-17.467c0-2.341-1.897-4.238-4.239-4.238c-2.342,0-4.239,1.897-4.239,4.238l0,0v17.467
				c-2.833,2.341-3.232,6.536-0.892,9.369c2.342,2.833,6.536,3.232,9.369,0.891c2.833-2.34,3.232-6.536,0.891-9.369
				C-316.195-251.018-316.494-251.316-316.818-251.584z"/>
			<path id="Path_1089_130_" fill="#35A8E0" d="M-319.265-248.398c-0.375-0.338-0.583-0.822-0.571-1.324v-12.146
				c0-0.676-0.546-1.222-1.222-1.222c-0.675,0-1.222,0.546-1.222,1.222v12.317c-0.011,0.454-0.224,0.878-0.579,1.159
				c-1.18,0.992-1.33,2.752-0.337,3.931c0.993,1.178,2.754,1.327,3.932,0.335c1.178-0.993,1.328-2.753,0.335-3.931
				c-0.102-0.121-0.214-0.233-0.335-0.334V-248.398z"/>
		</g>
	</g>
	<g id="Group_460_43_" transform="translate(354.517 276.598)">
		<g id="Group_178_43_" transform="translate(0 22.243)">
			
				<path id="Path_267_43_" fill="none" stroke="#F9B621" stroke-width="3" stroke-linecap="round" stroke-linejoin="round" stroke-miterlimit="10" d="
				M-319.368-269.987l8.965,5.987l-8.644,5.771l-8.966-5.986L-319.368-269.987z"/>
		</g>
		
			<path id="Path_268_43_" fill="none" stroke="#F9B621" stroke-width="3" stroke-linecap="round" stroke-linejoin="round" stroke-miterlimit="10" d="
			M-319.235-266.888c-2.252,3.788-1.281,5.059,0.838,7.995c2.118,2.936-1.237,6.18-1.237,6.18"/>
		
			<path id="Path_269_43_" fill="none" stroke="#F9B621" stroke-width="3" stroke-linecap="round" stroke-linejoin="round" stroke-miterlimit="10" d="
			M-326.477-262.618c-1.904,2.91-1.086,3.891,0.711,6.143c1.796,2.252-1.048,4.748-1.048,4.748"/>
		
			<path id="Path_270_43_" fill="none" stroke="#F9B621" stroke-width="3" stroke-linecap="round" stroke-linejoin="round" stroke-miterlimit="10" d="
			M-311.706-262.618c-1.904,2.91-1.081,3.891,0.71,6.143s-1.047,4.748-1.047,4.748"/>
	</g>
</g>
</svg>
