<?xml version="1.0" encoding="utf-8"?>
<!-- Generator: Adobe Illustrator 16.0.0, SVG Export Plug-In . SVG Version: 6.00 Build 0)  -->
<!DOCTYPE svg PUBLIC "-//W3C//DTD SVG 1.1//EN" "http://www.w3.org/Graphics/SVG/1.1/DTD/svg11.dtd">
<svg version="1.1" id="Layer_1" xmlns="http://www.w3.org/2000/svg" xmlns:xlink="http://www.w3.org/1999/xlink" x="0px" y="0px"
	 width="128.942px" height="128.943px" viewBox="0 0 128.942 128.943" enable-background="new 0 0 128.942 128.943"
	 xml:space="preserve">
<g>
	<g id="start-callibration-icon_2_" transform="translate(10632.968 431.071)">
		<g id="Group_441_1_" transform="translate(-10851.968 -431.071)">
			<g id="start-callibration-icon-2_1_" transform="translate(10851.387 431.071)">
				
					<path id="Subtraction_6_1_" fill="none" stroke="#020202" stroke-width="4" stroke-linecap="round" stroke-linejoin="round" stroke-miterlimit="10" d="
					M-10536.602-310.957h-55.006l-21.047-21.051v-74.392c0.01-7.41,6.012-13.415,13.422-13.422h62.635
					c3.563-0.01,6.979,1.405,9.491,3.93c2.523,2.512,3.939,5.929,3.931,9.491v82.022
					C-10523.183-316.968-10529.189-310.963-10536.602-310.957z"/>
			</g>
			
				<path id="Subtraction_7_1_" fill="none" stroke="#020202" stroke-width="4" stroke-linecap="round" stroke-linejoin="round" stroke-miterlimit="10" d="
				M259.64,118.754l-19.245-19.247c1.469-0.533,3.021-0.806,4.584-0.804h2.043c7.409,0.008,13.413,6.013,13.422,13.422v2.048
				c0.003,1.562-0.268,3.112-0.802,4.58L259.64,118.754z"/>
		</g>
	</g>
	<g id="cloud-menu-icon-big" transform="translate(-217 -2.863)">
		<g id="Group_260" transform="translate(11230.699 657.117)">
			<g id="Group_302">
				
					<path id="Path_351" fill="none" stroke="#E2231A" stroke-width="4" stroke-linecap="round" stroke-linejoin="round" stroke-miterlimit="10" d="
					M-10978.007-582.921c0.486,1.478,1.132,2.898,1.925,4.237c1.092,1.668,3.082,4.494,3.082,4.494h32.413
					c5.866-2.023,10.883-5.956,14.25-11.167c5.198-8.473,4.942-14.764,4.942-14.764l-16.882,5.518l-5.519,7.446
					c-4.746,1.465-9.595,2.581-14.506,3.337c-1.861,0.257-7.009,0.77-8.864,0.895
					C-10976.986-582.214-10978.007-582.921-10978.007-582.921L-10978.007-582.921z"/>
				
					<path id="Line_321" fill="none" stroke="#E2231A" stroke-width="4" stroke-linecap="round" stroke-linejoin="round" stroke-miterlimit="10" d="
					M-10958.751-608.66l0.448,24.839"/>
				
					<path id="Line_322" fill="none" stroke="#E2231A" stroke-width="4" stroke-linecap="round" stroke-linejoin="round" stroke-miterlimit="10" d="
					M-10937.441-612.638l-0.449,17.715"/>
				
					<path id="Line_323" fill="none" stroke="#E2231A" stroke-width="4" stroke-linecap="round" stroke-linejoin="round" stroke-miterlimit="10" d="
					M-10960.998-608.402l24.646-4.813"/>
				
					<path id="Line_324" fill="none" stroke="#E2231A" stroke-width="4" stroke-linecap="round" stroke-linejoin="round" stroke-miterlimit="10" d="
					M-10953.809-610.906v-4.878"/>
				
					<path id="Line_325" fill="none" stroke="#E2231A" stroke-width="4" stroke-linecap="round" stroke-linejoin="round" stroke-miterlimit="10" d="
					M-10947.969-611.675v-4.108"/>
				
					<path id="Line_326" fill="none" stroke="#E2231A" stroke-width="4" stroke-linecap="round" stroke-linejoin="round" stroke-miterlimit="10" d="
					M-10953.809-615.784h5.842"/>
				
					<path id="Path_352" fill="none" stroke="#E2231A" stroke-width="4" stroke-linecap="round" stroke-linejoin="round" stroke-miterlimit="10" d="
					M-10952.975-584.782v-16.754c0,0-0.344-4.758,4.215-4.758c2.366-0.123,4.386,1.696,4.509,4.063
					c0.005,0.103,0.007,0.206,0.005,0.31v14.491"/>
				
					<path id="Line_327" fill="none" stroke="#E2231A" stroke-width="4" stroke-linecap="round" stroke-linejoin="round" stroke-miterlimit="10" d="
					M-10969.342-582.729l-0.257-6.996"/>
				
					<path id="Line_328" fill="none" stroke="#E2231A" stroke-width="4" stroke-linecap="round" stroke-linejoin="round" stroke-miterlimit="10" d="
					M-10969.342-589.789l10.912-1.926"/>
			</g>
		</g>
	</g>
</g>
</svg>
