<?xml version="1.0" encoding="utf-8"?>
<!-- Generator: Adobe Illustrator 16.0.0, SVG Export Plug-In . SVG Version: 6.00 Build 0)  -->
<!DOCTYPE svg PUBLIC "-//W3C//DTD SVG 1.1//EN" "http://www.w3.org/Graphics/SVG/1.1/DTD/svg11.dtd">
<svg version="1.1" id="Layer_1" xmlns="http://www.w3.org/2000/svg" xmlns:xlink="http://www.w3.org/1999/xlink" x="0px" y="0px"
	 width="51.885px" height="51.886px" viewBox="0 0 51.885 51.886" enable-background="new 0 0 51.885 51.886" xml:space="preserve">
<g>
	
		<line fill="none" stroke="#E2231A" stroke-width="3" stroke-linecap="round" stroke-linejoin="round" stroke-miterlimit="10" x1="25.102" y1="43.283" x2="35.642" y2="43.283"/>
	<g id="Group_459_140_" transform="translate(.483)">
		<g id="Group_458_102_" transform="translate(180 261.86)">
			<g id="Group_192_102_" transform="translate(173 16.757)">
				
					<path id="Rectangle_192_102_" fill="none" stroke="#020202" stroke-width="3" stroke-linecap="round" stroke-linejoin="round" stroke-miterlimit="10" d="
					M-334.167-261.643h11.579c1.695,0,3.07,1.375,3.07,3.071v11.58c0,1.697-1.375,3.072-3.07,3.072h-11.579
					c-1.696,0-3.072-1.375-3.072-3.072v-11.58C-337.24-260.267-335.864-261.643-334.167-261.643z"/>
				
					<path id="Path_261_102_" fill="none" stroke="#020202" stroke-width="3" stroke-linecap="round" stroke-linejoin="round" stroke-miterlimit="10" d="
					M-328.31-261.706c-0.845-3.339,0.775-6.813,3.877-8.309"/>
				
					<path id="Path_262_102_" fill="none" stroke="#020202" stroke-width="3" stroke-linecap="round" stroke-linejoin="round" stroke-miterlimit="10" d="
					M-324.432-243.479l-0.186,3.953l-3.762,3.192l-3.767-3.192l-0.186-3.953"/>
			</g>
			<g id="Group_200_102_">
				
					<path id="Path_285_98_" fill="none" stroke="#020202" stroke-width="3" stroke-linecap="round" stroke-linejoin="round" stroke-miterlimit="10" d="
					M-157.966-239.066v6.137"/>
				
					<path id="Path_1222_55_" fill="none" stroke="#020202" stroke-width="3" stroke-linecap="round" stroke-linejoin="round" stroke-miterlimit="10" d="
					M-153.108-239.066v6.137"/>
			</g>
		</g>
	</g>
</g>
</svg>
