<?xml version="1.0" encoding="utf-8"?>
<!-- Generator: Adobe Illustrator 23.0.2, SVG Export Plug-In . SVG Version: 6.00 Build 0)  -->
<svg version="1.1" xmlns="http://www.w3.org/2000/svg" xmlns:xlink="http://www.w3.org/1999/xlink" x="0px" y="0px"
	 width="128.943px" height="128.943px" viewBox="0 0 128.943 128.943" enable-background="new 0 0 128.943 128.943"
	 xml:space="preserve">
<g id="Layer_1">
	<g>
		
			<path id="Path_349_2_" fill="none" stroke="#020202" stroke-width="4" stroke-linecap="round" stroke-linejoin="round" stroke-miterlimit="10" d="
			M86.366,111.227H42.576c-5.431-0.066-9.818-4.451-9.887-9.882V32.407h63.564v68.647C96.31,106.584,91.896,111.126,86.366,111.227z
			"/>
		
			<path id="Rectangle_319_2_" fill="none" stroke="#020202" stroke-width="4" stroke-linecap="round" stroke-linejoin="round" stroke-miterlimit="10" d="
			M43.142,11.218h42.942v21.189H43.142V11.218z"/>
		<g id="Group_300-2_2_" transform="translate(12.13 5.54)">
			
				<path id="Rectangle_320_2_" fill="none" stroke="#020202" stroke-width="4" stroke-linecap="round" stroke-linejoin="round" stroke-miterlimit="10" d="
				M37.509,13.024h10.736v6.781H37.509V13.024z"/>
			
				<path id="Rectangle_321_2_" fill="none" stroke="#020202" stroke-width="4" stroke-linecap="round" stroke-linejoin="round" stroke-miterlimit="10" d="
				M56.438,13.024h10.736v6.781H56.438V13.024z"/>
		</g>
		
			<path id="Rectangle_322_2_" fill="none" stroke="#020202" stroke-width="4" stroke-linecap="round" stroke-linejoin="round" stroke-miterlimit="10" d="
			M50.77,111.227h27.121v6.498H50.77V111.227z"/>
		<g id="loader-2_8_">
			
				<path id="Path_220_8_" fill="none" stroke="#F9B621" stroke-width="4" stroke-linecap="round" stroke-linejoin="round" stroke-miterlimit="10" d="
				M67.183,52.223C56.02,50.725,45.757,58.56,44.259,69.723c-0.688,5.126,0.598,10.321,3.596,14.535"/>
			
				<path id="Path_221_8_" fill="none" stroke="#F9B621" stroke-width="4" stroke-linecap="round" stroke-linejoin="round" stroke-miterlimit="10" d="
				M57.273,91.516c10.538,3.975,22.304-1.346,26.279-11.885c2.502-6.634,1.379-14.091-2.965-19.693"/>
			
				<path id="Path_222_8_" fill="none" stroke="#F9B621" stroke-width="4" stroke-linecap="round" stroke-linejoin="round" stroke-miterlimit="10" d="
				M62.258,46.646l5.402,5.401l-5.402,5.402"/>
			
				<path id="Path_223_8_" fill="none" stroke="#F9B621" stroke-width="4" stroke-linecap="round" stroke-linejoin="round" stroke-miterlimit="10" d="
				M61.608,96.988l-5.402-5.401l5.402-5.402"/>
			
				<path id="Ellipse_117_8_" fill="none" stroke="#E1251B" stroke-width="4" stroke-linecap="round" stroke-linejoin="round" stroke-miterlimit="10" d="
				M64.472,69.321c1.72,0,3.114,1.394,3.114,3.114c0,1.719-1.394,3.113-3.114,3.113c-1.719,0-3.113-1.394-3.113-3.113
				C61.359,70.715,62.753,69.321,64.472,69.321z"/>
		</g>
	</g>
</g>
<g id="Capa_2">
</g>
</svg>
