<?xml version="1.0" encoding="utf-8"?>
<!-- Generator: Adobe Illustrator 16.0.0, SVG Export Plug-In . SVG Version: 6.00 Build 0)  -->
<!DOCTYPE svg PUBLIC "-//W3C//DTD SVG 1.1//EN" "http://www.w3.org/Graphics/SVG/1.1/DTD/svg11.dtd">
<svg version="1.1" id="Layer_1" xmlns="http://www.w3.org/2000/svg" xmlns:xlink="http://www.w3.org/1999/xlink" x="0px" y="0px"
	 width="51.885px" height="51.886px" viewBox="0 0 51.885 51.886" enable-background="new 0 0 51.885 51.886" xml:space="preserve">
<g id="Group_459_129_" transform="translate(.483)">
	<g id="Group_456_129_" transform="translate(334.517 283)">
		<g id="Group_438_129_">
			
				<path id="Path_1088_129_" fill="none" stroke="#35A8E0" stroke-width="3" stroke-linecap="round" stroke-linejoin="round" stroke-miterlimit="10" d="
				M-316.846-251.583v-17.468c0-2.342-1.897-4.239-4.239-4.239c-2.341,0-4.239,1.897-4.239,4.239l0,0v17.468
				c-2.833,2.339-3.232,6.535-0.891,9.368c2.341,2.833,6.535,3.231,9.369,0.89c2.833-2.34,3.232-6.535,0.891-9.369
				C-316.224-251.018-316.521-251.316-316.846-251.583z"/>
			<path id="Path_1089_129_" fill="#35A8E0" d="M-319.293-248.398c-0.375-0.338-0.583-0.822-0.572-1.324v-12.146
				c0-0.674-0.546-1.222-1.222-1.222c-0.674,0-1.222,0.548-1.222,1.222v12.318c-0.01,0.454-0.224,0.878-0.58,1.158
				c-1.18,0.992-1.329,2.753-0.336,3.931c0.993,1.178,2.753,1.327,3.932,0.336c1.178-0.994,1.328-2.754,0.335-3.932
				c-0.102-0.121-0.215-0.233-0.335-0.334V-248.398z"/>
		</g>
	</g>
	<g id="Group_458_86_" transform="translate(180 261.86)">
		<g id="Group_192_86_" transform="translate(173 16.757)">
			
				<path id="Rectangle_192_86_" fill="none" stroke="#F9B621" stroke-width="3" stroke-linecap="round" stroke-linejoin="round" stroke-miterlimit="10" d="
				M-323.51-261.558h11.58c1.696,0,3.072,1.375,3.072,3.07v11.58c0,1.696-1.375,3.071-3.072,3.071h-11.58
				c-1.696,0-3.071-1.375-3.071-3.071v-11.58C-326.581-260.184-325.206-261.558-323.51-261.558z"/>
			
				<path id="Path_261_86_" fill="none" stroke="#F9B621" stroke-width="3" stroke-linecap="round" stroke-linejoin="round" stroke-miterlimit="10" d="
				M-317.651-261.622c-0.846-3.339,0.775-6.813,3.877-8.309"/>
			
				<path id="Path_262_86_" fill="none" stroke="#F9B621" stroke-width="3" stroke-linecap="round" stroke-linejoin="round" stroke-miterlimit="10" d="
				M-313.773-243.396l-0.186,3.954l-3.762,3.192l-3.766-3.192l-0.186-3.954"/>
		</g>
		<g id="Group_200_86_">
			
				<path id="Path_285_86_" fill="none" stroke="#F9B621" stroke-width="3" stroke-linecap="round" stroke-linejoin="round" stroke-miterlimit="10" d="
				M-144.878-238.982v6.136"/>
		</g>
	</g>
</g>
</svg>
