<?xml version="1.0" encoding="utf-8"?>
<!-- Generator: Adobe Illustrator 16.0.0, SVG Export Plug-In . SVG Version: 6.00 Build 0)  -->
<!DOCTYPE svg PUBLIC "-//W3C//DTD SVG 1.1//EN" "http://www.w3.org/Graphics/SVG/1.1/DTD/svg11.dtd">
<svg version="1.1" id="Layer_1" xmlns="http://www.w3.org/2000/svg" xmlns:xlink="http://www.w3.org/1999/xlink" x="0px" y="0px"
	 width="128.941px" height="128.943px" viewBox="0 0 128.941 128.943" enable-background="new 0 0 128.941 128.943"
	 xml:space="preserve">
<rect x="0.581" y="0.581" fill="none" stroke="#E5007E" stroke-width="1.1623" stroke-miterlimit="10" width="127.779" height="127.781"/>
<g>
	<g id="Group_399_2_">
		<g id="Group_390_2_" transform="translate(26.5 -4.5)">
			
				<path id="Line_411_2_" fill="none" stroke="#020202" stroke-width="4" stroke-linecap="round" stroke-linejoin="round" stroke-miterlimit="10" d="
				M-5.342,96.405h86.625"/>
			
				<path id="Line_412_2_" fill="none" stroke="#020202" stroke-width="4" stroke-linecap="round" stroke-linejoin="round" stroke-miterlimit="10" d="
				M-5.342,104.925h86.625"/>
		</g>
	</g>
	<g id="Group_433" transform="translate(428 124.365)">
		
			<path id="Path_159" fill="none" stroke="#E2231A" stroke-width="4" stroke-linecap="round" stroke-linejoin="round" stroke-miterlimit="10" d="
			M-362.152-94.591l12.516,21.684l12.307,21.313c1.805,2.489-1.303,4.921-2.414,4.914h-49.646c-3.063,0.317-3.611-3.581-3.055-4.545
			l12.518-21.685l12.307-21.313c1.256-2.807,4.914-1.334,5.465-0.371L-362.152-94.591z"/>
		
			<path id="Path_160" fill="none" stroke="#E2231A" stroke-width="4" stroke-linecap="round" stroke-linejoin="round" stroke-miterlimit="10" d="
			M-365.209-77.26c-2.238,6.038-1.65,8.354,0.203,13.097c1.854,4.743-1.086,9.966-1.086,9.966"/>
		
			<path id="Path_161" fill="none" stroke="#E2231A" stroke-width="4" stroke-linecap="round" stroke-linejoin="round" stroke-miterlimit="10" d="
			M-356.52-64.163c1.848,4.734-1.078,9.966-1.078,9.966"/>
		
			<path id="Path_162" fill="none" stroke="#E2231A" stroke-width="4" stroke-linecap="round" stroke-linejoin="round" stroke-miterlimit="10" d="
			M-373.865-64.163c1.848,4.734-1.076,9.966-1.076,9.966"/>
	</g>
</g>
</svg>
