<?xml version="1.0" encoding="utf-8"?>
<!-- Generator: Adobe Illustrator 16.0.0, SVG Export Plug-In . SVG Version: 6.00 Build 0)  -->
<!DOCTYPE svg PUBLIC "-//W3C//DTD SVG 1.1//EN" "http://www.w3.org/Graphics/SVG/1.1/DTD/svg11.dtd">
<svg version="1.1" id="Layer_1" xmlns="http://www.w3.org/2000/svg" xmlns:xlink="http://www.w3.org/1999/xlink" x="0px" y="0px"
	 width="128.941px" height="128.943px" viewBox="0 0 128.941 128.943" enable-background="new 0 0 128.941 128.943"
	 xml:space="preserve">
<g>
	
		<path id="Path_1056" fill="none" stroke="#020202" stroke-width="4" stroke-linecap="round" stroke-linejoin="round" stroke-miterlimit="10" d="
		M119.148,49.528c-30.199-30.195-79.156-30.195-109.355,0"/>
	
		<path id="Path_1057" fill="none" stroke="#020202" stroke-width="4" stroke-linecap="round" stroke-linejoin="round" stroke-miterlimit="10" d="
		M27.252,66.969c20.561-20.56,53.895-20.561,74.453-0.001c0.002,0.001,0.002,0.001,0.002,0.001"/>
	
		<path id="Path_1058" fill="none" stroke="#020202" stroke-width="4" stroke-linecap="round" stroke-linejoin="round" stroke-miterlimit="10" d="
		M84.34,84.355c-10.943-10.968-28.707-10.986-39.674-0.044c-0.016,0.015-0.031,0.029-0.045,0.044"/>
	
		<path id="Path_1059" fill="none" stroke="#020202" stroke-width="4" stroke-linecap="round" stroke-linejoin="round" stroke-miterlimit="10" d="
		M58.555,99.896c-0.004-3.267,2.639-5.92,5.906-5.925c3.268-0.004,5.92,2.64,5.924,5.906c0.006,3.267-2.639,5.92-5.906,5.925l0,0
		C61.217,105.798,58.57,103.159,58.555,99.896z"/>
</g>
</svg>
