<?xml version="1.0" encoding="utf-8"?>
<!-- Generator: Adobe Illustrator 16.0.0, SVG Export Plug-In . SVG Version: 6.00 Build 0)  -->
<!DOCTYPE svg PUBLIC "-//W3C//DTD SVG 1.1//EN" "http://www.w3.org/Graphics/SVG/1.1/DTD/svg11.dtd">
<svg version="1.1" id="Layer_1" xmlns="http://www.w3.org/2000/svg" xmlns:xlink="http://www.w3.org/1999/xlink" x="0px" y="0px"
	 width="128.941px" height="128.942px" viewBox="0 0 128.941 128.942" enable-background="new 0 0 128.941 128.942"
	 xml:space="preserve">
<g>
	<g>
		
			<path id="Rectangle_526_2_" fill="none" stroke="#E2231A" stroke-width="3.1134" stroke-linecap="round" stroke-linejoin="round" stroke-miterlimit="10" d="
			M34.785,12.411h81.041v81.042H34.785V12.411z"/>
		<g id="Group_415_2_" transform="translate(360.405 182.31)">
			<g id="Group_413_2_" transform="translate(11.178)">
				
					<path id="Line_418_2_" fill="none" stroke="#E2231A" stroke-width="3.1134" stroke-linecap="round" stroke-linejoin="round" stroke-miterlimit="10" d="
					M-321.47-168.789v79.932"/>
				
					<path id="Line_419_2_" fill="none" stroke="#E2231A" stroke-width="3.1134" stroke-linecap="round" stroke-linejoin="round" stroke-miterlimit="10" d="
					M-305.044-167.695v77.741"/>
				
					<path id="Line_420_2_" fill="none" stroke="#E2231A" stroke-width="3.1134" stroke-linecap="round" stroke-linejoin="round" stroke-miterlimit="10" d="
					M-272.194-167.695v77.741"/>
				
					<path id="Line_421_2_" fill="none" stroke="#E2231A" stroke-width="3.1134" stroke-linecap="round" stroke-linejoin="round" stroke-miterlimit="10" d="
					M-288.62-167.695v77.741"/>
			</g>
			<g id="Group_414_2_" transform="rotate(90 23.554 34.732)">
				
					<path id="Line_418-2_2_" fill="none" stroke="#E2231A" stroke-width="3.1134" stroke-linecap="round" stroke-linejoin="round" stroke-miterlimit="10" d="
					M-164.637,303.974v79.932"/>
				
					<path id="Line_419-2_2_" fill="none" stroke="#E2231A" stroke-width="3.1134" stroke-linecap="round" stroke-linejoin="round" stroke-miterlimit="10" d="
					M-148.213,305.068v77.742"/>
				
					<path id="Line_420-2_2_" fill="none" stroke="#E2231A" stroke-width="3.1134" stroke-linecap="round" stroke-linejoin="round" stroke-miterlimit="10" d="
					M-115.364,305.068v77.742"/>
				
					<path id="Line_421-2_2_" fill="none" stroke="#E2231A" stroke-width="3.1134" stroke-linecap="round" stroke-linejoin="round" stroke-miterlimit="10" d="
					M-131.789,305.068v77.742"/>
			</g>
		</g>
	</g>
	<g>
		<g>
			<circle fill="none" stroke="#F9B621" stroke-width="12.3414" cx="75.196" cy="54.624" r="28.996"/>
			<circle fill="none" stroke="#F9B621" stroke-width="12.3414" cx="75.196" cy="54.624" r="22.825"/>
			<path fill="none" stroke="#F9B621" stroke-width="12.3414" d="M23.303,114.958c-2.33,2.33-6.109,2.33-8.441,0l0,0
				c-2.328-2.331-2.328-6.11,0-8.441l27.715-27.713c2.33-2.33,6.109-2.33,8.439,0l0,0c2.33,2.331,2.332,6.11,0,8.439L23.303,114.958
				z"/>
		</g>
		<g>
			
				<circle fill="none" stroke="#020202" stroke-width="3.5261" stroke-linecap="round" stroke-linejoin="round" stroke-miterlimit="10" cx="75.196" cy="54.624" r="28.996"/>
			
				<circle fill="none" stroke="#020202" stroke-width="3.5261" stroke-linecap="round" stroke-linejoin="round" stroke-miterlimit="10" cx="75.196" cy="54.624" r="22.825"/>
			
				<path fill="none" stroke="#020202" stroke-width="3.5261" stroke-linecap="round" stroke-linejoin="round" stroke-miterlimit="10" d="
				M23.303,114.958c-2.33,2.33-6.109,2.33-8.441,0l0,0c-2.328-2.331-2.328-6.11,0-8.441l27.715-27.713c2.33-2.33,6.109-2.33,8.439,0
				l0,0c2.33,2.331,2.332,6.11,0,8.439L23.303,114.958z"/>
		</g>
	</g>
</g>
</svg>
