<?xml version="1.0" encoding="utf-8"?>
<!-- Generator: Adobe Illustrator 16.0.0, SVG Export Plug-In . SVG Version: 6.00 Build 0)  -->
<!DOCTYPE svg PUBLIC "-//W3C//DTD SVG 1.1//EN" "http://www.w3.org/Graphics/SVG/1.1/DTD/svg11.dtd">
<svg version="1.1" id="Layer_1" xmlns="http://www.w3.org/2000/svg" xmlns:xlink="http://www.w3.org/1999/xlink" x="0px" y="0px"
	 width="128.942px" height="128.942px" viewBox="0 0 128.942 128.942" enable-background="new 0 0 128.942 128.942"
	 xml:space="preserve">
<path id="Path_310_3_" fill="none" stroke="#020202" stroke-width="4" stroke-linecap="round" stroke-linejoin="round" stroke-miterlimit="10" d="
	M28.654,9.505h71.634l9.218,10.638v88.656l-9.218,10.639H28.654l-9.218-10.639V20.143L28.654,9.505z"/>
<path id="Rectangle_595_4_" fill="none" stroke="#020202" stroke-width="4" stroke-linecap="round" stroke-linejoin="round" stroke-miterlimit="10" d="
	M80.949,20.945h9.779c2.489,0,4.507,2.019,4.507,4.508v1.269c0,2.489-2.018,4.508-4.507,4.508h-9.779
	c-2.49,0-4.507-2.019-4.507-4.508v-1.269C76.441,22.964,78.459,20.945,80.949,20.945z"/>
<g id="loader-2_2_">
	
		<path id="Path_220_2_" fill="none" stroke="#F9B621" stroke-width="4" stroke-linecap="round" stroke-linejoin="round" stroke-miterlimit="10" d="
		M68.527,47.668c-14.763-1.981-28.336,8.381-30.317,23.144C37.3,77.591,39,84.462,42.966,90.035"/>
	
		<path id="Path_221_2_" fill="none" stroke="#F9B621" stroke-width="4" stroke-linecap="round" stroke-linejoin="round" stroke-miterlimit="10" d="
		M55.421,99.635c13.938,5.257,29.498-1.78,34.755-15.718c3.309-8.773,1.824-18.636-3.921-26.045"/>
	
		<path id="Path_222_2_" fill="none" stroke="#F9B621" stroke-width="4" stroke-linecap="round" stroke-linejoin="round" stroke-miterlimit="10" d="
		M62.014,40.292l7.144,7.144l-7.144,7.145"/>
	
		<path id="Path_223_2_" fill="none" stroke="#F9B621" stroke-width="4" stroke-linecap="round" stroke-linejoin="round" stroke-miterlimit="10" d="
		M61.154,106.871l-7.145-7.144l7.145-7.145"/>
	
		<circle id="Ellipse_117_2_" fill="none" stroke="#E2231A" stroke-width="4" stroke-linecap="round" stroke-linejoin="round" stroke-miterlimit="10" cx="64.942" cy="74.398" r="4.118"/>
</g>
</svg>
