<?xml version="1.0" encoding="utf-8"?>
<!-- Generator: Adobe Illustrator 16.0.0, SVG Export Plug-In . SVG Version: 6.00 Build 0)  -->
<!DOCTYPE svg PUBLIC "-//W3C//DTD SVG 1.1//EN" "http://www.w3.org/Graphics/SVG/1.1/DTD/svg11.dtd">
<svg version="1.1" id="Layer_1" xmlns="http://www.w3.org/2000/svg" xmlns:xlink="http://www.w3.org/1999/xlink" x="0px" y="0px"
	 width="84.345px" height="84.345px" viewBox="0 0 84.345 84.345" enable-background="new 0 0 84.345 84.345" xml:space="preserve">
<g id="Group_333" transform="translate(-8.5 3.222)">
	<g id="Group_261" transform="translate(14837.5 2197.513)">
		<g id="Group_255">
			
				<path id="Rectangle_261" fill="none" stroke="#020202" stroke-width="3" stroke-linecap="round" stroke-linejoin="round" stroke-miterlimit="10" d="
				M-14814.729-2170.575h19.176c2.903,0,5.258,2.354,5.258,5.258v19.175c0,2.903-2.354,5.257-5.258,5.257h-19.176
				c-2.903,0-5.258-2.354-5.258-5.257v-19.175C-14819.986-2168.221-14817.632-2170.575-14814.729-2170.575z"/>
			
				<path id="Path_318" fill="none" stroke="#020202" stroke-width="3" stroke-linecap="round" stroke-linejoin="round" stroke-miterlimit="10" d="
				M-14804.596-2171.036c-3.574-22.923,27.781-24.905,27.781,0.485"/>
			
				<path id="Path_319" fill="none" stroke="#020202" stroke-width="3" stroke-linecap="round" stroke-linejoin="round" stroke-miterlimit="10" d="
				M-14800.576-2140.498l-0.193,4.101l-3.911,3.322l-3.904-3.322l-0.193-4.101"/>
			<g id="Group_254_26_" transform="translate(5.765 25.517)">
				<g id="Group_331_24_">
					
						<path id="Line_365_22_" fill="none" stroke="#020202" stroke-width="3.101" stroke-linecap="round" stroke-linejoin="round" stroke-miterlimit="10" d="
						M-14820.513-2179.031h18.47"/>
					
						<path id="Line_366_9_" fill="none" stroke="#020202" stroke-width="3.101" stroke-linecap="round" stroke-linejoin="round" stroke-miterlimit="10" d="
						M-14820.513-2184.669h18.47"/>
					
						<path id="Line_367_4_" fill="none" stroke="#020202" stroke-width="3.101" stroke-linecap="round" stroke-linejoin="round" stroke-miterlimit="10" d="
						M-14820.513-2173.393h18.47"/>
				</g>
			</g>
		</g>
	</g>
	
		<path id="Line_368" fill="none" stroke="#E2231A" stroke-width="3" stroke-linecap="round" stroke-linejoin="round" stroke-miterlimit="10" d="
		M21.25,70.959h62.581"/>
	<g id="Group_332" transform="translate(14876.607 2195.778)">
		
			<path id="Path_311" fill="none" stroke="#E2231A" stroke-width="3" stroke-linecap="round" stroke-linejoin="round" stroke-miterlimit="10" d="
			M-14812.842-2181.088l7.919-7.919l7.919,7.919"/>
		
			<path id="Path_312" fill="none" stroke="#E2231A" stroke-width="3" stroke-linecap="round" stroke-linejoin="round" stroke-miterlimit="10" d="
			M-14797.004-2133.283l-7.919,7.918l-7.919-7.918"/>
		<g id="Group_251" transform="rotate(-90 22.941 22.941)">
			
				<path id="Path_274" fill="none" stroke="#E2231A" stroke-width="3" stroke-linecap="round" stroke-linejoin="round" stroke-miterlimit="10" d="
				M2197.736-14816.291l3.916,0.351l0.898,2.729l0.78,0.112l3.112-1.287l2.519,3.021l-1.292,2.563l0.473,0.627l3.111,1.293
				l-0.355,3.919l-2.725,0.898l-0.11,0.774l1.288,3.111l-3.02,2.518l-2.565-1.29l-0.625,0.471l-1.297,3.112l-3.914-0.355
				l-0.908-2.718l-0.776-0.108l-3.111,1.286l-2.524-3.028l1.291-2.563l-0.471-0.627l-3.108-1.295l0.354-3.915l2.724-0.9l0.113-0.775
				l-1.286-3.11l3.022-2.519l2.562,1.286l0.626-0.473L2197.736-14816.291z"/>
			
				<ellipse id="Ellipse_143" transform="matrix(-2.547107e-006 -1 1 -2.547107e-006 17004.6211 -12605.0742)" fill="none" stroke="#E2231A" stroke-width="3" stroke-linecap="round" stroke-linejoin="round" stroke-miterlimit="10" cx="2199.789" cy="-14804.826" rx="2.268" ry="2.268"/>
		</g>
		
			<path id="Line_329" fill="none" stroke="#E2231A" stroke-width="3" stroke-linecap="round" stroke-linejoin="round" stroke-miterlimit="10" d="
			M-14804.784-2142.564v16.812"/>
		
			<path id="Line_330" fill="none" stroke="#E2231A" stroke-width="3" stroke-linecap="round" stroke-linejoin="round" stroke-miterlimit="10" d="
			M-14805.026-2187.419v22.042"/>
	</g>
</g>
</svg>
