<?xml version="1.0" encoding="utf-8"?>
<!-- Generator: Adobe Illustrator 16.0.0, SVG Export Plug-In . SVG Version: 6.00 Build 0)  -->
<!DOCTYPE svg PUBLIC "-//W3C//DTD SVG 1.1//EN" "http://www.w3.org/Graphics/SVG/1.1/DTD/svg11.dtd">
<svg version="1.1" id="Layer_1" xmlns="http://www.w3.org/2000/svg" xmlns:xlink="http://www.w3.org/1999/xlink" x="0px" y="0px"
	 width="84.346px" height="84.345px" viewBox="0 0 84.346 84.345" enable-background="new 0 0 84.346 84.345" xml:space="preserve">
<g>
	
		<path id="Path_1216_2_" fill="none" stroke="#E2231A" stroke-width="3" stroke-linecap="round" stroke-linejoin="round" stroke-miterlimit="10" d="
		M64.617,32.662c-1.975-3.891-6.729-5.444-10.621-3.471c-3.893,1.975-5.443,6.73-3.471,10.622c1.969,3.878,6.703,5.437,10.59,3.486
		c3.879-1.893,5.488-6.57,3.596-10.448C64.682,32.787,64.648,32.724,64.617,32.662z M42.152,53.365
		c-0.205-0.349-0.094-0.167-0.289-0.502c0.225-1.25,0.67-2.451,1.316-3.542c0.979-1.448,0.926-3.357-0.131-4.748
		c-0.584-1.146-1.736-1.893-3.02-1.958c-1.516-0.095-4.111-0.059-4.506-0.736c-0.391-0.676-0.07-0.131-0.287-0.501
		c-0.215-0.372,0.082-5.719,0.123-8.585c0.021-1.229,0.271-1.507,1.535-1.702c1.557-0.233,3.121-0.431,4.664-0.727
		c0.406-0.12,0.76-0.375,0.996-0.729c0.537-0.786,0.918-1.667,1.469-2.431c0.357-0.421,0.432-1.016,0.189-1.513
		c-0.598-1.41-1.15-2.837-1.74-4.263c-0.379-0.916-0.232-1.397,0.678-1.927c2.371-1.383,4.744-2.754,7.121-4.111
		c0.932-0.531,1.418-0.4,2.074,0.457c0.938,1.216,1.861,2.438,2.859,3.598c0.301,0.295,0.697,0.473,1.119,0.502
		c1.043,0.059,2.09,0.059,3.135,0c0.365-0.027,0.707-0.184,0.967-0.442c1.039-1.224,2.021-2.496,3.021-3.754
		c0.793-0.997,1.164-1.069,2.232-0.474c2.502,1.398,7.246,3.743,7.5,4.184c0.252,0.441,0.08,0.144,0.287,0.501
		c-0.256,1.372-0.752,2.688-1.469,3.885c-0.643,1.398-0.543,3.025,0.262,4.335c0.543,1.127,1.633,1.894,2.877,2.023
		c1.572,0.102,4.039-0.365,4.68,0.743c0.641,1.105-0.248-0.422,0.287,0.501c0.535,0.923-0.094,5.783-0.143,8.671
		c-0.016,1.122-0.264,1.405-1.418,1.583c-1.623,0.262-3.244,0.48-4.861,0.772c-0.352,0.097-0.658,0.316-0.863,0.619
		c-0.572,0.875-1.096,1.781-1.572,2.714c-0.191,0.341-0.25,0.744-0.158,1.126c0.51,1.439,1.15,2.838,1.658,4.294
		c0.176,0.523,0.434,1.527,0.088,1.726c-0.344,0.198-8.09,4.677-8.408,4.859c-0.318,0.181-0.998-0.35-1.295-0.69
		c-0.996-1.165-1.914-2.401-2.846-3.616c-0.299-0.501-0.877-0.77-1.455-0.676c-0.936,0.11-1.898-0.014-2.836,0.057
		c-0.428,0.029-0.828,0.207-1.137,0.502c-1.031,1.193-1.984,2.446-2.961,3.675c-0.791,0.996-1.172,1.076-2.24,0.479
		c-2.504-1.395-7.305-3.839-7.5-4.182L42.152,53.365z"/>
	
		<path id="Path_1216_3_" fill="none" stroke="#020202" stroke-width="3" stroke-linecap="round" stroke-linejoin="round" stroke-miterlimit="10" d="
		M23.553,55.309c0.719-2.2-0.48-4.567-2.682-5.287c-2.201-0.718-4.568,0.483-5.287,2.683c-0.717,2.195,0.475,4.555,2.666,5.281
		c2.164,0.745,4.523-0.407,5.268-2.57C23.529,55.38,23.541,55.344,23.553,55.309z M4.027,54.821
		c0.068-0.264,0.035-0.124,0.104-0.376c0.703-0.49,1.488-0.85,2.318-1.063c1.158-0.224,2.045-1.161,2.205-2.329
		c0.268-0.826,0.074-1.732-0.508-2.376c-0.678-0.768-1.936-1.99-1.799-2.501c0.137-0.509,0.027-0.097,0.102-0.377
		c0.074-0.281,2.77-2.691,4.158-4.04c0.596-0.576,0.848-0.589,1.545-0.08c0.854,0.632,1.695,1.285,2.574,1.879
		c0.25,0.137,0.541,0.182,0.822,0.127c0.633-0.118,1.234-0.357,1.861-0.458c0.373-0.031,0.691-0.28,0.813-0.633
		c0.389-0.959,0.807-1.904,1.205-2.865c0.256-0.618,0.557-0.779,1.244-0.597c1.793,0.472,3.58,0.95,5.363,1.437
		c0.697,0.192,0.867,0.486,0.771,1.209c-0.133,1.028-0.275,2.052-0.354,3.082c0.004,0.285,0.107,0.558,0.295,0.774
		c0.471,0.527,0.971,1.025,1.498,1.497c0.188,0.161,0.424,0.25,0.672,0.25c1.08-0.087,2.156-0.227,3.234-0.351
		c0.855-0.098,1.066,0.046,1.293,0.839c0.527,1.862,1.672,5.247,1.582,5.579c-0.09,0.331-0.029,0.106-0.102,0.376
		c-0.777,0.533-1.643,0.925-2.555,1.154c-0.975,0.361-1.705,1.184-1.945,2.195c-0.279,0.797-0.125,1.684,0.406,2.339
		c0.703,0.798,2.102,1.752,1.881,2.587c-0.223,0.834,0.082-0.32-0.104,0.377c-0.184,0.697-2.805,2.716-4.207,4.072
		c-0.543,0.528-0.797,0.544-1.434,0.079c-0.9-0.65-1.777-1.32-2.689-1.952c-0.213-0.122-0.465-0.164-0.707-0.118
		c-0.691,0.144-1.373,0.328-2.045,0.547c-0.256,0.071-0.477,0.235-0.615,0.462c-0.443,0.929-0.805,1.903-1.258,2.841
		c-0.166,0.333-0.523,0.935-0.781,0.866c-0.26-0.07-6.096-1.629-6.334-1.696c-0.24-0.065-0.309-0.643-0.289-0.946
		c0.08-1.032,0.232-2.061,0.367-3.084c0.096-0.383-0.051-0.786-0.371-1.018c-0.5-0.395-0.9-0.913-1.383-1.327
		c-0.217-0.19-0.492-0.296-0.781-0.302c-1.063,0.077-2.115,0.22-3.168,0.339c-0.854,0.098-1.074-0.045-1.297-0.84
		c-0.531-1.861-1.656-5.321-1.586-5.578H4.027z"/>
</g>
</svg>
