<?xml version="1.0" encoding="utf-8"?>
<!-- Generator: Adobe Illustrator 23.0.2, SVG Export Plug-In . SVG Version: 6.00 Build 0)  -->
<svg version="1.1" id="Layer_1" xmlns="http://www.w3.org/2000/svg" xmlns:xlink="http://www.w3.org/1999/xlink" x="0px" y="0px"
	 width="21.6px" height="51.9px" viewBox="0 0 21.6 51.9" style="enable-background:new 0 0 21.6 51.9;" xml:space="preserve">
<style type="text/css">
	.st0{fill:none;stroke:#F9B621;stroke-width:3;stroke-linecap:round;stroke-linejoin:round;stroke-miterlimit:10;}
</style>
<g id="Group_459_123_" transform="translate(.483)">
	<g id="Group_458_82_" transform="translate(180 261.86)">
		<g id="Group_192_82_" transform="translate(173 16.757)">
			<path id="Rectangle_192_82_" class="st0" d="M-348.5-261.6h11.6c1.7,0,3.1,1.4,3.1,3.1v11.6c0,1.7-1.4,3.1-3.1,3.1h-11.6
				c-1.7,0-3.1-1.4-3.1-3.1v-11.6C-351.6-260.2-350.2-261.6-348.5-261.6z"/>
			<path id="Path_261_82_" class="st0" d="M-342.7-261.6c-0.8-3.3,0.8-6.8,3.9-8.3"/>
			<path id="Path_262_82_" class="st0" d="M-338.8-243.4l-0.2,4l-3.8,3.2l-3.8-3.2l-0.2-4"/>
		</g>
		<g id="Group_200_82_">
			<path id="Path_285_82_" class="st0" d="M-169.9-239v6.1"/>
		</g>
	</g>
</g>
</svg>
