<?xml version="1.0" encoding="utf-8"?>
<!-- Generator: Adobe Illustrator 16.0.0, SVG Export Plug-In . SVG Version: 6.00 Build 0)  -->
<!DOCTYPE svg PUBLIC "-//W3C//DTD SVG 1.1//EN" "http://www.w3.org/Graphics/SVG/1.1/DTD/svg11.dtd">
<svg version="1.1" id="Layer_1" xmlns="http://www.w3.org/2000/svg" xmlns:xlink="http://www.w3.org/1999/xlink" x="0px" y="0px"
	 width="31.522px" height="32.415px" viewBox="0 0 31.522 32.415" enable-background="new 0 0 31.522 32.415" xml:space="preserve">
<g id="Group_460_63_" transform="translate(354.517 276.598)">
	<g id="Group_178_63_" transform="translate(0 22.243)">
		
			<path id="Path_267_63_" fill="none" stroke="#1D1D1B" stroke-width="2" stroke-linecap="round" stroke-linejoin="round" stroke-miterlimit="10" d="
			M-338.864-281.523l6.044,4.037l-5.827,3.892l-6.045-4.036L-338.864-281.523z"/>
	</g>
	
		<path id="Path_268_63_" fill="none" stroke="#1D1D1B" stroke-width="2" stroke-linecap="round" stroke-linejoin="round" stroke-miterlimit="10" d="
		M-338.774-272.187c-1.519,2.555-0.864,3.411,0.564,5.39c1.428,1.98-0.833,4.168-0.833,4.168"/>
	
		<path id="Path_269_66_" fill="none" stroke="#1D1D1B" stroke-width="2" stroke-linecap="round" stroke-linejoin="round" stroke-miterlimit="10" d="
		M-343.658-269.309c-1.283,1.963-0.731,2.624,0.48,4.143c1.211,1.519-0.707,3.201-0.707,3.201"/>
	
		<path id="Path_270_63_" fill="none" stroke="#1D1D1B" stroke-width="2" stroke-linecap="round" stroke-linejoin="round" stroke-miterlimit="10" d="
		M-333.699-269.309c-1.284,1.963-0.729,2.624,0.479,4.143c1.207,1.519-0.706,3.201-0.706,3.201"/>
</g>
</svg>
