<?xml version="1.0" encoding="utf-8"?>
<!-- Generator: Adobe Illustrator 16.0.0, SVG Export Plug-In . SVG Version: 6.00 Build 0)  -->
<!DOCTYPE svg PUBLIC "-//W3C//DTD SVG 1.1//EN" "http://www.w3.org/Graphics/SVG/1.1/DTD/svg11.dtd">
<svg version="1.1" id="Layer_1" xmlns="http://www.w3.org/2000/svg" xmlns:xlink="http://www.w3.org/1999/xlink" x="0px" y="0px"
	 width="32.178px" height="50.998px" viewBox="0 0 32.178 50.998" enable-background="new 0 0 32.178 50.998" xml:space="preserve">
<g id="Group_458_24_" transform="translate(180 261.86)">
	<g>
		<g id="Group_192_108_" transform="translate(173 16.757)">
			
				<path id="Rectangle_192_108_" fill="none" stroke="#1D1D1B" stroke-width="3" stroke-linecap="round" stroke-linejoin="round" stroke-miterlimit="10" d="
				M-342.701-261.585h11.579c1.696,0,3.071,1.374,3.071,3.07v11.58c0,1.697-1.375,3.072-3.071,3.072h-11.579
				c-1.696,0-3.072-1.375-3.072-3.072v-11.58C-345.772-260.211-344.397-261.585-342.701-261.585z"/>
			
				<path id="Path_261_108_" fill="none" stroke="#1D1D1B" stroke-width="3" stroke-linecap="round" stroke-linejoin="round" stroke-miterlimit="10" d="
				M-336.843-261.649c-0.845-3.338,0.775-6.812,3.877-8.309"/>
			
				<path id="Path_262_108_" fill="none" stroke="#1D1D1B" stroke-width="3" stroke-linecap="round" stroke-linejoin="round" stroke-miterlimit="10" d="
				M-332.964-243.423l-0.186,3.954l-3.762,3.192l-3.766-3.192l-0.186-3.954"/>
		</g>
		<g id="Group_200_108_">
			
				<path id="Path_285_106_" fill="none" stroke="#1D1D1B" stroke-width="3" stroke-linecap="round" stroke-linejoin="round" stroke-miterlimit="10" d="
				M-166.499-239.009v6.136"/>
			
				<path id="Path_1222_59_" fill="none" stroke="#1D1D1B" stroke-width="3" stroke-linecap="round" stroke-linejoin="round" stroke-miterlimit="10" d="
				M-161.641-239.009v6.136"/>
		</g>
	</g>
</g>
</svg>
