<?xml version="1.0" encoding="utf-8"?>
<!-- Generator: Adobe Illustrator 22.0.0, SVG Export Plug-In . SVG Version: 6.00 Build 0)  -->
<svg version="1.1" id="Layer_1" xmlns="http://www.w3.org/2000/svg" xmlns:xlink="http://www.w3.org/1999/xlink" x="0px" y="0px"
	 width="84.344px" height="84.345px" viewBox="0 0 84.344 84.345" enable-background="new 0 0 84.344 84.345" xml:space="preserve">
<path id="Path_350_4_" fill="none" stroke="#E1251B" stroke-width="3" stroke-linecap="round" stroke-linejoin="round" stroke-miterlimit="10" d="
	M69.691,65.859l-5.142,4.762l-5.226-4.839"/>
<path id="Line_309_4_" fill="none" stroke="#E1251B" stroke-width="3" stroke-linecap="round" stroke-linejoin="round" stroke-miterlimit="10" d="
	M64.507,70.622V57.809"/>
<circle fill="none" stroke="#E1251B" stroke-width="3" stroke-linecap="round" stroke-linejoin="round" stroke-miterlimit="10" cx="64.507" cy="64.215" r="12.012"/>
<g>
	<path fill="none" stroke="#020202" stroke-width="3" stroke-linecap="round" stroke-linejoin="round" stroke-miterlimit="10" d="
		M72.876,50.301c0.685-2.594,1.05-5.319,1.05-8.129c0-17.537-14.217-31.754-31.754-31.754S10.418,24.635,10.418,42.173
		s14.217,31.754,31.754,31.754c3.083,0,6.064-0.439,8.883-1.259"/>
	<path fill="none" stroke="#020202" stroke-width="3" stroke-linecap="round" stroke-linejoin="round" stroke-miterlimit="10" d="
		M59.775,48.886c1.94-17.765-3.927-38.467-17.603-38.467c-23.952,0-23.952,63.509,0,63.509c3.04,0,5.695-1.023,7.963-2.81"/>
	
		<line fill="none" stroke="#020202" stroke-width="3" stroke-linecap="round" stroke-linejoin="round" stroke-miterlimit="10" x1="42.172" y1="10.418" x2="42.172" y2="73.886"/>
	
		<line fill="none" stroke="#020202" stroke-width="3" stroke-linecap="round" stroke-linejoin="round" stroke-miterlimit="10" x1="10.418" y1="42.152" x2="73.926" y2="42.152"/>
	
		<line fill="none" stroke="#020202" stroke-width="3" stroke-linecap="round" stroke-linejoin="round" stroke-miterlimit="10" x1="14.677" y1="26.296" x2="69.668" y2="26.296"/>
	
		<line fill="none" stroke="#020202" stroke-width="3" stroke-linecap="round" stroke-linejoin="round" stroke-miterlimit="10" x1="14.677" y1="58.009" x2="49.945" y2="58.009"/>
</g>
</svg>
