<?xml version="1.0" encoding="utf-8"?>
<!-- Generator: Adobe Illustrator 22.0.0, SVG Export Plug-In . SVG Version: 6.00 Build 0)  -->
<svg version="1.1" id="Layer_1" xmlns="http://www.w3.org/2000/svg" xmlns:xlink="http://www.w3.org/1999/xlink" x="0px" y="0px"
	 width="84.344px" height="84.345px" viewBox="0 0 84.344 84.345" enable-background="new 0 0 84.344 84.345" xml:space="preserve">
<g>
	
		<path id="Path_310_6_" fill="none" stroke="#020202" stroke-width="3" stroke-linecap="round" stroke-linejoin="round" stroke-miterlimit="10" d="
		M23.824,14.014H60.52l4.722,5.45v45.416l-4.722,5.45H23.824l-4.722-5.45V19.465L23.824,14.014z"/>
	
		<path id="Rectangle_595_7_" fill="none" stroke="#020202" stroke-width="3" stroke-linecap="round" stroke-linejoin="round" stroke-miterlimit="10" d="
		M50.614,19.876h5.009c1.275,0,2.309,1.034,2.309,2.309v0.65c0,1.276-1.034,2.309-2.309,2.309h-5.009
		c-1.275,0-2.309-1.034-2.309-2.309v-0.65C48.304,20.909,49.338,19.876,50.614,19.876z"/>
	<g>
		
			<path fill="#E1251B" stroke="#E1251B" stroke-width="3" stroke-linecap="round" stroke-linejoin="round" stroke-miterlimit="10" d="
			M27.199,45.571v-0.325l8.921-4.902v1.208l-7.109,3.856l7.109,3.857v1.208L27.199,45.571z"/>
		
			<path fill="#E1251B" stroke="#E1251B" stroke-width="3" stroke-linecap="round" stroke-linejoin="round" stroke-miterlimit="10" d="
			M44.693,34.861h1.162l-6.76,21.466h-1.162L44.693,34.861z"/>
		
			<path fill="#E1251B" stroke="#E1251B" stroke-width="3" stroke-linecap="round" stroke-linejoin="round" stroke-miterlimit="10" d="
			M48.224,49.265l7.109-3.857l-7.109-3.856v-1.208l8.921,4.902v0.325l-8.921,4.902V49.265z"/>
	</g>
</g>
</svg>
