<?xml version="1.0" encoding="utf-8"?>
<!-- Generator: Adobe Illustrator 16.0.0, SVG Export Plug-In . SVG Version: 6.00 Build 0)  -->
<!DOCTYPE svg PUBLIC "-//W3C//DTD SVG 1.1//EN" "http://www.w3.org/Graphics/SVG/1.1/DTD/svg11.dtd">
<svg version="1.1" id="Layer_1" xmlns="http://www.w3.org/2000/svg" xmlns:xlink="http://www.w3.org/1999/xlink" x="0px" y="0px"
	 width="210.653px" height="129.268px" viewBox="0 0 210.653 129.268" enable-background="new 0 0 210.653 129.268"
	 xml:space="preserve">
<g id="Group_308" transform="rotate(90 6177.784 -4503.025)">
	<g id="Group_307">
		
			<path id="Path_398" fill="none" stroke="#E2231A" stroke-width="4" stroke-linecap="round" stroke-linejoin="round" stroke-miterlimit="10" d="
			M10700.287,1631.559l-8.493,7.87l-8.63-7.998"/>
		
			<path id="Line_355" fill="none" stroke="#E2231A" stroke-width="4" stroke-linecap="round" stroke-linejoin="round" stroke-miterlimit="10" d="
			M10691.832,1635.926v-41.88"/>
		
			<path id="Path_399" fill="none" stroke="#E2231A" stroke-width="4" stroke-linecap="round" stroke-linejoin="round" stroke-miterlimit="10" d="
			M10691.838,1568.471c0-35.896,29.103-64.994,64.995-64.996"/>
		
			<path id="Path_400" fill="none" stroke="#E2231A" stroke-width="4" stroke-linecap="round" stroke-linejoin="round" stroke-miterlimit="10" d="
			M10700.337,1560.598l-8.493,7.873l-8.643-7.999"/>
		
			<ellipse id="Ellipse_187" transform="matrix(2.578893e-006 1 -1 2.578893e-006 12265.7744 -9258.3105)" fill="none" stroke="#E2231A" stroke-width="4" stroke-linecap="round" stroke-linejoin="round" stroke-miterlimit="10" cx="10762.055" cy="1503.748" rx="4.313" ry="4.313"/>
		
			<ellipse id="Ellipse_188" transform="matrix(2.578893e-006 1 -1 2.578893e-006 12281.5381 -9102.1016)" fill="none" stroke="#E2231A" stroke-width="4" stroke-linecap="round" stroke-linejoin="round" stroke-miterlimit="10" cx="10691.832" cy="1589.734" rx="4.313" ry="4.313"/>
	</g>
	<g id="Group_304">
		
			<path id="Line_353" fill="none" stroke="#020202" stroke-width="4" stroke-linecap="round" stroke-linejoin="round" stroke-miterlimit="10" d="
			M10712.486,1635.606v-66.44"/>
		<g id="Group_303" transform="translate(10875.5 1448.631)">
			
				<ellipse id="Ellipse_173_1_" transform="matrix(2.578893e-006 1 -1 2.578893e-006 2.7624 238.8399)" fill="none" stroke="#020202" stroke-width="4" stroke-linecap="round" stroke-linejoin="round" stroke-miterlimit="10" cx="-118.039" cy="120.801" rx="44.974" ry="44.974"/>
			
				<ellipse id="Ellipse_176_1_" transform="matrix(2.578893e-006 1 -1 2.578893e-006 2.7629 238.8404)" fill="none" stroke="#020202" stroke-width="4" stroke-linecap="round" stroke-linejoin="round" stroke-miterlimit="10" cx="-118.039" cy="120.802" rx="12.92" ry="12.92"/>
			<g id="Group_264_1_" transform="translate(14.551 27.015)">
				
					<path id="Path_323_1_" fill="none" stroke="#020202" stroke-width="4" stroke-linecap="round" stroke-linejoin="round" stroke-miterlimit="10" d="
					M-143.817,71.945c0.789,1.317,2.397,1.896,3.845,1.384c4.855-1.845,10.218-1.845,15.073,0c1.448,0.513,3.056-0.066,3.845-1.384
					l3.538-6.307c0.819-1.461,0.299-3.311-1.163-4.13c-0.12-0.067-0.244-0.126-0.372-0.177c-8.581-3.486-18.184-3.486-26.765,0
					c-1.602,0.731-2.308,2.624-1.577,4.226c0.013,0.027,0.026,0.054,0.039,0.081L-143.817,71.945z"/>
			</g>
			<g id="Group_265_1_" transform="translate(14.402 64.263)">
				
					<path id="Path_324_1_" fill="none" stroke="#020202" stroke-width="4" stroke-linecap="round" stroke-linejoin="round" stroke-miterlimit="10" d="
					M-121.059,78.534c-0.789-1.318-2.397-1.897-3.845-1.385c-4.855,1.846-10.218,1.846-15.074,0
					c-1.447-0.513-3.056,0.066-3.845,1.385l-3.538,6.307c-0.818,1.462-0.297,3.311,1.165,4.13c0.121,0.067,0.246,0.126,0.374,0.177
					c8.581,3.487,18.184,3.487,26.764,0c1.603-0.731,2.308-2.623,1.576-4.226c-0.012-0.027-0.024-0.055-0.038-0.081L-121.059,78.534
					z"/>
			</g>
			<g id="Group_266_1_" transform="translate(1.146 40.271)">
				
					<path id="Path_325_1_" fill="none" stroke="#020202" stroke-width="4" stroke-linecap="round" stroke-linejoin="round" stroke-miterlimit="10" d="
					M-141.025,91.913c1.317-0.789,1.896-2.397,1.384-3.845c-1.846-4.855-1.846-10.219,0-15.074c0.512-1.447-0.067-3.056-1.384-3.845
					l-6.307-3.539c-1.462-0.819-3.311-0.298-4.13,1.164c-0.067,0.121-0.126,0.245-0.177,0.373c-3.486,8.581-3.486,18.183,0,26.764
					c0.731,1.603,2.623,2.309,4.226,1.576c0.027-0.012,0.055-0.025,0.081-0.038L-141.025,91.913z"/>
			</g>
			<g id="Group_267_1_" transform="translate(38.394 40.42)">
				
					<path id="Path_326_1_" fill="none" stroke="#020202" stroke-width="4" stroke-linecap="round" stroke-linejoin="round" stroke-miterlimit="10" d="
					M-134.437,69.154c-1.317,0.789-1.897,2.397-1.385,3.846c1.846,4.854,1.846,10.218,0,15.073
					c-0.512,1.447,0.067,3.056,1.385,3.845l6.307,3.537c1.462,0.819,3.312,0.298,4.13-1.164c0.067-0.12,0.126-0.245,0.177-0.373
					c3.486-8.58,3.486-18.183,0-26.763c-0.731-1.603-2.623-2.309-4.226-1.576c-0.027,0.012-0.055,0.024-0.081,0.037L-134.437,69.154
					z"/>
			</g>
		</g>
	</g>
</g>
</svg>
