<?xml version="1.0" encoding="utf-8"?>
<!-- Generator: Adobe Illustrator 23.0.2, SVG Export Plug-In . SVG Version: 6.00 Build 0)  -->
<svg version="1.1" id="Layer_1" xmlns="http://www.w3.org/2000/svg" xmlns:xlink="http://www.w3.org/1999/xlink" x="0px" y="0px"
	 width="84.3px" height="84.3px" viewBox="0 0 84.3 84.3" style="enable-background:new 0 0 84.3 84.3;" xml:space="preserve">
<style type="text/css">
	.st0{fill:none;stroke:#020202;stroke-width:3;stroke-linecap:round;stroke-linejoin:round;stroke-miterlimit:10;}
	.st1{fill:none;stroke:#F9B621;stroke-width:5.44;}
	.st2{fill:none;stroke:#E2231A;stroke-width:2.176;stroke-linecap:round;stroke-linejoin:round;stroke-miterlimit:10;}
	.st3{fill:none;}
</style>
<g>
	<g>
		<rect x="24.2" y="37" class="st0" width="35.9" height="26.4"/>
		<rect x="39.7" y="13.8" class="st0" width="4.9" height="13.5"/>
		<path class="st0" d="M62.6,33.9c0,1.7-1.4,3.1-3.1,3.1H24.9c-1.7,0-3.1-1.4-3.1-3.1v-0.8c0-1.7,1.4-3.1,3.1-3.1h34.5
			c1.7,0,3.1,1.4,3.1,3.1C62.6,33.1,62.6,33.9,62.6,33.9z"/>
		<path class="st0" d="M62.6,67.3c0,1.7-1.4,3.1-3.1,3.1H24.9c-1.7,0-3.1-1.4-3.1-3.1v-0.8c0-1.7,1.4-3.1,3.1-3.1h34.5
			c1.7,0,3.1,1.4,3.1,3.1C62.6,66.5,62.6,67.3,62.6,67.3z"/>
		<path class="st0" d="M31.6,30c0.2-1.6,1.5-2.8,3.1-2.8h14.9c1.6,0,2.9,1.2,3.1,2.8"/>
	</g>
	<g>
		<g>
			<line class="st1" x1="25.5" y1="33.5" x2="58.9" y2="66.9"/>
			<line class="st1" x1="58.9" y1="33.5" x2="25.5" y2="66.9"/>
		</g>
		<g>
			<line class="st2" x1="25.5" y1="33.5" x2="58.9" y2="66.9"/>
			<line class="st2" x1="58.9" y1="33.5" x2="25.5" y2="66.9"/>
		</g>
	</g>
</g>
<rect x="0.4" y="0.4" class="st3" width="83.6" height="83.6"/>
</svg>
