<?xml version="1.0" encoding="utf-8"?>
<!-- Generator: Adobe Illustrator 22.0.0, SVG Export Plug-In . SVG Version: 6.00 Build 0)  -->
<svg version="1.1" id="Layer_1" xmlns="http://www.w3.org/2000/svg" xmlns:xlink="http://www.w3.org/1999/xlink" x="0px" y="0px"
	 width="128.943px" height="128.943px" viewBox="0 0 128.943 128.943" enable-background="new 0 0 128.943 128.943"
	 xml:space="preserve">
<g>
	
		<path id="Path_310_6_" fill="none" stroke="#020202" stroke-width="4" stroke-linecap="round" stroke-linejoin="round" stroke-miterlimit="10" d="
		M30.548,12.411h67.846l8.731,10.077v83.968l-8.731,10.077H30.548l-8.731-10.077V22.487L30.548,12.411z"/>
	
		<path id="Rectangle_595_7_" fill="none" stroke="#020202" stroke-width="4" stroke-linecap="round" stroke-linejoin="round" stroke-miterlimit="10" d="
		M80.079,23.247h9.261c2.357,0,4.27,1.911,4.27,4.269v1.202c0,2.358-1.912,4.269-4.27,4.269h-9.261c-2.358,0-4.27-1.911-4.27-4.269
		v-1.202C75.809,25.158,77.721,23.247,80.079,23.247z"/>
	<g>
		
			<path fill="#E1251B" stroke="#E1251B" stroke-width="3" stroke-linecap="round" stroke-linejoin="round" stroke-miterlimit="10" d="
			M36.788,70.755v-0.602l16.494-9.063v2.233l-13.144,7.13l13.144,7.131v2.233L36.788,70.755z"/>
		
			<path fill="#E1251B" stroke="#E1251B" stroke-width="3" stroke-linecap="round" stroke-linejoin="round" stroke-miterlimit="10" d="
			M69.132,50.954h2.147L58.781,90.642h-2.147L69.132,50.954z"/>
		
			<path fill="#E1251B" stroke="#E1251B" stroke-width="3" stroke-linecap="round" stroke-linejoin="round" stroke-miterlimit="10" d="
			M75.66,77.585l13.144-7.131l-13.144-7.13v-2.233l16.494,9.063v0.602L75.66,79.818V77.585z"/>
	</g>
</g>
</svg>
