<?xml version="1.0" encoding="utf-8"?>
<!-- Generator: Adobe Illustrator 23.0.2, SVG Export Plug-In . SVG Version: 6.00 Build 0)  -->
<svg version="1.1" xmlns="http://www.w3.org/2000/svg" xmlns:xlink="http://www.w3.org/1999/xlink" x="0px" y="0px"
	 width="128.943px" height="128.943px" viewBox="0 0 128.943 128.943" enable-background="new 0 0 128.943 128.943"
	 xml:space="preserve">
<g id="Layer_1">
	<g>
		
			<path id="Path_1077_80_" fill="none" stroke="#020202" stroke-width="4" stroke-linecap="round" stroke-linejoin="round" stroke-miterlimit="10" d="
			M71.087,99.483h34.69c10.776-0.275,19.288-9.237,19.012-20.014c-0.268-10.388-8.626-18.746-19.012-19.013
			c-2.004-0.002-3.998,0.299-5.911,0.897C98.158,42.107,81.17,27.89,61.925,29.599c-11.377,1.01-21.545,7.51-27.237,17.414
			C20.288,44.727,6.763,54.547,4.477,68.946c-2.285,14.4,7.534,27.926,21.934,30.211c1.358,0.216,2.733,0.325,4.11,0.326h27.167
			H71.087z"/>
		<g id="loader-2_7_">
			
				<path id="Path_220_7_" fill="none" stroke="#F9B621" stroke-width="4" stroke-linecap="round" stroke-linejoin="round" stroke-miterlimit="10" d="
				M67.183,44.877c-11.162-1.498-21.425,6.337-22.924,17.499c-0.688,5.126,0.598,10.321,3.596,14.535"/>
			
				<path id="Path_221_7_" fill="none" stroke="#F9B621" stroke-width="4" stroke-linecap="round" stroke-linejoin="round" stroke-miterlimit="10" d="
				M57.273,84.171c10.538,3.975,22.304-1.346,26.279-11.885c2.502-6.634,1.379-14.091-2.965-19.693"/>
			
				<path id="Path_222_7_" fill="none" stroke="#F9B621" stroke-width="4" stroke-linecap="round" stroke-linejoin="round" stroke-miterlimit="10" d="
				M62.258,39.3l5.402,5.401l-5.402,5.402"/>
			
				<path id="Path_223_7_" fill="none" stroke="#F9B621" stroke-width="4" stroke-linecap="round" stroke-linejoin="round" stroke-miterlimit="10" d="
				M61.608,89.642l-5.402-5.401l5.402-5.402"/>
			
				<path id="Ellipse_117_7_" fill="none" stroke="#E1251B" stroke-width="4" stroke-linecap="round" stroke-linejoin="round" stroke-miterlimit="10" d="
				M64.472,61.975c1.72,0,3.114,1.394,3.114,3.114c0,1.719-1.394,3.113-3.114,3.113c-1.719,0-3.113-1.394-3.113-3.113
				C61.359,63.369,62.753,61.975,64.472,61.975z"/>
		</g>
	</g>
</g>
<g id="Capa_2">
</g>
</svg>
