<?xml version="1.0" encoding="utf-8"?>
<!-- Generator: Adobe Illustrator 22.0.0, SVG Export Plug-In . SVG Version: 6.00 Build 0)  -->
<svg version="1.1" id="Layer_1" xmlns="http://www.w3.org/2000/svg" xmlns:xlink="http://www.w3.org/1999/xlink" x="0px" y="0px"
	 width="128.943px" height="128.943px" viewBox="0 0 128.943 128.943" enable-background="new 0 0 128.943 128.943"
	 xml:space="preserve">
<g>
	
		<path id="Path_310_8_" fill="none" stroke="#020202" stroke-width="4" stroke-linecap="round" stroke-linejoin="round" stroke-miterlimit="10" d="
		M21.817,90.403V22.487l8.731-10.077h67.846l8.731,10.077v83.968l-8.731,10.077H35.926"/>
	
		<path id="Rectangle_595_8_" fill="none" stroke="#020202" stroke-width="4" stroke-linecap="round" stroke-linejoin="round" stroke-miterlimit="10" d="
		M80.079,23.247h9.261c2.357,0,4.27,1.911,4.27,4.269v1.202c0,2.358-1.912,4.269-4.27,4.269h-9.261c-2.358,0-4.27-1.911-4.27-4.269
		v-1.202C75.809,25.158,77.721,23.247,80.079,23.247z"/>
	<g>
		<path fill="none" stroke="#020202" stroke-width="4" stroke-linecap="round" stroke-linejoin="round" stroke-miterlimit="10" d="
			M72.861,80.069c0.546,0.402,1.091,0.806,1.642,1.204c0.859,0.628,1.201,0.606,1.933-0.106c1.891-1.829,5.426-4.552,5.675-5.492
			c0.249-0.94-0.162,0.617,0.138-0.509c0.299-1.126-1.588-2.413-2.535-3.49c-0.717-0.885-0.926-2.08-0.549-3.155
			c0.325-1.364,1.309-2.474,2.624-2.961c1.231-0.31,2.398-0.838,3.447-1.557c0.096-0.364,0.016-0.061,0.137-0.507
			c0.121-0.448-1.424-5.012-2.135-7.524c-0.304-1.07-0.59-1.264-1.744-1.132c-1.453,0.167-2.904,0.355-4.361,0.473
			c-0.334-0.001-0.655-0.121-0.907-0.338c-0.711-0.635-1.386-1.308-2.019-2.018c-0.253-0.291-0.394-0.659-0.398-1.044
			c0.105-1.389,0.298-2.771,0.475-4.156c0.13-0.975-0.1-1.372-1.041-1.631c-2.405-0.656-4.815-1.301-7.232-1.938
			c-0.929-0.246-1.333-0.028-1.678,0.805c-0.539,1.296-1.101,2.57-1.625,3.864c-0.165,0.476-0.594,0.811-1.096,0.853
			c-0.847,0.137-1.658,0.46-2.51,0.619c-0.379,0.074-0.772,0.013-1.11-0.171c-1.184-0.802-2.321-1.683-3.472-2.535
			c-0.94-0.688-1.279-0.67-2.083,0.107c-1.873,1.819-5.507,5.07-5.607,5.448c-0.1,0.378,0.046-0.178-0.138,0.508
			c-0.145,0.546,0.883,1.688,1.773,2.655"/>
		<path fill="none" stroke="#020202" stroke-width="4" stroke-linecap="round" stroke-linejoin="round" stroke-miterlimit="10" d="
			M65.176,58.635c0.368,0.043,0.737,0.122,1.103,0.242c2.241,0.733,3.71,2.732,3.881,4.944"/>
		<path fill="none" stroke="#020202" stroke-width="4" stroke-linecap="round" stroke-linejoin="round" stroke-miterlimit="10" d="
			M64.085,69.896c-0.447-0.039-0.897-0.125-1.341-0.278c-2.155-0.714-3.587-2.602-3.833-4.719"/>
	</g>
	<path fill="none" stroke="#E1251B" stroke-width="4" stroke-linecap="round" stroke-linejoin="round" stroke-miterlimit="10" d="
		M54.538,64.324l8.192-8.192c-4.446-1.064-9.321,0.124-12.79,3.593c-3.47,3.47-4.657,8.344-3.593,12.79l-22.16,22.16
		c-4.446-1.064-9.321,0.124-12.791,3.593c-3.469,3.469-4.657,8.344-3.593,12.79l8.192-8.192c2.759-2.759,12.794,7.275,10.034,10.034
		l-8.192,8.192c4.446,1.064,9.321-0.124,12.79-3.593c3.47-3.47,4.657-8.344,3.593-12.79l22.16-22.16
		c4.446,1.064,9.321-0.124,12.79-3.593s4.657-8.344,3.593-12.79l-8.192,8.192C61.812,77.117,51.778,67.083,54.538,64.324z"/>
</g>
</svg>
