<?xml version="1.0" encoding="utf-8"?>
<!-- Generator: Adobe Illustrator 16.0.0, SVG Export Plug-In . SVG Version: 6.00 Build 0)  -->
<!DOCTYPE svg PUBLIC "-//W3C//DTD SVG 1.1//EN" "http://www.w3.org/Graphics/SVG/1.1/DTD/svg11.dtd">
<svg version="1.1" id="Layer_1" xmlns="http://www.w3.org/2000/svg" xmlns:xlink="http://www.w3.org/1999/xlink" x="0px" y="0px"
	 width="128.941px" height="128.943px" viewBox="0 0 128.941 128.943" enable-background="new 0 0 128.941 128.943"
	 xml:space="preserve">
<rect x="0.581" y="0.581" fill="none" stroke="#E5007E" stroke-width="1.1623" stroke-miterlimit="10" width="127.779" height="127.781"/>
<g id="Group_398" transform="translate(-17316 -1515)">
	<g id="Group_374" transform="rotate(180 8758.612 1078.75)">
		
			<path id="Path_502" fill="none" stroke="#E2231A" stroke-width="3" stroke-linecap="round" stroke-linejoin="round" stroke-miterlimit="10" d="
			M158.246,559.672l15.309-14.179l15.557,14.407"/>
		
			<path id="Line_416" fill="none" stroke="#E2231A" stroke-width="3" stroke-linecap="round" stroke-linejoin="round" stroke-miterlimit="10" d="
			M173.553,549.98v60.585"/>
	</g>
	<g id="Group_375" transform="translate(17433.559 1893.714)">
		
			<path id="Line_353_3_" fill="none" stroke="#020202" stroke-width="3" stroke-linecap="round" stroke-linejoin="round" stroke-miterlimit="10" d="
			M-62.725-283.201v-31.697"/>
		<g id="Group_303_3_">
			
				<ellipse id="Ellipse_173_6_" fill="none" stroke="#020202" stroke-width="3" stroke-linecap="round" stroke-linejoin="round" stroke-miterlimit="10" cx="-31.727" cy="-314.715" rx="30.997" ry="30.997"/>
			
				<ellipse id="Ellipse_176_6_" fill="none" stroke="#020202" stroke-width="3" stroke-linecap="round" stroke-linejoin="round" stroke-miterlimit="10" cx="-31.727" cy="-314.714" rx="8.905" ry="8.905"/>
			<g id="Group_264_6_" transform="translate(13.767 4.563)">
				
					<path id="Path_323_6_" fill="none" stroke="#020202" stroke-width="3" stroke-linecap="round" stroke-linejoin="round" stroke-miterlimit="10" d="
					M-53.234-334.332c0.545,0.909,1.654,1.309,2.652,0.955c3.346-1.271,7.043-1.271,10.389,0c0.998,0.354,2.105-0.046,2.65-0.955
					l2.439-4.347c0.566-1.009,0.207-2.285-0.801-2.852c-0.084-0.048-0.172-0.089-0.262-0.124c-5.914-2.401-12.531-2.401-18.445,0
					c-1.104,0.504-1.592,1.807-1.088,2.911c0.008,0.02,0.018,0.038,0.027,0.057L-53.234-334.332z"/>
			</g>
			<g id="Group_265_6_" transform="translate(13.665 30.138)">
				
					<path id="Path_324_6_" fill="none" stroke="#020202" stroke-width="3" stroke-linecap="round" stroke-linejoin="round" stroke-miterlimit="10" d="
					M-37.546-329.693c-0.545-0.908-1.654-1.308-2.652-0.954c-3.346,1.271-7.043,1.271-10.389,0c-0.998-0.354-2.107,0.046-2.65,0.954
					l-2.439,4.348c-0.563,1.01-0.199,2.285,0.811,2.849c0.082,0.045,0.164,0.085,0.25,0.119c5.916,2.402,12.533,2.402,18.447,0
					c1.104-0.503,1.592-1.808,1.088-2.911c-0.008-0.02-0.018-0.039-0.027-0.057L-37.546-329.693z"/>
			</g>
			<g id="Group_266_6_" transform="translate(4.563 13.665)">
				
					<path id="Path_325_6_" fill="none" stroke="#020202" stroke-width="3" stroke-linecap="round" stroke-linejoin="round" stroke-miterlimit="10" d="
					M-51.344-320.533c0.908-0.544,1.307-1.652,0.955-2.65c-1.273-3.348-1.273-7.044,0-10.391c0.352-0.997-0.047-2.106-0.955-2.65
					l-4.348-2.438c-1.01-0.563-2.285-0.201-2.85,0.809c-0.043,0.081-0.084,0.165-0.117,0.252c-2.404,5.914-2.404,12.531,0,18.445
					c0.502,1.104,1.807,1.592,2.91,1.088c0.02-0.009,0.039-0.018,0.057-0.027L-51.344-320.533z"/>
			</g>
			<g id="Group_267_6_" transform="translate(30.138 13.767)">
				
					<path id="Path_326_6_" fill="none" stroke="#020202" stroke-width="3" stroke-linecap="round" stroke-linejoin="round" stroke-miterlimit="10" d="
					M-46.704-336.22c-0.908,0.544-1.307,1.652-0.955,2.651c1.273,3.346,1.273,7.043,0,10.389c-0.352,0.998,0.047,2.107,0.955,2.651
					l4.348,2.438c1.01,0.563,2.285,0.2,2.85-0.811c0.043-0.08,0.084-0.164,0.117-0.251c2.404-5.913,2.404-12.532,0-18.446
					c-0.502-1.104-1.807-1.591-2.91-1.087c-0.02,0.009-0.039,0.018-0.057,0.026L-46.704-336.22z"/>
			</g>
		</g>
	</g>
	<g id="Group_378" transform="rotate(180 8758.612 1078.75)">
		
			<path id="Path_502-2" fill="none" stroke="#E2231A" stroke-width="3" stroke-linecap="round" stroke-linejoin="round" stroke-miterlimit="10" d="
			M158.246,559.672l15.309-14.179l15.557,14.407"/>
		
			<path id="Line_416-2" fill="none" stroke="#E2231A" stroke-width="3" stroke-linecap="round" stroke-linejoin="round" stroke-miterlimit="10" d="
			M173.553,549.98v60.585"/>
	</g>
	<g id="Group_379" transform="translate(17433.559 1893.714)">
		
			<path id="Line_353-2" fill="none" stroke="#E2231A" stroke-width="3" stroke-linecap="round" stroke-linejoin="round" stroke-miterlimit="10" d="
			M-62.725-283.201v-31.697"/>
		<g id="Group_303-2">
			
				<ellipse id="Ellipse_173-2" fill="none" stroke="#020202" stroke-width="3" stroke-linecap="round" stroke-linejoin="round" stroke-miterlimit="10" cx="-31.727" cy="-314.715" rx="30.997" ry="30.997"/>
			
				<ellipse id="Ellipse_176-2" fill="none" stroke="#020202" stroke-width="3" stroke-linecap="round" stroke-linejoin="round" stroke-miterlimit="10" cx="-31.727" cy="-314.714" rx="8.905" ry="8.905"/>
			<g id="Group_264-2" transform="translate(13.767 4.563)">
				
					<path id="Path_323-2" fill="none" stroke="#020202" stroke-width="3" stroke-linecap="round" stroke-linejoin="round" stroke-miterlimit="10" d="
					M-53.234-334.332c0.545,0.909,1.654,1.309,2.652,0.955c3.346-1.271,7.043-1.271,10.389,0c0.998,0.354,2.105-0.046,2.65-0.955
					l2.439-4.347c0.566-1.009,0.207-2.285-0.801-2.852c-0.084-0.048-0.172-0.089-0.262-0.124c-5.914-2.401-12.531-2.401-18.445,0
					c-1.104,0.504-1.592,1.807-1.088,2.911c0.008,0.02,0.018,0.038,0.027,0.057L-53.234-334.332z"/>
			</g>
			<g id="Group_265-2" transform="translate(13.665 30.138)">
				
					<path id="Path_324-2" fill="none" stroke="#020202" stroke-width="3" stroke-linecap="round" stroke-linejoin="round" stroke-miterlimit="10" d="
					M-37.546-329.693c-0.545-0.908-1.654-1.308-2.652-0.954c-3.346,1.271-7.043,1.271-10.389,0c-0.998-0.354-2.107,0.046-2.65,0.954
					l-2.439,4.348c-0.563,1.01-0.199,2.285,0.811,2.849c0.082,0.045,0.164,0.085,0.25,0.119c5.916,2.402,12.533,2.402,18.447,0
					c1.104-0.503,1.592-1.808,1.088-2.911c-0.008-0.02-0.018-0.039-0.027-0.057L-37.546-329.693z"/>
			</g>
			<g id="Group_266-2" transform="translate(4.563 13.665)">
				
					<path id="Path_325-2" fill="none" stroke="#020202" stroke-width="3" stroke-linecap="round" stroke-linejoin="round" stroke-miterlimit="10" d="
					M-51.344-320.533c0.908-0.544,1.307-1.652,0.955-2.65c-1.273-3.348-1.273-7.044,0-10.391c0.352-0.997-0.047-2.106-0.955-2.65
					l-4.348-2.438c-1.01-0.563-2.285-0.201-2.85,0.809c-0.043,0.081-0.084,0.165-0.117,0.252c-2.404,5.914-2.404,12.531,0,18.445
					c0.502,1.104,1.807,1.592,2.91,1.088c0.02-0.009,0.039-0.018,0.057-0.027L-51.344-320.533z"/>
			</g>
			<g id="Group_267-2" transform="translate(30.138 13.767)">
				
					<path id="Path_326-2" fill="none" stroke="#020202" stroke-width="3" stroke-linecap="round" stroke-linejoin="round" stroke-miterlimit="10" d="
					M-46.704-336.22c-0.908,0.544-1.307,1.652-0.955,2.651c1.273,3.346,1.273,7.043,0,10.389c-0.352,0.998,0.047,2.107,0.955,2.651
					l4.348,2.438c1.01,0.563,2.285,0.2,2.85-0.811c0.043-0.08,0.084-0.164,0.117-0.251c2.404-5.913,2.404-12.532,0-18.446
					c-0.502-1.104-1.807-1.591-2.91-1.087c-0.02,0.009-0.039,0.018-0.057,0.026L-46.704-336.22z"/>
			</g>
		</g>
	</g>
</g>
</svg>
