<?xml version="1.0" encoding="utf-8"?>
<!-- Generator: Adobe Illustrator 16.0.0, SVG Export Plug-In . SVG Version: 6.00 Build 0)  -->
<!DOCTYPE svg PUBLIC "-//W3C//DTD SVG 1.1//EN" "http://www.w3.org/Graphics/SVG/1.1/DTD/svg11.dtd">
<svg version="1.1" id="Layer_1" xmlns="http://www.w3.org/2000/svg" xmlns:xlink="http://www.w3.org/1999/xlink" x="0px" y="0px"
	 width="51.885px" height="51.886px" viewBox="0 0 51.885 51.886" enable-background="new 0 0 51.885 51.886" xml:space="preserve">
<g>
	
		<path id="Path_1195_4_" fill="none" stroke="#020202" stroke-width="4.0189" stroke-linecap="round" stroke-linejoin="round" stroke-miterlimit="10" d="
		M32.717,44.667H19.173c-3.982-0.012-7.207-3.237-7.217-7.218v-8.66c0.014-3.978,3.237-7.2,7.217-7.212h13.544
		c3.979,0.012,7.201,3.234,7.212,7.212v8.66C39.918,41.427,36.696,44.652,32.717,44.667z"/>
	
		<path id="Path_1196_4_" fill="none" stroke="#020202" stroke-width="4.0189" stroke-linecap="round" stroke-linejoin="round" stroke-miterlimit="10" d="
		M32.404,21.579v-7.897c0-3.569,2.894-6.463,6.462-6.463s6.462,2.894,6.462,6.463v7.897"/>
	
		<path id="Path_1197_4_" fill="none" stroke="#020202" stroke-width="4.0189" stroke-linecap="round" stroke-linejoin="round" stroke-miterlimit="10" d="
		M22.968,32.071c0.013-1.441,1.192-2.6,2.634-2.588c1.425,0.015,2.574,1.164,2.587,2.588c0,1.566-1.004,1.785-1.109,2.39
		c-0.367,2.171-0.375,2.826-1.504,2.826s-1.137-0.675-1.503-2.838C23.968,33.851,22.968,33.757,22.968,32.071L22.968,32.071z"/>
</g>
</svg>
