<?xml version="1.0" encoding="utf-8"?>
<!-- Generator: Adobe Illustrator 16.0.0, SVG Export Plug-In . SVG Version: 6.00 Build 0)  -->
<!DOCTYPE svg PUBLIC "-//W3C//DTD SVG 1.1//EN" "http://www.w3.org/Graphics/SVG/1.1/DTD/svg11.dtd">
<svg version="1.1" id="Layer_1" xmlns="http://www.w3.org/2000/svg" xmlns:xlink="http://www.w3.org/1999/xlink" x="0px" y="0px"
	 width="51.885px" height="51.885px" viewBox="0 0 51.885 51.885" enable-background="new 0 0 51.885 51.885" xml:space="preserve">
<g id="Group_459_125_" transform="translate(.483)">
	<g id="Group_456_125_" transform="translate(334.517 283)">
		<g id="Group_438_125_">
			
				<path id="Path_1088_125_" fill="none" stroke="#696A69" stroke-width="3" stroke-linecap="round" stroke-linejoin="round" stroke-miterlimit="10" d="
				M-316.845-251.585v-17.467c0-2.341-1.898-4.239-4.239-4.239c-2.342,0-4.239,1.898-4.239,4.239l0,0v17.467
				c-2.833,2.341-3.233,6.536-0.891,9.369c2.342,2.833,6.535,3.232,9.369,0.891c2.833-2.341,3.232-6.536,0.891-9.369
				C-316.223-251.019-316.521-251.317-316.845-251.585z"/>
			<path id="Path_1089_125_" fill="#696A69" d="M-319.292-248.399c-0.375-0.337-0.583-0.821-0.571-1.324v-12.146
				c0-0.676-0.546-1.222-1.222-1.222c-0.675,0-1.222,0.546-1.222,1.222v12.318c-0.011,0.452-0.223,0.877-0.58,1.157
				c-1.179,0.994-1.329,2.753-0.336,3.932c0.993,1.178,2.753,1.327,3.931,0.334c1.178-0.992,1.328-2.753,0.336-3.931
				c-0.103-0.12-0.215-0.234-0.336-0.335V-248.399z"/>
		</g>
	</g>
	<g id="Group_458_83_" transform="translate(180 261.86)">
		<g id="Group_192_83_" transform="translate(173 16.757)">
			
				<path id="Rectangle_192_83_" fill="none" stroke="#F9B621" stroke-width="3" stroke-linecap="round" stroke-linejoin="round" stroke-miterlimit="10" d="
				M-323.509-261.56h11.579c1.697,0,3.072,1.375,3.072,3.071v11.579c0,1.697-1.375,3.072-3.072,3.072h-11.579
				c-1.696,0-3.072-1.375-3.072-3.072v-11.579C-326.581-260.185-325.205-261.56-323.509-261.56z"/>
			
				<path id="Path_261_83_" fill="none" stroke="#F9B621" stroke-width="3" stroke-linecap="round" stroke-linejoin="round" stroke-miterlimit="10" d="
				M-317.651-261.624c-0.845-3.338,0.775-6.812,3.877-8.309"/>
			
				<path id="Path_262_83_" fill="none" stroke="#F9B621" stroke-width="3" stroke-linecap="round" stroke-linejoin="round" stroke-miterlimit="10" d="
				M-313.772-243.397l-0.186,3.954l-3.763,3.192l-3.766-3.192l-0.186-3.954"/>
		</g>
		<g id="Group_200_83_">
			
				<path id="Path_285_83_" fill="none" stroke="#F9B621" stroke-width="3" stroke-linecap="round" stroke-linejoin="round" stroke-miterlimit="10" d="
				M-147.307-238.983v6.136"/>
			
				<path id="Path_1222_41_" fill="none" stroke="#F9B621" stroke-width="3" stroke-linecap="round" stroke-linejoin="round" stroke-miterlimit="10" d="
				M-142.449-238.983v6.136"/>
		</g>
	</g>
</g>
</svg>
