<?xml version="1.0" encoding="utf-8"?>
<!-- Generator: Adobe Illustrator 22.0.0, SVG Export Plug-In . SVG Version: 6.00 Build 0)  -->
<svg version="1.1" id="Layer_1" xmlns="http://www.w3.org/2000/svg" xmlns:xlink="http://www.w3.org/1999/xlink" x="0px" y="0px"
	 width="84.345px" height="84.345px" viewBox="0 0 84.345 84.345" enable-background="new 0 0 84.345 84.345" xml:space="preserve">
<g>
	
		<path id="Path_349_2_" fill="none" stroke="#020202" stroke-width="3" stroke-linecap="round" stroke-linejoin="round" stroke-miterlimit="10" d="
		M42.265,70.977H27.85c-3.552-0.043-6.423-2.912-6.468-6.464V25.418h41.579v23.513"/>
	
		<path id="Rectangle_319_1_" fill="none" stroke="#020202" stroke-width="3" stroke-linecap="round" stroke-linejoin="round" stroke-miterlimit="10" d="
		M28.22,11.558h28.09v13.86H28.22V11.558z"/>
	<g id="Group_300-2_1_" transform="translate(12.13 5.54)">
		
			<path id="Rectangle_320_1_" fill="none" stroke="#020202" stroke-width="3" stroke-linecap="round" stroke-linejoin="round" stroke-miterlimit="10" d="
			M20.341,10.823h7.023v4.436h-7.023V10.823z"/>
		
			<path id="Rectangle_321_1_" fill="none" stroke="#020202" stroke-width="3" stroke-linecap="round" stroke-linejoin="round" stroke-miterlimit="10" d="
			M32.722,10.823h7.023v4.436h-7.023V10.823z"/>
	</g>
	
		<path id="Rectangle_322_2_" fill="none" stroke="#020202" stroke-width="3" stroke-linecap="round" stroke-linejoin="round" stroke-miterlimit="10" d="
		M45.072,75.227H33.21v-4.25h9.055"/>
	
		<path id="Path_350_2_" fill="none" stroke="#E1251B" stroke-width="3" stroke-linecap="round" stroke-linejoin="round" stroke-miterlimit="10" d="
		M62.241,65.859l-5.142,4.762l-5.226-4.839"/>
	
		<path id="Line_309_2_" fill="none" stroke="#E1251B" stroke-width="3" stroke-linecap="round" stroke-linejoin="round" stroke-miterlimit="10" d="
		M57.057,70.622V57.809"/>
	
		<circle fill="none" stroke="#E1251B" stroke-width="3" stroke-linecap="round" stroke-linejoin="round" stroke-miterlimit="10" cx="57.057" cy="64.215" r="12.012"/>
</g>
<path id="Path_1216_4_" fill="none" stroke="#020202" stroke-width="3" stroke-linecap="round" stroke-linejoin="round" stroke-miterlimit="10" d="
	M44.798,43.805c0.452-1.385-0.303-2.875-1.689-3.328c-1.386-0.452-2.875,0.304-3.329,1.689c-0.451,1.382,0.299,2.868,1.678,3.325
	c1.363,0.469,2.848-0.256,3.317-1.618C44.783,43.85,44.79,43.827,44.798,43.805z M32.506,43.498
	c0.043-0.166,0.022-0.078,0.065-0.237c0.443-0.309,0.938-0.535,1.46-0.67c0.729-0.141,1.287-0.731,1.388-1.466
	c0.168-0.52,0.047-1.091-0.32-1.496c-0.427-0.484-1.218-1.253-1.133-1.575c0.086-0.321,0.018-0.061,0.065-0.237
	c0.047-0.177,1.743-1.694,2.617-2.543c0.376-0.363,0.534-0.371,0.973-0.05c0.537,0.398,1.068,0.809,1.621,1.183
	c0.158,0.086,0.341,0.115,0.518,0.08c0.398-0.074,0.776-0.225,1.172-0.289c0.234-0.019,0.435-0.176,0.512-0.398
	c0.245-0.604,0.507-1.199,0.759-1.804c0.161-0.389,0.35-0.491,0.783-0.376c1.128,0.297,2.253,0.598,3.376,0.904
	c0.439,0.121,0.547,0.306,0.486,0.761c-0.083,0.647-0.173,1.292-0.222,1.94c0.002,0.179,0.068,0.351,0.186,0.487
	c0.296,0.332,0.61,0.646,0.942,0.942c0.118,0.101,0.267,0.157,0.424,0.158c0.68-0.055,1.357-0.143,2.036-0.221
	c0.539-0.062,0.672,0.029,0.814,0.528c0.332,1.172,1.053,3.303,0.997,3.512c-0.057,0.208-0.019,0.067-0.064,0.237
	c-0.489,0.336-1.034,0.582-1.609,0.727c-0.614,0.228-1.073,0.745-1.225,1.382c-0.176,0.502-0.078,1.06,0.256,1.473
	c0.442,0.502,1.323,1.103,1.183,1.629c-0.14,0.525,0.052-0.201-0.065,0.237c-0.116,0.439-1.766,1.71-2.649,2.564
	c-0.342,0.332-0.502,0.343-0.903,0.049c-0.566-0.409-1.119-0.831-1.693-1.229c-0.135-0.077-0.293-0.103-0.445-0.074
	c-0.435,0.091-0.865,0.206-1.288,0.344c-0.161,0.045-0.299,0.148-0.387,0.291c-0.28,0.585-0.507,1.198-0.792,1.788
	c-0.105,0.21-0.33,0.589-0.492,0.545c-0.163-0.044-3.837-1.026-3.987-1.068c-0.151-0.041-0.195-0.404-0.182-0.596
	c0.05-0.65,0.146-1.297,0.231-1.942c0.06-0.241-0.033-0.495-0.234-0.641c-0.314-0.249-0.566-0.575-0.87-0.835
	c-0.136-0.12-0.31-0.187-0.492-0.19c-0.669,0.048-1.332,0.138-1.995,0.214c-0.537,0.061-0.676-0.028-0.816-0.529
	c-0.334-1.171-1.042-3.35-0.998-3.511H32.506z"/>
</svg>
