<?xml version="1.0" encoding="utf-8"?>
<!-- Generator: Adobe Illustrator 23.0.2, SVG Export Plug-In . SVG Version: 6.00 Build 0)  -->
<svg version="1.1" id="Layer_1" xmlns="http://www.w3.org/2000/svg" xmlns:xlink="http://www.w3.org/1999/xlink" x="0px" y="0px"
	 width="128.9px" height="128.9px" viewBox="0 0 128.9 128.9" style="enable-background:new 0 0 128.9 128.9;" xml:space="preserve"
	>
<style type="text/css">
	.st0{fill:none;}
	.st1{fill:none;stroke:#E2231A;stroke-width:3;stroke-linecap:round;stroke-linejoin:round;stroke-miterlimit:10;}
	.st2{fill:none;stroke:#020202;stroke-width:3;stroke-linecap:round;stroke-linejoin:round;stroke-miterlimit:10;}
</style>
<rect x="0.6" y="0.6" class="st0" width="127.8" height="127.8"/>
<g id="Group_397" transform="translate(-17316.002 -1504)">
	<g id="Group_372" transform="translate(17313.41 1570)">
		<path id="Path_502_1_" class="st1" d="M14.7-19.9L30-34.1l15.6,14.4"/>
		<path id="Line_416_1_" class="st1" d="M30-29.6V31"/>
	</g>
	<g id="Group_373" transform="translate(17433.559 1791.714)">
		<path id="Line_353_2_" class="st2" d="M-62.7-192.2v-31.7"/>
		<g id="Group_303_2_">
			<ellipse id="Ellipse_173_5_" class="st2" cx="-31.7" cy="-223.7" rx="31" ry="31"/>
			<ellipse id="Ellipse_176_5_" class="st2" cx="-31.7" cy="-223.7" rx="8.9" ry="8.9"/>
			<g id="Group_264_5_" transform="translate(13.767 4.563)">
				<path id="Path_323_5_" class="st2" d="M-53.2-243.3c0.5,0.9,1.7,1.3,2.7,1c3.3-1.3,7-1.3,10.4,0c1,0.4,2.1,0,2.7-1l2.4-4.3
					c0.6-1,0.2-2.3-0.8-2.9c-0.1,0-0.2-0.1-0.3-0.1c-5.9-2.4-12.5-2.4-18.4,0c-1.1,0.5-1.6,1.8-1.1,2.9c0,0,0,0,0,0.1L-53.2-243.3z"
					/>
			</g>
			<g id="Group_265_5_" transform="translate(13.665 30.138)">
				<path id="Path_324_5_" class="st2" d="M-37.5-238.7c-0.5-0.9-1.7-1.3-2.7-1c-3.3,1.3-7,1.3-10.4,0c-1-0.4-2.1,0-2.7,1l-2.4,4.3
					c-0.6,1-0.2,2.3,0.8,2.8c0.1,0,0.2,0.1,0.3,0.1c5.9,2.4,12.5,2.4,18.4,0c1.1-0.5,1.6-1.8,1.1-2.9c0,0,0,0,0-0.1L-37.5-238.7z"/>
			</g>
			<g id="Group_266_5_" transform="translate(4.563 13.665)">
				<path id="Path_325_5_" class="st2" d="M-51.3-229.5c0.9-0.5,1.3-1.7,1-2.6c-1.3-3.3-1.3-7,0-10.4c0.4-1,0-2.1-1-2.7l-4.3-2.4
					c-1-0.6-2.3-0.2-2.8,0.8c0,0.1-0.1,0.2-0.1,0.3c-2.4,5.9-2.4,12.5,0,18.4c0.5,1.1,1.8,1.6,2.9,1.1c0,0,0,0,0.1,0L-51.3-229.5z"
					/>
			</g>
			<g id="Group_267_5_" transform="translate(30.138 13.767)">
				<path id="Path_326_5_" class="st2" d="M-46.7-245.2c-0.9,0.5-1.3,1.7-1,2.6c1.3,3.3,1.3,7,0,10.4c-0.4,1,0,2.1,1,2.7l4.3,2.4
					c1,0.6,2.3,0.2,2.8-0.8c0-0.1,0.1-0.2,0.1-0.3c2.4-5.9,2.4-12.5,0-18.4c-0.5-1.1-1.8-1.6-2.9-1.1c0,0,0,0-0.1,0L-46.7-245.2z"/>
			</g>
		</g>
	</g>
	<g id="Group_376" transform="translate(17313.41 1570)">
		<path id="Path_502-2_1_" class="st1" d="M14.7-19.9L30-34.1l15.6,14.4"/>
		<path id="Line_416-2_1_" class="st1" d="M30-29.6V31"/>
	</g>
	<g id="Group_377" transform="translate(17433.559 1791.714)">
		<path id="Line_353-2_1_" class="st1" d="M-62.7-192.2v-31.7"/>
		<g id="Group_303-2_1_">
			<ellipse id="Ellipse_173-2_1_" class="st2" cx="-31.7" cy="-223.7" rx="31" ry="31"/>
			<ellipse id="Ellipse_176-2_1_" class="st2" cx="-31.7" cy="-223.7" rx="8.9" ry="8.9"/>
			<g id="Group_264-2_1_" transform="translate(13.767 4.563)">
				<path id="Path_323-2_1_" class="st2" d="M-53.2-243.3c0.5,0.9,1.7,1.3,2.7,1c3.3-1.3,7-1.3,10.4,0c1,0.4,2.1,0,2.7-1l2.4-4.3
					c0.6-1,0.2-2.3-0.8-2.9c-0.1,0-0.2-0.1-0.3-0.1c-5.9-2.4-12.5-2.4-18.4,0c-1.1,0.5-1.6,1.8-1.1,2.9c0,0,0,0,0,0.1L-53.2-243.3z"
					/>
			</g>
			<g id="Group_265-2_1_" transform="translate(13.665 30.138)">
				<path id="Path_324-2_1_" class="st2" d="M-37.5-238.7c-0.5-0.9-1.7-1.3-2.7-1c-3.3,1.3-7,1.3-10.4,0c-1-0.4-2.1,0-2.7,1
					l-2.4,4.3c-0.6,1-0.2,2.3,0.8,2.8c0.1,0,0.2,0.1,0.3,0.1c5.9,2.4,12.5,2.4,18.4,0c1.1-0.5,1.6-1.8,1.1-2.9c0,0,0,0,0-0.1
					L-37.5-238.7z"/>
			</g>
			<g id="Group_266-2_1_" transform="translate(4.563 13.665)">
				<path id="Path_325-2_1_" class="st2" d="M-51.3-229.5c0.9-0.5,1.3-1.7,1-2.6c-1.3-3.3-1.3-7,0-10.4c0.4-1,0-2.1-1-2.7l-4.3-2.4
					c-1-0.6-2.3-0.2-2.8,0.8c0,0.1-0.1,0.2-0.1,0.3c-2.4,5.9-2.4,12.5,0,18.4c0.5,1.1,1.8,1.6,2.9,1.1c0,0,0,0,0.1,0L-51.3-229.5z"
					/>
			</g>
			<g id="Group_267-2_1_" transform="translate(30.138 13.767)">
				<path id="Path_326-2_1_" class="st2" d="M-46.7-245.2c-0.9,0.5-1.3,1.7-1,2.6c1.3,3.3,1.3,7,0,10.4c-0.4,1,0,2.1,1,2.7l4.3,2.4
					c1,0.6,2.3,0.2,2.8-0.8c0-0.1,0.1-0.2,0.1-0.3c2.4-5.9,2.4-12.5,0-18.4c-0.5-1.1-1.8-1.6-2.9-1.1c0,0,0,0-0.1,0L-46.7-245.2z"/>
			</g>
		</g>
	</g>
</g>
</svg>
