<?xml version="1.0" encoding="utf-8"?>
<!-- Generator: Adobe Illustrator 16.0.0, SVG Export Plug-In . SVG Version: 6.00 Build 0)  -->
<!DOCTYPE svg PUBLIC "-//W3C//DTD SVG 1.1//EN" "http://www.w3.org/Graphics/SVG/1.1/DTD/svg11.dtd">
<svg version="1.1" id="Layer_1" xmlns="http://www.w3.org/2000/svg" xmlns:xlink="http://www.w3.org/1999/xlink" x="0px" y="0px"
	 width="84.344px" height="84.345px" viewBox="0 0 84.344 84.345" enable-background="new 0 0 84.344 84.345" xml:space="preserve">
<g>
	
		<path fill="none" stroke="#020202" stroke-width="2.8532" stroke-linecap="round" stroke-linejoin="round" stroke-miterlimit="10" d="
		M57.75,48.846"/>
	<g>
		
			<path fill="none" stroke="#020202" stroke-width="2.8532" stroke-linecap="round" stroke-linejoin="round" stroke-miterlimit="10" d="
			M48.439,35.424c0,3.492-2.831,6.326-6.325,6.326H26.592"/>
		
			<path fill="none" stroke="#020202" stroke-width="2.8532" stroke-linecap="round" stroke-linejoin="round" stroke-miterlimit="10" d="
			M48.439,21.413"/>
		
			<path fill="none" stroke="#020202" stroke-width="2.8532" stroke-linecap="round" stroke-linejoin="round" stroke-miterlimit="10" d="
			M11.683,41.75H8.309c-3.492,0-6.324-2.833-6.324-6.326V18.109c0-3.494,2.832-6.325,6.324-6.325h33.806"/>
	</g>
	<g>
		
			<path fill="none" stroke="#020202" stroke-width="2.8532" stroke-linecap="round" stroke-linejoin="round" stroke-miterlimit="10" d="
			M48.439,26.495v-8.385c0-3.494-2.831-6.325-6.325-6.325"/>
	</g>
	<g>
		
			<path fill="none" stroke="#020202" stroke-width="2.8532" stroke-linecap="round" stroke-linejoin="round" stroke-miterlimit="10" d="
			M35.903,54.556c0,3.494,2.832,6.327,6.325,6.327h15.523"/>
		
			<path fill="none" stroke="#020202" stroke-width="2.8532" stroke-linecap="round" stroke-linejoin="round" stroke-miterlimit="10" d="
			M35.903,40.546"/>
		
			<path fill="none" stroke="#020202" stroke-width="2.8532" stroke-linecap="round" stroke-linejoin="round" stroke-miterlimit="10" d="
			M72.661,60.882h3.374c3.492,0,6.324-2.833,6.324-6.327V37.243c0-3.495-2.832-6.326-6.324-6.326H42.229"/>
	</g>
	<g>
		
			<path fill="none" stroke="#020202" stroke-width="2.8532" stroke-linecap="round" stroke-linejoin="round" stroke-miterlimit="10" d="
			M35.903,37.243c0-3.495,2.832-6.326,6.325-6.326"/>
		
			<path fill="none" stroke="#020202" stroke-width="2.8532" stroke-linecap="round" stroke-linejoin="round" stroke-miterlimit="10" d="
			M35.903,49.434"/>
	</g>
	
		<polyline fill="none" stroke="#020202" stroke-width="2.8532" stroke-linecap="round" stroke-linejoin="round" stroke-miterlimit="10" points="
		72.661,60.882 65.207,70.391 57.75,60.882 	"/>
	<g>
		<path fill="#E2231A" d="M22.533,17.556h5.436l5.977,18.42h-4.354l-1.263-4.096h-6.673l-1.262,4.096h-3.916L22.533,17.556z
			 M22.558,28.918h4.868l-2.42-7.961L22.558,28.918z"/>
	</g>
	
		<polyline fill="none" stroke="#020202" stroke-width="2.8532" stroke-linecap="round" stroke-linejoin="round" stroke-miterlimit="10" points="
		11.683,41.75 19.137,51.258 26.592,41.75 	"/>
	
		<line fill="none" stroke="#020202" stroke-width="2.8532" stroke-linecap="round" stroke-linejoin="round" stroke-miterlimit="10" x1="35.903" y1="54.556" x2="35.903" y2="46.17"/>
	<path fill-rule="evenodd" clip-rule="evenodd" fill="#E2231A" d="M58.464,38.68c2.337-0.284,4.592-0.56,6.897-0.839
		c0.083,0.932,0.17,1.908,0.268,2.993c-2.465,0.219-4.881,0.435-7.343,0.653c0,0.794,0,1.609,0,2.471
		c0.438-0.041,0.881-0.083,1.323-0.119c0.227-0.02,0.453-0.033,0.68-0.037c0.638-0.013,0.638-0.011,0.844-0.646
		c0.974,0.172,1.955,0.345,2.975,0.524c-0.039,0.217-0.072,0.405-0.109,0.618c0.201,0.082,0.395,0.159,0.586,0.243
		c2.072,0.913,3.297,2.449,3.386,4.758c0.094,2.417-0.854,4.257-3.079,5.352c-1.208,0.594-2.5,0.893-3.822,1.083
		c-0.118,0.017-0.307-0.018-0.37-0.102c-0.519-0.684-1.015-1.386-1.54-2.114c0.67-0.139,1.309-0.202,1.896-0.41
		c0.793-0.281,1.594-0.597,2.304-1.039c0.905-0.565,1.354-1.458,1.333-2.554c-0.02-1.078-0.67-2.004-1.658-2.398
		c-0.648,0.934-1.273,1.874-1.941,2.783c-1.215,1.657-2.667,3.039-4.629,3.795c-1.157,0.447-2.329,0.808-3.594,0.622
		c-1.474-0.213-2.447-1.248-2.564-2.732c-0.125-1.628,0.406-3.035,1.445-4.264c0.866-1.026,1.949-1.765,3.164-2.306
		c0.281-0.124,0.361-0.278,0.355-0.572c-0.02-0.947-0.008-1.893-0.008-2.861c-0.689,0-1.32,0-1.949,0c-0.619,0-1.238,0-1.894,0
		c-0.048-0.945-0.096-1.874-0.147-2.862c1.334,0,2.641,0,4.053,0c0-0.906,0-1.761,0-2.656c1.133,0.085,2.16,0.165,3.262,0.249
		C58.547,37.064,58.51,37.802,58.464,38.68z M55.402,47.735c-0.746,0.422-1.391,0.892-1.756,1.617
		c-0.199,0.4-0.297,0.875-0.338,1.325c-0.041,0.445,0.25,0.765,0.691,0.731c0.564-0.043,1.119-0.211,1.674-0.346
		c0.066-0.017,0.15-0.175,0.139-0.256C55.688,49.802,55.549,48.798,55.402,47.735z M59.969,46.62
		c-0.033-0.039-0.069-0.082-0.104-0.123c-0.513,0.063-1.024,0.126-1.588,0.194c0.052,0.706,0.1,1.363,0.149,2.021
		c0.048,0.013,0.099,0.026,0.149,0.039C59.039,48.041,59.505,47.33,59.969,46.62z"/>
</g>
</svg>
