<?xml version="1.0" encoding="utf-8"?>
<!-- Generator: Adobe Illustrator 16.0.0, SVG Export Plug-In . SVG Version: 6.00 Build 0)  -->
<!DOCTYPE svg PUBLIC "-//W3C//DTD SVG 1.1//EN" "http://www.w3.org/Graphics/SVG/1.1/DTD/svg11.dtd">
<svg version="1.1" id="Layer_1" xmlns="http://www.w3.org/2000/svg" xmlns:xlink="http://www.w3.org/1999/xlink" x="0px" y="0px"
	 width="51.885px" height="51.886px" viewBox="0 0 51.885 51.886" enable-background="new 0 0 51.885 51.886" xml:space="preserve">
<g>
	<g>
		<g id="Group_175_41_" transform="translate(5895 -90)">
			
				<ellipse id="Ellipse_138_41_" fill="none" stroke="#E2231A" stroke-width="3" stroke-linecap="round" stroke-linejoin="round" stroke-miterlimit="10" cx="-5869.057" cy="127.461" rx="2.684" ry="2.684"/>
			
				<path id="Path_276_58_" fill="none" stroke="#F9B621" stroke-width="3" stroke-linecap="round" stroke-linejoin="round" stroke-miterlimit="10" d="
				M-5863.748,119.52c0.459,0.308,0.898,0.66,1.31,1.057c0.09,0.086,0.177,0.174,0.264,0.264"/>
			
				<path id="Path_276_41_" fill="none" stroke="#F9B621" stroke-width="3" stroke-linecap="round" stroke-linejoin="round" stroke-miterlimit="10" d="
				M-5875.94,120.841c0.484-0.502,1.01-0.942,1.566-1.316"/>
			
				<path id="Path_277_57_" fill="none" stroke="#F9B621" stroke-width="3" stroke-linecap="round" stroke-linejoin="round" stroke-miterlimit="10" d="
				M-5862.227,112.432c1.657,0.753,3.217,1.795,4.604,3.128c0.158,0.153,0.313,0.308,0.466,0.466"/>
			
				<path id="Path_277_41_" fill="none" stroke="#F9B621" stroke-width="3" stroke-linecap="round" stroke-linejoin="round" stroke-miterlimit="10" d="
				M-5880.953,116.026c1.483-1.544,3.195-2.737,5.031-3.576"/>
			
				<path id="Path_278_58_" fill="none" stroke="#F9B621" stroke-width="3" stroke-linecap="round" stroke-linejoin="round" stroke-miterlimit="10" d="
				M-5861.453,105.536c3.078,1.066,5.979,2.799,8.48,5.204c0.219,0.208,0.432,0.423,0.642,0.642"/>
			
				<path id="Path_278_41_" fill="none" stroke="#F9B621" stroke-width="3" stroke-linecap="round" stroke-linejoin="round" stroke-miterlimit="10" d="
				M-5885.783,111.382c2.598-2.702,5.692-4.638,9-5.803"/>
		</g>
		
			<path fill="#E2231A" stroke="#E2231A" stroke-width="3" stroke-linecap="round" stroke-linejoin="round" stroke-miterlimit="10" d="
			M28.627,15.496c0-1.481-1.202-2.684-2.684-2.684l0,0c-1.482,0-2.685,1.203-2.685,2.684c0,0,1.202,13.879,2.685,13.879l0,0
			C27.425,29.375,28.627,15.496,28.627,15.496z"/>
	</g>
</g>
</svg>
