<?xml version="1.0" encoding="utf-8"?>
<!-- Generator: Adobe Illustrator 23.0.2, SVG Export Plug-In . SVG Version: 6.00 Build 0)  -->
<svg version="1.1" id="Layer_1" xmlns="http://www.w3.org/2000/svg" xmlns:xlink="http://www.w3.org/1999/xlink" x="0px" y="0px"
	 width="128.9px" height="128.9px" viewBox="0 0 128.9 128.9" style="enable-background:new 0 0 128.9 128.9;" xml:space="preserve"
	>
<style type="text/css">
	.st0{fill:none;stroke:#020202;stroke-width:3.9725;stroke-linecap:round;stroke-linejoin:round;stroke-miterlimit:10;}
	.st1{fill:none;stroke:#E2231A;stroke-width:4;stroke-linecap:round;stroke-linejoin:round;stroke-miterlimit:10;}
	.st2{fill:none;}
</style>
<g id="Group_392_1_" transform="translate(655.383 122.333)">
	<path id="Path_500_1_" class="st0" d="M-590.9-103.5c-17.1,0-31,13.9-31,31l0,0c0,24.8,16.5,25.9,16.5,39.5v12.7
		c0,7.6,6.2,13.7,13.7,13.7c0.3,0,0.5,0,0.7,0s0.5,0,0.7,0c7.6,0,13.7-6.2,13.7-13.7V-33c0-13.6,16.5-14.7,16.5-39.5
		C-559.9-89.6-573.8-103.5-590.9-103.5L-590.9-103.5z"/>
	<path id="Line_403_1_" class="st0" d="M-603.9-19.6l25.9-2.7"/>
	<path id="Line_408_1_" class="st1" d="M-587-37.6l4-34.4"/>
	<path id="Line_409_1_" class="st1" d="M-594.9-37.6l-4-34.4"/>
	<path id="Line_410_1_" class="st0" d="M-603.9-27.5l25.9-2.7"/>
	<path id="Line_393_1_" class="st0" d="M-605.3-34.9l28.8-3"/>
</g>
<rect x="0.6" y="0.6" class="st2" width="127.8" height="127.8"/>
</svg>
