<?xml version="1.0" encoding="utf-8"?>
<!-- Generator: Adobe Illustrator 23.0.2, SVG Export Plug-In . SVG Version: 6.00 Build 0)  -->
<svg version="1.1" id="Layer_1" xmlns="http://www.w3.org/2000/svg" xmlns:xlink="http://www.w3.org/1999/xlink" x="0px" y="0px"
	 width="128.9px" height="128.9px" viewBox="0 0 128.9 128.9" style="enable-background:new 0 0 128.9 128.9;" xml:space="preserve"
	>
<style type="text/css">
	.st0{fill:none;}
	.st1{fill:none;stroke:#020202;stroke-width:4;stroke-linecap:round;stroke-linejoin:round;stroke-miterlimit:10;}
	.st2{fill:none;stroke:#E2231A;stroke-width:4;stroke-linecap:round;stroke-linejoin:round;stroke-miterlimit:10;}
</style>
<rect x="0.6" y="0.6" class="st0" width="127.8" height="127.8"/>
<g>
	<g id="Group_399_2_">
		<g id="Group_390_2_" transform="translate(26.5 -4.5)">
			<path id="Line_411_2_" class="st1" d="M-5.3,96.4h86.6"/>
			<path id="Line_412_2_" class="st1" d="M-5.3,104.9h86.6"/>
		</g>
	</g>
	<g id="Group_433" transform="translate(428 124.365)">
		<path id="Path_159" class="st2" d="M-362.2-94.6l12.5,21.7l12.3,21.3c1.8,2.5-1.3,4.9-2.4,4.9h-49.6c-3.1,0.3-3.6-3.6-3.1-4.5
			l12.5-21.7l12.3-21.3C-366.4-97-362.7-95.6-362.2-94.6L-362.2-94.6z"/>
		<path id="Path_160" class="st2" d="M-365.2-77.3c-2.2,6-1.6,8.4,0.2,13.1c1.9,4.7-1.1,10-1.1,10"/>
		<path id="Path_161" class="st2" d="M-356.5-64.2c1.8,4.7-1.1,10-1.1,10"/>
		<path id="Path_162" class="st2" d="M-373.9-64.2c1.8,4.7-1.1,10-1.1,10"/>
	</g>
</g>
</svg>
