<?xml version="1.0" encoding="utf-8"?>
<!-- Generator: Adobe Illustrator 16.0.0, SVG Export Plug-In . SVG Version: 6.00 Build 0)  -->
<!DOCTYPE svg PUBLIC "-//W3C//DTD SVG 1.1//EN" "http://www.w3.org/Graphics/SVG/1.1/DTD/svg11.dtd">
<svg version="1.1" id="Layer_1" xmlns="http://www.w3.org/2000/svg" xmlns:xlink="http://www.w3.org/1999/xlink" x="0px" y="0px"
	 width="51.885px" height="51.886px" viewBox="0 0 51.885 51.886" enable-background="new 0 0 51.885 51.886" xml:space="preserve">
<g id="Group_459_131_" transform="translate(.483)">
	<g id="Group_456_131_" transform="translate(334.517 283)">
		<g id="Group_438_131_">
			
				<path id="Path_1088_131_" fill="none" stroke="#35A8E0" stroke-width="3" stroke-linecap="round" stroke-linejoin="round" stroke-miterlimit="10" d="
				M-316.845-251.584v-17.467c0-2.341-1.898-4.238-4.239-4.238c-2.342,0-4.239,1.897-4.239,4.238l0,0v17.467
				c-2.833,2.341-3.233,6.536-0.891,9.369c2.342,2.833,6.535,3.232,9.369,0.891c2.833-2.34,3.232-6.536,0.891-9.369
				C-316.223-251.018-316.521-251.316-316.845-251.584z"/>
			<path id="Path_1089_131_" fill="#35A8E0" d="M-319.292-248.398c-0.375-0.338-0.583-0.822-0.571-1.324v-12.146
				c0-0.676-0.546-1.222-1.222-1.222c-0.675,0-1.222,0.546-1.222,1.222v12.317c-0.011,0.454-0.223,0.878-0.58,1.159
				c-1.179,0.992-1.329,2.752-0.336,3.931c0.993,1.178,2.753,1.327,3.931,0.335c1.178-0.993,1.328-2.753,0.336-3.931
				c-0.103-0.121-0.215-0.233-0.336-0.334V-248.398z"/>
		</g>
	</g>
	<g id="Group_458_87_" transform="translate(180 261.86)">
		<g id="Group_192_87_" transform="translate(173 16.757)">
			
				<path id="Rectangle_192_87_" fill="none" stroke="#F9B621" stroke-width="3" stroke-linecap="round" stroke-linejoin="round" stroke-miterlimit="10" d="
				M-323.509-261.56h11.579c1.697,0,3.072,1.375,3.072,3.071v11.579c0,1.697-1.375,3.072-3.072,3.072h-11.579
				c-1.696,0-3.072-1.375-3.072-3.072v-11.579C-326.581-260.185-325.205-261.56-323.509-261.56z"/>
			
				<path id="Path_261_87_" fill="none" stroke="#F9B621" stroke-width="3" stroke-linecap="round" stroke-linejoin="round" stroke-miterlimit="10" d="
				M-317.651-261.622c-0.845-3.339,0.775-6.813,3.877-8.31"/>
			
				<path id="Path_262_87_" fill="none" stroke="#F9B621" stroke-width="3" stroke-linecap="round" stroke-linejoin="round" stroke-miterlimit="10" d="
				M-313.772-243.396l-0.186,3.954l-3.763,3.191l-3.766-3.191l-0.186-3.954"/>
		</g>
		<g id="Group_200_87_">
			
				<path id="Path_285_87_" fill="none" stroke="#F9B621" stroke-width="3" stroke-linecap="round" stroke-linejoin="round" stroke-miterlimit="10" d="
				M-147.307-238.983v6.136"/>
			
				<path id="Path_1222_43_" fill="none" stroke="#F9B621" stroke-width="3" stroke-linecap="round" stroke-linejoin="round" stroke-miterlimit="10" d="
				M-142.449-238.983v6.136"/>
		</g>
	</g>
</g>
</svg>
