<?xml version="1.0" encoding="utf-8"?>
<!-- Generator: Adobe Illustrator 16.0.0, SVG Export Plug-In . SVG Version: 6.00 Build 0)  -->
<!DOCTYPE svg PUBLIC "-//W3C//DTD SVG 1.1//EN" "http://www.w3.org/Graphics/SVG/1.1/DTD/svg11.dtd">
<svg version="1.1" id="Layer_1" xmlns="http://www.w3.org/2000/svg" xmlns:xlink="http://www.w3.org/1999/xlink" x="0px" y="0px"
	 width="51.885px" height="51.886px" viewBox="0 0 51.885 51.886" enable-background="new 0 0 51.885 51.886" xml:space="preserve">
<g id="Group_459_137_" transform="translate(.483)">
	<g id="Group_456_135_" transform="translate(334.517 283)">
		<g id="Group_438_135_">
			
				<path id="Path_1088_135_" fill="none" stroke="#020202" stroke-width="3" stroke-linecap="round" stroke-linejoin="round" stroke-miterlimit="10" d="
				M-316.818-252.097v-17.467c0-2.341-1.897-4.239-4.239-4.239c-2.342,0-4.239,1.898-4.239,4.239l0,0v17.467
				c-2.833,2.341-3.232,6.536-0.892,9.369c2.342,2.833,6.536,3.232,9.369,0.892s3.232-6.535,0.891-9.369
				C-316.195-251.53-316.494-251.827-316.818-252.097z"/>
			<path id="Path_1089_135_" fill="#E2231A" d="M-319.265-248.911c-0.375-0.336-0.583-0.822-0.571-1.325v-12.145
				c0-0.676-0.546-1.223-1.222-1.223c-0.675,0-1.223,0.547-1.223,1.223v12.317c-0.01,0.453-0.223,0.878-0.579,1.157
				c-1.179,0.995-1.33,2.753-0.337,3.932c0.993,1.178,2.754,1.329,3.932,0.335c1.178-0.992,1.328-2.753,0.335-3.932
				c-0.103-0.121-0.215-0.234-0.335-0.335V-248.911z"/>
		</g>
	</g>
	<g id="Group_460_45_" transform="translate(354.517 276.598)">
		<g id="Group_178_45_" transform="translate(0 22.243)">
			
				<path id="Path_267_45_" fill="none" stroke="#020202" stroke-width="3" stroke-linecap="round" stroke-linejoin="round" stroke-miterlimit="10" d="
				M-319.368-270.499l8.965,5.986l-8.644,5.773l-8.966-5.987L-319.368-270.499z"/>
		</g>
		
			<path id="Path_268_45_" fill="none" stroke="#020202" stroke-width="3" stroke-linecap="round" stroke-linejoin="round" stroke-miterlimit="10" d="
			M-319.236-267.4c-2.252,3.788-1.281,5.058,0.838,7.995c2.118,2.936-1.237,6.181-1.237,6.181"/>
		
			<path id="Path_269_45_" fill="none" stroke="#020202" stroke-width="3" stroke-linecap="round" stroke-linejoin="round" stroke-miterlimit="10" d="
			M-326.477-263.13c-1.904,2.911-1.086,3.891,0.711,6.144c1.796,2.252-1.048,4.749-1.048,4.749"/>
		
			<path id="Path_270_45_" fill="none" stroke="#020202" stroke-width="3" stroke-linecap="round" stroke-linejoin="round" stroke-miterlimit="10" d="
			M-311.706-263.13c-1.904,2.911-1.081,3.891,0.71,6.144s-1.047,4.749-1.047,4.749"/>
	</g>
</g>
</svg>
