<?xml version="1.0" encoding="utf-8"?>
<!-- Generator: Adobe Illustrator 16.0.0, SVG Export Plug-In . SVG Version: 6.00 Build 0)  -->
<!DOCTYPE svg PUBLIC "-//W3C//DTD SVG 1.1//EN" "http://www.w3.org/Graphics/SVG/1.1/DTD/svg11.dtd">
<svg version="1.1" id="Layer_1" xmlns="http://www.w3.org/2000/svg" xmlns:xlink="http://www.w3.org/1999/xlink" x="0px" y="0px"
	 width="84.344px" height="84.345px" viewBox="0 0 84.344 84.345" enable-background="new 0 0 84.344 84.345" xml:space="preserve">
<g>
	
		<path id="Line_295" fill="none" stroke="#E2231A" stroke-width="3" stroke-linecap="round" stroke-linejoin="round" stroke-miterlimit="10" d="
		M75.813,73.16H39.83"/>
	<g id="Group_268" transform="translate(12094.558 608.689)">
		
			<ellipse id="Ellipse_173" fill="none" stroke="#020202" stroke-width="3" stroke-linecap="round" stroke-linejoin="round" stroke-miterlimit="10" cx="-12055.001" cy="-566.644" rx="31.028" ry="31.028"/>
		
			<ellipse id="Ellipse_176" fill="none" stroke="#020202" stroke-width="3" stroke-linecap="round" stroke-linejoin="round" stroke-miterlimit="10" cx="-12055.001" cy="-566.644" rx="8.914" ry="8.914"/>
		<g id="Group_264" transform="translate(14.551 27.015)">
			
				<path id="Path_323" fill="none" stroke="#020202" stroke-width="3" stroke-linecap="round" stroke-linejoin="round" stroke-miterlimit="10" d="
				M-12077.296-608.727c0.545,0.909,1.653,1.308,2.652,0.955c3.349-1.273,7.049-1.273,10.398,0c1,0.353,2.109-0.046,2.652-0.955
				l2.441-4.351c0.564-1.009,0.207-2.284-0.803-2.85c-0.082-0.046-0.168-0.087-0.256-0.122c-5.92-2.406-12.545-2.406-18.466,0
				c-1.104,0.504-1.592,1.81-1.087,2.915c0.009,0.019,0.018,0.038,0.027,0.056L-12077.296-608.727z"/>
		</g>
		<g id="Group_265" transform="translate(14.402 64.263)">
			
				<path id="Path_324" fill="none" stroke="#020202" stroke-width="3" stroke-linecap="round" stroke-linejoin="round" stroke-miterlimit="10" d="
				M-12061.55-615.732c-0.543-0.909-1.653-1.308-2.652-0.955c-3.35,1.274-7.049,1.274-10.398,0c-1-0.353-2.109,0.046-2.653,0.955
				l-2.44,4.352c-0.565,1.009-0.205,2.285,0.803,2.849c0.084,0.047,0.17,0.089,0.258,0.122c5.92,2.405,12.545,2.405,18.465,0
				c1.105-0.505,1.593-1.81,1.088-2.915c-0.008-0.019-0.018-0.038-0.027-0.056L-12061.55-615.732z"/>
		</g>
		<g id="Group_266" transform="translate(1.146 40.271)">
			
				<path id="Path_325" fill="none" stroke="#020202" stroke-width="3" stroke-linecap="round" stroke-linejoin="round" stroke-miterlimit="10" d="
				M-12071.214-599.062c0.908-0.545,1.309-1.654,0.954-2.653c-1.273-3.349-1.273-7.05,0-10.399c0.354-0.999-0.046-2.108-0.954-2.652
				l-4.352-2.441c-1.008-0.565-2.284-0.206-2.85,0.803c-0.047,0.083-0.087,0.168-0.121,0.257c-2.406,5.919-2.406,12.544,0,18.464
				c0.504,1.105,1.809,1.592,2.914,1.088c0.02-0.008,0.039-0.019,0.057-0.026L-12071.214-599.062z"/>
		</g>
		<g id="Group_267" transform="translate(38.394 40.42)">
			
				<path id="Path_326" fill="none" stroke="#020202" stroke-width="3" stroke-linecap="round" stroke-linejoin="round" stroke-miterlimit="10" d="
				M-12078.219-614.809c-0.908,0.543-1.309,1.653-0.955,2.652c1.273,3.35,1.273,7.05,0,10.399c-0.354,1,0.047,2.11,0.955,2.653
				l4.352,2.441c1.008,0.565,2.284,0.206,2.85-0.804c0.046-0.083,0.087-0.168,0.121-0.257c2.404-5.92,2.404-12.544,0-18.463
				c-0.504-1.105-1.81-1.593-2.914-1.087c-0.02,0.009-0.039,0.017-0.057,0.026L-12078.219-614.809z"/>
		</g>
	</g>
</g>
</svg>
