<?xml version="1.0" encoding="utf-8"?>
<!-- Generator: Adobe Illustrator 16.0.0, SVG Export Plug-In . SVG Version: 6.00 Build 0)  -->
<!DOCTYPE svg PUBLIC "-//W3C//DTD SVG 1.1//EN" "http://www.w3.org/Graphics/SVG/1.1/DTD/svg11.dtd">
<svg version="1.1" id="Layer_1" xmlns="http://www.w3.org/2000/svg" xmlns:xlink="http://www.w3.org/1999/xlink" x="0px" y="0px"
	 width="48.865px" height="48.867px" viewBox="0 0 48.865 48.867" enable-background="new 0 0 48.865 48.867" xml:space="preserve">
<g id="Group_175_12_" transform="translate(5895 -90)">
	
		<ellipse id="Ellipse_138_12_" fill="none" stroke="#020202" stroke-width="2.7807" stroke-linecap="round" stroke-linejoin="round" stroke-miterlimit="10" cx="-5870.567" cy="127.941" rx="3.534" ry="3.534"/>
	
		<path id="Path_277_67_" fill="none" stroke="#020202" stroke-width="2.7807" stroke-linecap="round" stroke-linejoin="round" stroke-miterlimit="10" d="
		M-5859.629,109.156c1.461,0.853,2.846,1.89,4.119,3.113c0.208,0.201,0.412,0.406,0.613,0.613"/>
	
		<path id="Path_277_65_" fill="none" stroke="#020202" stroke-width="2.7807" stroke-linecap="round" stroke-linejoin="round" stroke-miterlimit="10" d="
		M-5873.038,106.349c1.552-0.177,3.119-0.187,4.674-0.029"/>
	
		<path id="Path_277_12_" fill="none" stroke="#020202" stroke-width="2.7807" stroke-linecap="round" stroke-linejoin="round" stroke-miterlimit="10" d="
		M-5886.232,112.882c1.398-1.455,2.95-2.673,4.605-3.653"/>
	
		<path id="Path_278_12_" fill="none" stroke="#020202" stroke-width="2.7807" stroke-linecap="round" stroke-linejoin="round" stroke-miterlimit="10" d="
		M-5892.593,106.766c11.697-12.164,31.041-12.543,43.204-0.845c0.29,0.274,0.569,0.557,0.847,0.845"/>
</g>
<g>
	<g>
		
			<line fill="none" stroke="#E2231A" stroke-width="4" stroke-linecap="round" stroke-linejoin="round" stroke-miterlimit="10" x1="14.014" y1="14.014" x2="34.852" y2="34.852"/>
		
			<line fill="none" stroke="#E2231A" stroke-width="4" stroke-linecap="round" stroke-linejoin="round" stroke-miterlimit="10" x1="34.852" y1="14.014" x2="14.014" y2="34.852"/>
	</g>
</g>
</svg>
