<?xml version="1.0" encoding="utf-8"?>
<!-- Generator: Adobe Illustrator 16.0.0, SVG Export Plug-In . SVG Version: 6.00 Build 0)  -->
<!DOCTYPE svg PUBLIC "-//W3C//DTD SVG 1.1//EN" "http://www.w3.org/Graphics/SVG/1.1/DTD/svg11.dtd">
<svg version="1.1" id="Layer_1" xmlns="http://www.w3.org/2000/svg" xmlns:xlink="http://www.w3.org/1999/xlink" x="0px" y="0px"
	 width="128.941px" height="128.942px" viewBox="0 0 128.941 128.942" enable-background="new 0 0 128.941 128.942"
	 xml:space="preserve">
<g id="Group_411_1_" transform="translate(-4074.454 -1554.734)">
	<g id="Group_261_3_" transform="translate(14837.5 2197.511)">
		<g id="Group_255_3_">
			<g id="Group_254_3_" transform="translate(5.765 25.517)">
				<g id="Group_331_1_">
					
						<path id="Line_365_1_" fill="none" stroke="#020202" stroke-width="5.0082" stroke-linecap="round" stroke-linejoin="round" stroke-miterlimit="10" d="
						M-10749.605-595.358h29.828"/>
					
						<path id="Line_366_1_" fill="none" stroke="#020202" stroke-width="5.0082" stroke-linecap="round" stroke-linejoin="round" stroke-miterlimit="10" d="
						M-10749.605-604.463h29.828"/>
					
						<path id="Line_367_1_" fill="none" stroke="#020202" stroke-width="5.0082" stroke-linecap="round" stroke-linejoin="round" stroke-miterlimit="10" d="
						M-10749.605-586.254h29.828"/>
				</g>
			</g>
			
				<path id="Rectangle_261_3_" fill="none" stroke="#020202" stroke-width="4" stroke-linecap="round" stroke-linejoin="round" stroke-miterlimit="10" d="
				M-10742.183-597.762h27.707c5.668,0,10.264,4.596,10.264,10.265v27.707c0,5.668-4.596,10.264-10.264,10.264h-27.707
				c-5.668,0-10.264-4.595-10.264-10.264v-27.707C-10752.446-593.166-10747.851-597.762-10742.183-597.762z"/>
			
				<path id="Path_318_3_" fill="none" stroke="#020202" stroke-width="4" stroke-linecap="round" stroke-linejoin="round" stroke-miterlimit="10" d="
				M-10727.44-598.511c-5.816-37.249,45.133-40.46,45.133,0.787"/>
			
				<path id="Path_319_3_" fill="none" stroke="#020202" stroke-width="4" stroke-linecap="round" stroke-linejoin="round" stroke-miterlimit="10" d="
				M-10720.913-548.899l-0.314,6.672l-6.354,5.395l-6.344-5.395l-0.316-6.672"/>
		</g>
	</g>
	
		<path id="Line_368_1_" fill="none" stroke="#E2231A" stroke-width="4" stroke-linecap="round" stroke-linejoin="round" stroke-miterlimit="10" d="
		M4091.124,1671.267h101.67"/>
	<g id="Group_332_1_" transform="translate(14876.551 2195.778)">
		
			<path id="Path_311_1_" fill="none" stroke="#E2231A" stroke-width="4" stroke-linecap="round" stroke-linejoin="round" stroke-miterlimit="10" d="
			M-10716.034-615.983l12.865-12.865l12.867,12.865"/>
		
			<path id="Path_312_1_" fill="none" stroke="#E2231A" stroke-width="4" stroke-linecap="round" stroke-linejoin="round" stroke-miterlimit="10" d="
			M-10690.626-538.263l-12.865,12.865l-12.867-12.865"/>
		<g id="Group_251_1_" transform="rotate(-90 22.908 22.908)">
			
				<ellipse id="Ellipse_143_1_" transform="matrix(-2.547107e-006 -1 1 -2.547107e-006 11310.6563 -10096.0391)" fill="none" stroke="#E2231A" stroke-width="4" stroke-linecap="round" stroke-linejoin="round" stroke-miterlimit="10" cx="607.322" cy="-10703.333" rx="5.396" ry="5.396"/>
		</g>
		
			<path id="Line_329_1_" fill="none" stroke="#E2231A" stroke-width="4" stroke-linecap="round" stroke-linejoin="round" stroke-miterlimit="10" d="
			M-10703.265-553.343v27.315"/>
		
			<path id="Line_330_1_" fill="none" stroke="#E2231A" stroke-width="4" stroke-linecap="round" stroke-linejoin="round" stroke-miterlimit="10" d="
			M-10703.335-626.273v56.372"/>
	</g>
</g>
</svg>
