<?xml version="1.0" encoding="utf-8"?>
<!-- Generator: Adobe Illustrator 22.0.0, SVG Export Plug-In . SVG Version: 6.00 Build 0)  -->
<svg version="1.1" id="Layer_1" xmlns="http://www.w3.org/2000/svg" xmlns:xlink="http://www.w3.org/1999/xlink" x="0px" y="0px"
	 width="128.943px" height="128.943px" viewBox="0 0 128.943 128.943" enable-background="new 0 0 128.943 128.943"
	 xml:space="preserve">
<g>
	<g>
		
			<path id="Path_349_2_" fill="none" stroke="#020202" stroke-width="4" stroke-linecap="round" stroke-linejoin="round" stroke-miterlimit="10" d="
			M64.613,107.747H42.576c-5.431-0.066-9.818-4.451-9.887-9.882V33.407h63.564v40.638"/>
		
			<path id="Rectangle_319_1_" fill="none" stroke="#020202" stroke-width="4" stroke-linecap="round" stroke-linejoin="round" stroke-miterlimit="10" d="
			M43.142,12.218h42.942v21.189H43.142V12.218z"/>
		<g id="Group_300-2_1_" transform="translate(12.13 5.54)">
			
				<path id="Rectangle_320_1_" fill="none" stroke="#020202" stroke-width="4" stroke-linecap="round" stroke-linejoin="round" stroke-miterlimit="10" d="
				M37.509,14.024h10.736v6.781H37.509V14.024z"/>
			
				<path id="Rectangle_321_1_" fill="none" stroke="#020202" stroke-width="4" stroke-linecap="round" stroke-linejoin="round" stroke-miterlimit="10" d="
				M56.437,14.024h10.736v6.781H56.437V14.024z"/>
		</g>
		
			<path id="Rectangle_322_2_" fill="none" stroke="#020202" stroke-width="4" stroke-linecap="round" stroke-linejoin="round" stroke-miterlimit="10" d="
			M68.904,114.245H50.77v-6.498h13.843"/>
		
			<path id="Path_350_2_" fill="none" stroke="#E1251B" stroke-width="4" stroke-linecap="round" stroke-linejoin="round" stroke-miterlimit="10" d="
			M95.15,99.924l-7.861,7.28L79.3,99.807"/>
		
			<path id="Line_309_2_" fill="none" stroke="#E1251B" stroke-width="4" stroke-linecap="round" stroke-linejoin="round" stroke-miterlimit="10" d="
			M87.225,107.204V87.617"/>
		
			<circle fill="none" stroke="#E1251B" stroke-width="4" stroke-linecap="round" stroke-linejoin="round" stroke-miterlimit="10" cx="87.226" cy="97.411" r="18.363"/>
	</g>
	
		<path id="Path_1216_4_" fill="none" stroke="#020202" stroke-width="4" stroke-linecap="round" stroke-linejoin="round" stroke-miterlimit="10" d="
		M68.484,61.516c0.692-2.117-0.463-4.395-2.582-5.088c-2.118-0.691-4.396,0.465-5.088,2.582c-0.689,2.112,0.457,4.384,2.566,5.083
		c2.084,0.717,4.353-0.391,5.07-2.474C68.462,61.585,68.473,61.55,68.484,61.516z M49.693,61.047
		c0.066-0.254,0.034-0.119,0.099-0.362c0.677-0.472,1.433-0.818,2.232-1.024c1.115-0.216,1.968-1.117,2.122-2.242
		c0.257-0.796,0.072-1.667-0.489-2.287c-0.653-0.739-1.863-1.915-1.732-2.407c0.132-0.49,0.027-0.093,0.099-0.363
		c0.071-0.27,2.664-2.59,4.001-3.888c0.574-0.555,0.816-0.567,1.487-0.077c0.821,0.608,1.633,1.236,2.477,1.809
		c0.242,0.132,0.522,0.175,0.792,0.122c0.608-0.113,1.187-0.344,1.791-0.442c0.358-0.03,0.664-0.269,0.782-0.609
		c0.374-0.923,0.775-1.832,1.16-2.757c0.246-0.595,0.535-0.75,1.197-0.575c1.725,0.454,3.445,0.914,5.161,1.383
		c0.671,0.185,0.836,0.468,0.743,1.164c-0.127,0.989-0.264,1.975-0.339,2.966c0.003,0.274,0.103,0.537,0.284,0.745
		c0.452,0.507,0.933,0.987,1.441,1.44c0.18,0.155,0.409,0.24,0.648,0.241c1.039-0.084,2.075-0.218,3.112-0.337
		c0.823-0.094,1.027,0.045,1.244,0.808c0.507,1.792,1.61,5.049,1.523,5.369c-0.087,0.319-0.029,0.102-0.098,0.362
		c-0.748,0.513-1.581,0.89-2.46,1.111c-0.938,0.348-1.64,1.14-1.872,2.113c-0.269,0.767-0.119,1.62,0.392,2.251
		c0.676,0.768,2.022,1.687,1.809,2.49c-0.214,0.803,0.079-0.308-0.099,0.363c-0.178,0.671-2.7,2.614-4.05,3.919
		c-0.523,0.508-0.767,0.524-1.38,0.076c-0.866-0.625-1.71-1.27-2.587-1.879c-0.206-0.118-0.447-0.157-0.68-0.113
		c-0.665,0.139-1.322,0.315-1.969,0.526c-0.246,0.068-0.458,0.226-0.591,0.445c-0.428,0.894-0.775,1.832-1.211,2.734
		c-0.161,0.32-0.504,0.9-0.753,0.834c-0.249-0.067-5.867-1.568-6.095-1.632c-0.231-0.062-0.298-0.618-0.278-0.911
		c0.077-0.993,0.223-1.984,0.353-2.968c0.092-0.368-0.05-0.757-0.358-0.98c-0.48-0.38-0.866-0.878-1.33-1.277
		c-0.209-0.183-0.475-0.285-0.752-0.29c-1.023,0.074-2.036,0.211-3.05,0.327c-0.82,0.094-1.033-0.043-1.248-0.809
		c-0.51-1.791-1.593-5.121-1.525-5.368H49.693z"/>
</g>
</svg>
