<?xml version="1.0" encoding="utf-8"?>
<!-- Generator: Adobe Illustrator 16.0.0, SVG Export Plug-In . SVG Version: 6.00 Build 0)  -->
<!DOCTYPE svg PUBLIC "-//W3C//DTD SVG 1.1//EN" "http://www.w3.org/Graphics/SVG/1.1/DTD/svg11.dtd">
<svg version="1.1" id="Layer_1" xmlns="http://www.w3.org/2000/svg" xmlns:xlink="http://www.w3.org/1999/xlink" x="0px" y="0px"
	 width="107.637px" height="70px" viewBox="0 0 107.637 70" enable-background="new 0 0 107.637 70" xml:space="preserve">
<g>
	<path fill="#F9B621" d="M107.637,34.606c0-1.184-0.866-2.366-1.418-3.157L83.229,0H0v70h83.215l23.713-32.867
		C107.401,36.422,107.637,35.553,107.637,34.606z"/>
	<g>
		<path fill="#E2231A" d="M19.881,36.768c-0.276-0.393-0.707-0.981-0.707-1.57c0-0.473,0.117-0.905,0.354-1.26L33.28,14.883
			c0.116-0.158,0.155-0.354,0.155-0.59c0-0.59-0.47-1.062-1.061-1.062H18.112c-1.728,0-3.144,1.493-3.144,3.222v37.133
			c0,1.768,1.416,3.182,3.144,3.182c0,0,14.027,0,14.263,0c0.591,0,1.061-0.473,1.061-1.061c0-0.235-0.078-0.471-0.195-0.67
			L19.881,36.768z"/>
		<path fill="#E2231A" d="M61.885,13.231H47.699c-1.298,0-2.12,0.589-3.183,1.493l-23.614,20.04
			c-0.118,0.117-0.157,0.234-0.157,0.392c0,0.158,0.039,0.275,0.157,0.394l24.242,20.313c0.669,0.552,1.613,0.905,2.555,0.905
			h14.146c1.769,0,3.182-1.414,3.182-3.182V16.453C65.026,14.725,63.613,13.231,61.885,13.231z"/>
	</g>
</g>
</svg>
