<?xml version="1.0" encoding="utf-8"?>
<!-- Generator: Adobe Illustrator 23.0.2, SVG Export Plug-In . SVG Version: 6.00 Build 0)  -->
<svg version="1.1" id="Layer_1" xmlns="http://www.w3.org/2000/svg" xmlns:xlink="http://www.w3.org/1999/xlink" x="0px" y="0px"
	 viewBox="0 0 163.434 142.141" enable-background="new 0 0 163.434 142.141" xml:space="preserve">
<g>
	<path fill="#E1251B" d="M140.089,50.988c3.894,0,5.599-1.888,5.599-5.621c0-3.389-1.705-5.139-5.599-5.139
		c-3.893,0-5.575,1.75-5.575,5.139C134.514,49.1,136.196,50.988,140.089,50.988z"/>
	<path fill="#E1251B" d="M140.943,65.747h-5.47v10.248h5.47c2.986,0,4.228-2.044,4.228-5.4
		C145.17,67.309,143.929,65.747,140.943,65.747z"/>
	<path fill="#E1251B" d="M16.033,76.843c-0.896-1.284-2.302-3.206-2.302-5.13c0-1.542,0.378-2.955,1.15-4.112l44.9-62.215
		c0.382-0.51,0.514-1.15,0.514-1.922C60.295,1.538,58.756,0,56.832,0h-46.57C4.619,0,0,4.876,0,10.519v121.234
		c0,5.77,4.619,10.388,10.262,10.388c0,0,45.799,0,46.57,0c1.924,0,3.463-1.541,3.463-3.465c0-0.765-0.259-1.535-0.641-2.178
		L16.033,76.843z"/>
	<polygon fill="#E1251B" points="136.985,98.318 143.171,98.318 140.09,90.627 	"/>
	<path fill="#E1251B" d="M153.175,0H106.86c-4.236,0-6.923,1.923-10.393,4.876L19.374,70.301c-0.39,0.384-0.514,0.768-0.514,1.282
		c0,0.51,0.124,0.897,0.514,1.283l79.147,66.322c2.184,1.798,5.264,2.953,8.34,2.953h46.185c5.774,0,10.389-4.618,10.389-10.388
		V10.519C163.434,4.876,158.819,0,153.175,0z M131.013,11.863h4.392V19.8l7.904-7.937h6.117l-8.84,8.659l9.178,8.635h-6.276
		l-8.083-7.919v7.919h-4.392V11.863z M140.113,36.518c6.45,0,10.046,2.972,10.046,8.849c0,5.759-3.481,9.307-10.046,9.307
		c-6.59,0-10.046-3.548-10.046-9.307C130.067,39.49,133.662,36.518,140.113,36.518z M149.606,70.573
		c0,5.608-2.505,8.962-8.687,8.962h-9.882V62.069h9.882C147.101,62.069,149.606,64.964,149.606,70.573z M143.488,129.83
		l-8.083-7.917v7.917h-4.392v-17.295h4.392v7.937l7.904-7.937h5.841l-8.564,8.662l9.178,8.632H143.488z M145.696,104.692
		l-1.226-3.057h-8.782l-1.204,3.057h-4.68l7.507-17.609h5.791l7.484,17.609H145.696z"/>
</g>
</svg>
